G04*
G04 #@! TF.GenerationSoftware,Altium Limited,Altium Designer,19.0.10 (269)*
G04*
G04 Layer_Color=16711935*
%FSLAX25Y25*%
%MOIN*%
G70*
G01*
G75*
%ADD12C,0.01000*%
D12*
X328425Y202000D02*
X328420Y203001D01*
X328405Y204001D01*
X328379Y205002D01*
X328344Y206002D01*
X328298Y207001D01*
X328242Y208000D01*
X328176Y208999D01*
X328100Y209997D01*
X328013Y210994D01*
X327917Y211990D01*
X327810Y212985D01*
X327694Y213979D01*
X327567Y214971D01*
X327430Y215962D01*
X327283Y216952D01*
X327126Y217940D01*
X326959Y218927D01*
X326782Y219912D01*
X326594Y220895D01*
X326397Y221876D01*
X326190Y222855D01*
X325973Y223832D01*
X325746Y224807D01*
X325510Y225779D01*
X325263Y226749D01*
X325006Y227716D01*
X324740Y228680D01*
X324464Y229642D01*
X324178Y230601D01*
X323882Y231557D01*
X323577Y232510D01*
X323262Y233460D01*
X322937Y234407D01*
X322603Y235350D01*
X322259Y236290D01*
X321906Y237226D01*
X321543Y238158D01*
X321170Y239087D01*
X320789Y240012D01*
X320398Y240933D01*
X319997Y241850D01*
X319587Y242763D01*
X319168Y243672D01*
X318740Y244576D01*
X318302Y245476D01*
X317856Y246372D01*
X317400Y247263D01*
X316936Y248149D01*
X316462Y249030D01*
X315979Y249907D01*
X315488Y250779D01*
X314987Y251645D01*
X314478Y252507D01*
X313961Y253363D01*
X313434Y254214D01*
X312899Y255060D01*
X312355Y255900D01*
X311803Y256734D01*
X311242Y257563D01*
X310673Y258386D01*
X310096Y259203D01*
X309510Y260015D01*
X308916Y260820D01*
X308314Y261619D01*
X307704Y262412D01*
X307085Y263199D01*
X306459Y263980D01*
X305825Y264754D01*
X305183Y265522D01*
X304534Y266283D01*
X303876Y267037D01*
X303211Y267785D01*
X302538Y268526D01*
X301858Y269260D01*
X301171Y269987D01*
X300476Y270707D01*
X299774Y271420D01*
X299064Y272126D01*
X298348Y272824D01*
X297624Y273516D01*
X296894Y274199D01*
X296156Y274876D01*
X295412Y275545D01*
X294661Y276206D01*
X293903Y276859D01*
X293139Y277505D01*
X292368Y278143D01*
X291590Y278773D01*
X290807Y279396D01*
X290017Y280010D01*
X289220Y280616D01*
X288418Y281214D01*
X287610Y281804D01*
X286795Y282385D01*
X285975Y282959D01*
X285149Y283523D01*
X284318Y284080D01*
X283480Y284628D01*
X282638Y285167D01*
X281789Y285698D01*
X280936Y286220D01*
X280077Y286734D01*
X279213Y287239D01*
X278344Y287735D01*
X277469Y288222D01*
X276590Y288700D01*
X275707Y289169D01*
X274818Y289629D01*
X273925Y290080D01*
X273027Y290522D01*
X272125Y290955D01*
X271218Y291379D01*
X270307Y291793D01*
X269392Y292198D01*
X268473Y292594D01*
X267550Y292981D01*
X266623Y293358D01*
X265692Y293725D01*
X264758Y294084D01*
X263820Y294432D01*
X262879Y294771D01*
X261934Y295101D01*
X260986Y295421D01*
X260034Y295731D01*
X259080Y296031D01*
X258122Y296322D01*
X257162Y296603D01*
X256199Y296874D01*
X255233Y297136D01*
X254264Y297388D01*
X253293Y297629D01*
X252320Y297861D01*
X251344Y298083D01*
X250366Y298295D01*
X249386Y298497D01*
X248404Y298689D01*
X247420Y298871D01*
X246434Y299043D01*
X245446Y299206D01*
X244457Y299358D01*
X243467Y299500D01*
X242475Y299631D01*
X241482Y299753D01*
X240487Y299865D01*
X239492Y299967D01*
X238495Y300058D01*
X237498Y300139D01*
X236500Y300210D01*
X235501Y300271D01*
X234501Y300322D01*
X233502Y300363D01*
X232501Y300393D01*
X231501Y300414D01*
X230500Y300424D01*
X229500D01*
X228499Y300414D01*
X227498Y300393D01*
X226498Y300363D01*
X225498Y300322D01*
X224499Y300271D01*
X223500Y300210D01*
X222502Y300139D01*
X221505Y300058D01*
X220508Y299966D01*
X219513Y299865D01*
X218518Y299753D01*
X217525Y299631D01*
X216533Y299500D01*
X215542Y299358D01*
X214553Y299206D01*
X213566Y299043D01*
X212580Y298871D01*
X211596Y298689D01*
X210614Y298497D01*
X209634Y298295D01*
X208656Y298083D01*
X207680Y297861D01*
X206707Y297629D01*
X205736Y297387D01*
X204767Y297136D01*
X203801Y296874D01*
X202838Y296603D01*
X201878Y296322D01*
X200920Y296031D01*
X199966Y295731D01*
X199014Y295421D01*
X198066Y295101D01*
X197121Y294771D01*
X196180Y294432D01*
X195242Y294083D01*
X194307Y293725D01*
X193377Y293358D01*
X192450Y292981D01*
X191527Y292594D01*
X190608Y292198D01*
X189692Y291793D01*
X188782Y291379D01*
X187875Y290955D01*
X186973Y290522D01*
X186075Y290080D01*
X185182Y289629D01*
X184293Y289169D01*
X183409Y288700D01*
X182530Y288222D01*
X181656Y287735D01*
X180787Y287239D01*
X179923Y286734D01*
X179064Y286220D01*
X178210Y285698D01*
X177362Y285167D01*
X176519Y284628D01*
X175682Y284080D01*
X174850Y283523D01*
X174024Y282958D01*
X173204Y282385D01*
X172390Y281803D01*
X171582Y281214D01*
X170779Y280616D01*
X169983Y280010D01*
X169193Y279395D01*
X168409Y278773D01*
X167632Y278143D01*
X166861Y277505D01*
X166097Y276859D01*
X165339Y276205D01*
X164588Y275544D01*
X163844Y274875D01*
X163106Y274199D01*
X162375Y273515D01*
X161652Y272824D01*
X160935Y272126D01*
X160226Y271420D01*
X159524Y270707D01*
X158829Y269987D01*
X158141Y269260D01*
X157461Y268526D01*
X156789Y267785D01*
X156124Y267037D01*
X155466Y266283D01*
X154817Y265522D01*
X154175Y264754D01*
X153541Y263980D01*
X152914Y263199D01*
X152296Y262412D01*
X151686Y261619D01*
X151084Y260820D01*
X150490Y260015D01*
X149904Y259203D01*
X149327Y258386D01*
X148758Y257563D01*
X148197Y256734D01*
X147645Y255900D01*
X147101Y255059D01*
X146566Y254214D01*
X146039Y253363D01*
X145522Y252507D01*
X145012Y251645D01*
X144512Y250779D01*
X144021Y249907D01*
X143538Y249030D01*
X143064Y248149D01*
X142600Y247263D01*
X142144Y246372D01*
X141698Y245476D01*
X141260Y244576D01*
X140832Y243672D01*
X140413Y242763D01*
X140003Y241850D01*
X139602Y240933D01*
X139211Y240012D01*
X138830Y239087D01*
X138457Y238158D01*
X138094Y237226D01*
X137741Y236290D01*
X137397Y235350D01*
X137063Y234407D01*
X136738Y233460D01*
X136423Y232510D01*
X136118Y231557D01*
X135822Y230601D01*
X135536Y229642D01*
X135260Y228680D01*
X134994Y227716D01*
X134737Y226749D01*
X134490Y225779D01*
X134254Y224807D01*
X134027Y223832D01*
X133810Y222855D01*
X133603Y221876D01*
X133405Y220895D01*
X133218Y219912D01*
X133041Y218927D01*
X132874Y217941D01*
X132717Y216952D01*
X132570Y215963D01*
X132433Y214971D01*
X132306Y213979D01*
X132190Y212985D01*
X132083Y211990D01*
X131987Y210994D01*
X131900Y209997D01*
X131824Y208999D01*
X131758Y208001D01*
X131702Y207001D01*
X131656Y206002D01*
X131621Y205002D01*
X131595Y204001D01*
X131580Y203001D01*
X131575Y202000D01*
X131580Y201000D01*
X131595Y199999D01*
X131621Y198999D01*
X131656Y197999D01*
X131702Y196999D01*
X131758Y196000D01*
X131824Y195001D01*
X131900Y194004D01*
X131986Y193007D01*
X132083Y192011D01*
X132190Y191016D01*
X132306Y190022D01*
X132433Y189029D01*
X132570Y188038D01*
X132717Y187048D01*
X132874Y186060D01*
X133041Y185073D01*
X133218Y184089D01*
X133405Y183106D01*
X133602Y182124D01*
X133809Y181145D01*
X134027Y180168D01*
X134253Y179194D01*
X134490Y178222D01*
X134737Y177252D01*
X134994Y176285D01*
X135260Y175320D01*
X135536Y174358D01*
X135822Y173399D01*
X136117Y172443D01*
X136423Y171490D01*
X136738Y170540D01*
X137063Y169594D01*
X137397Y168651D01*
X137741Y167711D01*
X138094Y166775D01*
X138457Y165842D01*
X138829Y164913D01*
X139211Y163988D01*
X139602Y163067D01*
X140003Y162150D01*
X140412Y161238D01*
X140831Y160329D01*
X141260Y159424D01*
X141697Y158524D01*
X142144Y157629D01*
X142599Y156738D01*
X143064Y155852D01*
X143538Y154970D01*
X144020Y154094D01*
X144512Y153222D01*
X145012Y152355D01*
X145521Y151494D01*
X146039Y150638D01*
X146566Y149787D01*
X147101Y148941D01*
X147644Y148101D01*
X148197Y147267D01*
X148757Y146438D01*
X149327Y145615D01*
X149904Y144797D01*
X150490Y143986D01*
X151084Y143181D01*
X151686Y142381D01*
X152296Y141588D01*
X152914Y140801D01*
X153540Y140021D01*
X154174Y139247D01*
X154816Y138479D01*
X155466Y137718D01*
X156123Y136963D01*
X156788Y136216D01*
X157461Y135475D01*
X158141Y134741D01*
X158828Y134014D01*
X159523Y133294D01*
X160225Y132581D01*
X160935Y131875D01*
X161651Y131176D01*
X162375Y130485D01*
X163106Y129801D01*
X163843Y129125D01*
X164587Y128456D01*
X165338Y127795D01*
X166096Y127141D01*
X166861Y126496D01*
X167631Y125857D01*
X168409Y125227D01*
X169193Y124605D01*
X169983Y123991D01*
X170779Y123385D01*
X171581Y122787D01*
X172389Y122197D01*
X173204Y121615D01*
X174024Y121042D01*
X174850Y120477D01*
X175681Y119921D01*
X176519Y119373D01*
X177362Y118833D01*
X178210Y118302D01*
X179063Y117780D01*
X179922Y117267D01*
X180786Y116762D01*
X181656Y116266D01*
X182530Y115779D01*
X183409Y115301D01*
X184293Y114831D01*
X185181Y114371D01*
X186074Y113920D01*
X186972Y113478D01*
X187874Y113045D01*
X188781Y112622D01*
X189692Y112207D01*
X190607Y111802D01*
X191526Y111406D01*
X192449Y111020D01*
X193376Y110643D01*
X194306Y110275D01*
X195241Y109917D01*
X196179Y109568D01*
X197120Y109229D01*
X198065Y108900D01*
X199013Y108580D01*
X199965Y108270D01*
X200919Y107969D01*
X201877Y107678D01*
X202837Y107397D01*
X203800Y107126D01*
X204766Y106865D01*
X205735Y106613D01*
X206706Y106371D01*
X207679Y106139D01*
X208655Y105917D01*
X209633Y105705D01*
X210613Y105503D01*
X211595Y105311D01*
X212579Y105129D01*
X213565Y104957D01*
X214552Y104795D01*
X215541Y104643D01*
X216532Y104501D01*
X217524Y104369D01*
X218517Y104247D01*
X219511Y104135D01*
X220507Y104034D01*
X221503Y103942D01*
X222501Y103861D01*
X223499Y103790D01*
X224498Y103729D01*
X225497Y103678D01*
X226497Y103637D01*
X227497Y103607D01*
X228498Y103586D01*
X229498Y103576D01*
X230499Y103576D01*
X231499Y103586D01*
X232500Y103606D01*
X233500Y103637D01*
X234500Y103678D01*
X235499Y103728D01*
X236498Y103789D01*
X237496Y103861D01*
X238494Y103942D01*
X239490Y104033D01*
X240486Y104135D01*
X241480Y104247D01*
X242473Y104368D01*
X243465Y104500D01*
X244456Y104642D01*
X245445Y104794D01*
X246432Y104956D01*
X247418Y105128D01*
X248402Y105310D01*
X249384Y105502D01*
X250364Y105704D01*
X251342Y105917D01*
X252318Y106139D01*
X253291Y106370D01*
X254262Y106612D01*
X255231Y106864D01*
X256197Y107125D01*
X257160Y107396D01*
X258120Y107677D01*
X259078Y107968D01*
X260032Y108269D01*
X260984Y108579D01*
X261932Y108899D01*
X262877Y109228D01*
X263818Y109567D01*
X264756Y109916D01*
X265691Y110274D01*
X266621Y110641D01*
X267548Y111019D01*
X268471Y111405D01*
X269391Y111801D01*
X270305Y112206D01*
X271216Y112620D01*
X272123Y113044D01*
X273025Y113477D01*
X273923Y113919D01*
X274816Y114370D01*
X275705Y114830D01*
X276589Y115299D01*
X277468Y115777D01*
X278342Y116264D01*
X279211Y116760D01*
X280075Y117265D01*
X280934Y117779D01*
X281787Y118301D01*
X282636Y118832D01*
X283478Y119371D01*
X284316Y119919D01*
X285148Y120475D01*
X285974Y121040D01*
X286794Y121614D01*
X287608Y122195D01*
X288416Y122785D01*
X289219Y123383D01*
X290015Y123989D01*
X290805Y124603D01*
X291589Y125225D01*
X292366Y125856D01*
X293137Y126494D01*
X293901Y127139D01*
X294659Y127793D01*
X295410Y128454D01*
X296155Y129123D01*
X296892Y129799D01*
X297623Y130483D01*
X298346Y131174D01*
X299063Y131873D01*
X299772Y132578D01*
X300474Y133291D01*
X301169Y134011D01*
X301857Y134739D01*
X302537Y135473D01*
X303210Y136213D01*
X303875Y136961D01*
X304532Y137715D01*
X305182Y138477D01*
X305824Y139244D01*
X306458Y140018D01*
X307084Y140799D01*
X307702Y141586D01*
X308312Y142379D01*
X308914Y143178D01*
X309508Y143983D01*
X310094Y144795D01*
X310672Y145612D01*
X311241Y146435D01*
X311802Y147264D01*
X312354Y148098D01*
X312897Y148939D01*
X313433Y149784D01*
X313959Y150635D01*
X314477Y151491D01*
X314986Y152353D01*
X315487Y153219D01*
X315978Y154091D01*
X316461Y154967D01*
X316934Y155849D01*
X317399Y156735D01*
X317855Y157626D01*
X318301Y158521D01*
X318739Y159422D01*
X319167Y160326D01*
X319586Y161235D01*
X319996Y162147D01*
X320397Y163065D01*
X320788Y163986D01*
X321170Y164910D01*
X321542Y165839D01*
X321905Y166772D01*
X322258Y167708D01*
X322602Y168648D01*
X322936Y169591D01*
X323261Y170538D01*
X323576Y171487D01*
X323882Y172440D01*
X324177Y173396D01*
X324463Y174355D01*
X324739Y175317D01*
X325006Y176282D01*
X325262Y177249D01*
X325509Y178219D01*
X325746Y179191D01*
X325973Y180165D01*
X326190Y181142D01*
X326397Y182121D01*
X326594Y183102D01*
X326781Y184085D01*
X326958Y185070D01*
X327125Y186057D01*
X327282Y187045D01*
X327429Y188035D01*
X327566Y189026D01*
X327693Y190019D01*
X327810Y191013D01*
X327917Y192008D01*
X328013Y193004D01*
X328100Y194001D01*
X328176Y194998D01*
X328242Y195997D01*
X328298Y196996D01*
X328344Y197996D01*
X328379Y198996D01*
X328405Y199996D01*
X328420Y200996D01*
X328425Y201997D01*
Y202000D01*
X348110D02*
X348106Y203000D01*
X348093Y204000D01*
X348072Y205000D01*
X348042Y206000D01*
X348004Y206999D01*
X347958Y207998D01*
X347903Y208997D01*
X347839Y209995D01*
X347767Y210993D01*
X347687Y211989D01*
X347598Y212986D01*
X347501Y213981D01*
X347395Y214976D01*
X347281Y215969D01*
X347159Y216962D01*
X347028Y217953D01*
X346889Y218944D01*
X346741Y219933D01*
X346585Y220921D01*
X346421Y221907D01*
X346248Y222892D01*
X346067Y223876D01*
X345877Y224858D01*
X345679Y225839D01*
X345474Y226817D01*
X345259Y227794D01*
X345037Y228769D01*
X344806Y229743D01*
X344567Y230714D01*
X344320Y231683D01*
X344064Y232650D01*
X343800Y233614D01*
X343529Y234577D01*
X343249Y235537D01*
X342961Y236495D01*
X342665Y237450D01*
X342360Y238403D01*
X342048Y239353D01*
X341728Y240301D01*
X341399Y241245D01*
X341063Y242187D01*
X340719Y243126D01*
X340367Y244062D01*
X340006Y244995D01*
X339638Y245925D01*
X339263Y246852D01*
X338879Y247776D01*
X338487Y248696D01*
X338088Y249613D01*
X337681Y250527D01*
X337266Y251437D01*
X336844Y252343D01*
X336414Y253246D01*
X335976Y254145D01*
X335530Y255041D01*
X335078Y255933D01*
X334617Y256821D01*
X334149Y257704D01*
X333674Y258584D01*
X333191Y259460D01*
X332701Y260332D01*
X332203Y261199D01*
X331698Y262063D01*
X331186Y262922D01*
X330666Y263776D01*
X330140Y264627D01*
X329606Y265472D01*
X329065Y266314D01*
X328517Y267150D01*
X327961Y267982D01*
X327399Y268809D01*
X326830Y269632D01*
X326254Y270449D01*
X325671Y271262D01*
X325081Y272069D01*
X324484Y272872D01*
X323880Y273669D01*
X323270Y274462D01*
X322653Y275249D01*
X322030Y276031D01*
X321399Y276807D01*
X320763Y277579D01*
X320120Y278345D01*
X319470Y279105D01*
X318814Y279860D01*
X318151Y280609D01*
X317482Y281353D01*
X316807Y282091D01*
X316126Y282823D01*
X315439Y283549D01*
X314745Y284270D01*
X314045Y284984D01*
X313339Y285693D01*
X312628Y286396D01*
X311910Y287093D01*
X311187Y287783D01*
X310457Y288468D01*
X309722Y289146D01*
X308981Y289818D01*
X308235Y290483D01*
X307483Y291143D01*
X306725Y291796D01*
X305962Y292442D01*
X305194Y293082D01*
X304420Y293716D01*
X303640Y294342D01*
X302856Y294963D01*
X302066Y295576D01*
X301271Y296183D01*
X300471Y296783D01*
X299666Y297377D01*
X298856Y297963D01*
X298041Y298543D01*
X297221Y299115D01*
X296396Y299681D01*
X295566Y300240D01*
X294732Y300792D01*
X293893Y301336D01*
X293050Y301874D01*
X292202Y302404D01*
X291350Y302927D01*
X290493Y303443D01*
X289632Y303952D01*
X288766Y304453D01*
X287896Y304947D01*
X287023Y305433D01*
X286145Y305912D01*
X285263Y306384D01*
X284377Y306848D01*
X283487Y307305D01*
X282593Y307754D01*
X281696Y308196D01*
X280795Y308630D01*
X279890Y309056D01*
X278982Y309475D01*
X278070Y309886D01*
X277155Y310289D01*
X276236Y310684D01*
X275314Y311072D01*
X274389Y311452D01*
X273461Y311824D01*
X272529Y312188D01*
X271594Y312544D01*
X270657Y312892D01*
X269716Y313232D01*
X268773Y313565D01*
X267827Y313889D01*
X266878Y314205D01*
X265927Y314514D01*
X264973Y314814D01*
X264016Y315106D01*
X263057Y315390D01*
X262096Y315666D01*
X261132Y315933D01*
X260166Y316193D01*
X259198Y316444D01*
X258228Y316687D01*
X257256Y316922D01*
X256282Y317149D01*
X255306Y317367D01*
X254328Y317578D01*
X253348Y317779D01*
X252367Y317973D01*
X251384Y318158D01*
X250400Y318335D01*
X249414Y318504D01*
X248427Y318664D01*
X247438Y318816D01*
X246448Y318959D01*
X245458Y319094D01*
X244465Y319221D01*
X243472Y319339D01*
X242478Y319449D01*
X241483Y319551D01*
X240487Y319644D01*
X239491Y319728D01*
X238494Y319804D01*
X237496Y319872D01*
X236497Y319931D01*
X235498Y319982D01*
X234499Y320024D01*
X233500Y320058D01*
X232500Y320084D01*
X231500Y320101D01*
X230500Y320109D01*
X229500D01*
X228500Y320101D01*
X227500Y320084D01*
X226500Y320058D01*
X225500Y320024D01*
X224501Y319982D01*
X223502Y319931D01*
X222504Y319872D01*
X221506Y319804D01*
X220509Y319728D01*
X219512Y319644D01*
X218516Y319551D01*
X217521Y319449D01*
X216527Y319339D01*
X215534Y319221D01*
X214542Y319094D01*
X213551Y318959D01*
X212561Y318816D01*
X211573Y318664D01*
X210585Y318504D01*
X209599Y318335D01*
X208615Y318158D01*
X207632Y317973D01*
X206651Y317779D01*
X205672Y317578D01*
X204694Y317367D01*
X203718Y317149D01*
X202744Y316922D01*
X201771Y316687D01*
X200801Y316444D01*
X199833Y316193D01*
X198867Y315933D01*
X197904Y315666D01*
X196942Y315390D01*
X195983Y315106D01*
X195027Y314814D01*
X194073Y314513D01*
X193121Y314205D01*
X192173Y313889D01*
X191226Y313564D01*
X190283Y313232D01*
X189343Y312892D01*
X188405Y312544D01*
X187470Y312187D01*
X186539Y311823D01*
X185611Y311451D01*
X184685Y311072D01*
X183763Y310684D01*
X182845Y310289D01*
X181929Y309885D01*
X181018Y309474D01*
X180109Y309056D01*
X179205Y308629D01*
X178304Y308196D01*
X177406Y307754D01*
X176512Y307305D01*
X175623Y306848D01*
X174737Y306384D01*
X173855Y305912D01*
X172977Y305433D01*
X172103Y304946D01*
X171233Y304453D01*
X170368Y303951D01*
X169507Y303443D01*
X168650Y302927D01*
X167798Y302404D01*
X166950Y301873D01*
X166106Y301336D01*
X165267Y300791D01*
X164433Y300240D01*
X163604Y299681D01*
X162779Y299115D01*
X161959Y298542D01*
X161144Y297963D01*
X160334Y297376D01*
X159529Y296783D01*
X158729Y296183D01*
X157933Y295576D01*
X157144Y294962D01*
X156359Y294342D01*
X155580Y293715D01*
X154806Y293082D01*
X154037Y292442D01*
X153274Y291795D01*
X152517Y291142D01*
X151765Y290483D01*
X151018Y289817D01*
X150277Y289145D01*
X149542Y288467D01*
X148813Y287783D01*
X148090Y287092D01*
X147372Y286396D01*
X146660Y285693D01*
X145955Y284984D01*
X145255Y284270D01*
X144561Y283549D01*
X143874Y282823D01*
X143193Y282090D01*
X142517Y281353D01*
X141849Y280609D01*
X141186Y279860D01*
X140530Y279105D01*
X139880Y278344D01*
X139237Y277579D01*
X138601Y276807D01*
X137970Y276031D01*
X137347Y275249D01*
X136730Y274462D01*
X136120Y273669D01*
X135516Y272872D01*
X134919Y272069D01*
X134329Y271262D01*
X133746Y270449D01*
X133170Y269632D01*
X132601Y268809D01*
X132039Y267982D01*
X131483Y267150D01*
X130935Y266314D01*
X130394Y265472D01*
X129860Y264627D01*
X129334Y263776D01*
X128814Y262922D01*
X128302Y262063D01*
X127797Y261200D01*
X127299Y260332D01*
X126809Y259460D01*
X126326Y258584D01*
X125851Y257705D01*
X125383Y256821D01*
X124923Y255933D01*
X124470Y255041D01*
X124024Y254146D01*
X123586Y253246D01*
X123156Y252344D01*
X122734Y251437D01*
X122319Y250527D01*
X121912Y249613D01*
X121513Y248696D01*
X121121Y247776D01*
X120738Y246852D01*
X120362Y245926D01*
X119994Y244996D01*
X119633Y244063D01*
X119281Y243127D01*
X118937Y242188D01*
X118601Y241246D01*
X118272Y240301D01*
X117952Y239354D01*
X117640Y238404D01*
X117336Y237451D01*
X117039Y236495D01*
X116751Y235538D01*
X116472Y234578D01*
X116200Y233615D01*
X115936Y232650D01*
X115681Y231683D01*
X115433Y230714D01*
X115194Y229743D01*
X114963Y228770D01*
X114741Y227795D01*
X114527Y226818D01*
X114321Y225839D01*
X114123Y224859D01*
X113934Y223877D01*
X113752Y222893D01*
X113580Y221908D01*
X113415Y220922D01*
X113259Y219934D01*
X113112Y218945D01*
X112972Y217954D01*
X112841Y216963D01*
X112719Y215970D01*
X112605Y214977D01*
X112499Y213982D01*
X112402Y212987D01*
X112313Y211990D01*
X112233Y210994D01*
X112161Y209996D01*
X112097Y208998D01*
X112042Y207999D01*
X111996Y207000D01*
X111958Y206001D01*
X111928Y205001D01*
X111907Y204001D01*
X111894Y203001D01*
X111890Y202001D01*
X111894Y201001D01*
X111907Y200001D01*
X111928Y199001D01*
X111958Y198001D01*
X111996Y197002D01*
X112042Y196003D01*
X112097Y195004D01*
X112161Y194006D01*
X112232Y193009D01*
X112313Y192012D01*
X112402Y191016D01*
X112499Y190020D01*
X112604Y189026D01*
X112719Y188032D01*
X112841Y187039D01*
X112972Y186048D01*
X113111Y185057D01*
X113259Y184068D01*
X113415Y183080D01*
X113579Y182094D01*
X113752Y181109D01*
X113933Y180125D01*
X114122Y179143D01*
X114320Y178163D01*
X114526Y177184D01*
X114741Y176207D01*
X114963Y175232D01*
X115194Y174259D01*
X115433Y173288D01*
X115680Y172319D01*
X115936Y171352D01*
X116199Y170387D01*
X116471Y169424D01*
X116751Y168464D01*
X117039Y167507D01*
X117335Y166551D01*
X117639Y165599D01*
X117951Y164648D01*
X118272Y163701D01*
X118600Y162756D01*
X118936Y161814D01*
X119281Y160875D01*
X119633Y159939D01*
X119993Y159006D01*
X120361Y158076D01*
X120737Y157150D01*
X121120Y156226D01*
X121512Y155306D01*
X121911Y154389D01*
X122318Y153475D01*
X122733Y152565D01*
X123155Y151658D01*
X123586Y150756D01*
X124023Y149856D01*
X124469Y148961D01*
X124922Y148069D01*
X125382Y147181D01*
X125850Y146297D01*
X126325Y145417D01*
X126808Y144542D01*
X127298Y143670D01*
X127796Y142802D01*
X128301Y141939D01*
X128813Y141080D01*
X129333Y140225D01*
X129859Y139375D01*
X130393Y138529D01*
X130934Y137688D01*
X131482Y136852D01*
X132038Y136020D01*
X132600Y135193D01*
X133169Y134370D01*
X133745Y133553D01*
X134328Y132740D01*
X134918Y131932D01*
X135515Y131130D01*
X136118Y130332D01*
X136729Y129540D01*
X137345Y128753D01*
X137969Y127971D01*
X138599Y127194D01*
X139236Y126423D01*
X139879Y125657D01*
X140529Y124897D01*
X141185Y124142D01*
X141847Y123393D01*
X142516Y122649D01*
X143191Y121911D01*
X143872Y121179D01*
X144560Y120452D01*
X145253Y119732D01*
X145953Y119017D01*
X146659Y118308D01*
X147370Y117606D01*
X148088Y116909D01*
X148811Y116219D01*
X149541Y115534D01*
X150276Y114856D01*
X151017Y114184D01*
X151763Y113518D01*
X152515Y112859D01*
X153273Y112206D01*
X154036Y111560D01*
X154804Y110920D01*
X155578Y110286D01*
X156358Y109659D01*
X157142Y109039D01*
X157932Y108425D01*
X158727Y107818D01*
X159527Y107218D01*
X160332Y106625D01*
X161142Y106038D01*
X161957Y105459D01*
X162777Y104886D01*
X163602Y104320D01*
X164431Y103762D01*
X165265Y103210D01*
X166104Y102665D01*
X166948Y102128D01*
X167796Y101598D01*
X168648Y101075D01*
X169505Y100559D01*
X170366Y100050D01*
X171231Y99549D01*
X172101Y99055D01*
X172975Y98568D01*
X173853Y98089D01*
X174735Y97617D01*
X175620Y97153D01*
X176510Y96696D01*
X177404Y96247D01*
X178301Y95806D01*
X179202Y95372D01*
X180107Y94945D01*
X181015Y94527D01*
X181927Y94116D01*
X182842Y93713D01*
X183761Y93317D01*
X184683Y92929D01*
X185608Y92550D01*
X186537Y92178D01*
X187468Y91813D01*
X188402Y91457D01*
X189340Y91109D01*
X190280Y90769D01*
X191224Y90436D01*
X192170Y90112D01*
X193119Y89796D01*
X194070Y89487D01*
X195024Y89187D01*
X195981Y88895D01*
X196940Y88611D01*
X197901Y88335D01*
X198865Y88068D01*
X199830Y87808D01*
X200798Y87557D01*
X201769Y87313D01*
X202741Y87078D01*
X203715Y86852D01*
X204691Y86633D01*
X205669Y86423D01*
X206648Y86221D01*
X207629Y86028D01*
X208612Y85842D01*
X209596Y85666D01*
X210582Y85497D01*
X211569Y85337D01*
X212558Y85185D01*
X213548Y85041D01*
X214539Y84906D01*
X215531Y84779D01*
X216524Y84661D01*
X217518Y84551D01*
X218513Y84450D01*
X219509Y84357D01*
X220505Y84272D01*
X221503Y84196D01*
X222500Y84128D01*
X223499Y84069D01*
X224498Y84018D01*
X225497Y83976D01*
X226496Y83942D01*
X227496Y83916D01*
X228496Y83899D01*
X229496Y83891D01*
X230496Y83891D01*
X231497Y83899D01*
X232497Y83916D01*
X233496Y83942D01*
X234496Y83975D01*
X235495Y84018D01*
X236494Y84068D01*
X237492Y84128D01*
X238490Y84195D01*
X239487Y84271D01*
X240484Y84356D01*
X241480Y84449D01*
X242475Y84550D01*
X243469Y84660D01*
X244462Y84778D01*
X245454Y84905D01*
X246445Y85040D01*
X247435Y85184D01*
X248423Y85335D01*
X249411Y85496D01*
X250396Y85664D01*
X251381Y85841D01*
X252363Y86026D01*
X253345Y86220D01*
X254324Y86422D01*
X255302Y86632D01*
X256278Y86850D01*
X257252Y87077D01*
X258224Y87312D01*
X259194Y87555D01*
X260162Y87806D01*
X261128Y88066D01*
X262092Y88333D01*
X263053Y88609D01*
X264012Y88893D01*
X264969Y89185D01*
X265923Y89485D01*
X266874Y89793D01*
X267823Y90110D01*
X268769Y90434D01*
X269713Y90766D01*
X270653Y91107D01*
X271591Y91455D01*
X272525Y91811D01*
X273457Y92175D01*
X274385Y92547D01*
X275310Y92927D01*
X276232Y93314D01*
X277151Y93710D01*
X278066Y94113D01*
X278978Y94524D01*
X279886Y94942D01*
X280791Y95368D01*
X281692Y95802D01*
X282590Y96244D01*
X283483Y96693D01*
X284373Y97150D01*
X285259Y97614D01*
X286141Y98085D01*
X287019Y98565D01*
X287893Y99051D01*
X288762Y99545D01*
X289628Y100046D01*
X290489Y100555D01*
X291346Y101071D01*
X292198Y101594D01*
X293046Y102124D01*
X293890Y102661D01*
X294728Y103206D01*
X295563Y103758D01*
X296392Y104316D01*
X297217Y104882D01*
X298037Y105455D01*
X298852Y106034D01*
X299662Y106621D01*
X300467Y107214D01*
X301267Y107814D01*
X302062Y108421D01*
X302852Y109035D01*
X303637Y109655D01*
X304416Y110282D01*
X305190Y110915D01*
X305959Y111555D01*
X306722Y112201D01*
X307480Y112854D01*
X308231Y113514D01*
X308978Y114179D01*
X309719Y114851D01*
X310454Y115529D01*
X311183Y116214D01*
X311907Y116904D01*
X312624Y117601D01*
X313336Y118303D01*
X314042Y119012D01*
X314741Y119727D01*
X315435Y120447D01*
X316123Y121174D01*
X316804Y121906D01*
X317479Y122644D01*
X318148Y123387D01*
X318810Y124136D01*
X319466Y124891D01*
X320116Y125652D01*
X320760Y126417D01*
X321396Y127189D01*
X322026Y127965D01*
X322650Y128747D01*
X323267Y129534D01*
X323877Y130327D01*
X324481Y131124D01*
X325078Y131927D01*
X325668Y132734D01*
X326251Y133547D01*
X326827Y134364D01*
X327396Y135187D01*
X327958Y136014D01*
X328514Y136846D01*
X329062Y137682D01*
X329603Y138523D01*
X330137Y139369D01*
X330663Y140219D01*
X331183Y141074D01*
X331695Y141933D01*
X332200Y142796D01*
X332698Y143664D01*
X333188Y144535D01*
X333671Y145411D01*
X334147Y146291D01*
X334615Y147175D01*
X335075Y148063D01*
X335528Y148954D01*
X335974Y149850D01*
X336411Y150749D01*
X336841Y151652D01*
X337264Y152558D01*
X337679Y153468D01*
X338086Y154382D01*
X338485Y155299D01*
X338877Y156219D01*
X339261Y157143D01*
X339636Y158070D01*
X340004Y159000D01*
X340365Y159932D01*
X340717Y160869D01*
X341061Y161808D01*
X341398Y162749D01*
X341726Y163694D01*
X342046Y164641D01*
X342359Y165592D01*
X342663Y166544D01*
X342959Y167500D01*
X343247Y168457D01*
X343527Y169418D01*
X343799Y170380D01*
X344063Y171345D01*
X344318Y172312D01*
X344565Y173281D01*
X344805Y174252D01*
X345035Y175225D01*
X345258Y176200D01*
X345472Y177177D01*
X345678Y178156D01*
X345876Y179136D01*
X346065Y180118D01*
X346247Y181102D01*
X346420Y182087D01*
X346584Y183073D01*
X346740Y184061D01*
X346888Y185050D01*
X347027Y186041D01*
X347158Y187032D01*
X347281Y188025D01*
X347395Y189018D01*
X347500Y190013D01*
X347598Y191008D01*
X347687Y192004D01*
X347767Y193001D01*
X347839Y193999D01*
X347902Y194997D01*
X347957Y195996D01*
X348004Y196995D01*
X348042Y197994D01*
X348072Y198994D01*
X348093Y199994D01*
X348106Y200994D01*
X348110Y201994D01*
Y202000D01*
X308740D02*
X308734Y202999D01*
X308715Y203999D01*
X308683Y204998D01*
X308639Y205996D01*
X308582Y206994D01*
X308512Y207991D01*
X308430Y208987D01*
X308334Y209982D01*
X308227Y210976D01*
X308107Y211968D01*
X307974Y212959D01*
X307828Y213947D01*
X307671Y214934D01*
X307500Y215919D01*
X307317Y216902D01*
X307122Y217882D01*
X306914Y218860D01*
X306694Y219834D01*
X306461Y220806D01*
X306216Y221775D01*
X305959Y222741D01*
X305690Y223704D01*
X305408Y224663D01*
X305115Y225618D01*
X304809Y226570D01*
X304491Y227517D01*
X304161Y228461D01*
X303819Y229400D01*
X303465Y230334D01*
X303100Y231265D01*
X302723Y232190D01*
X302333Y233111D01*
X301933Y234027D01*
X301520Y234937D01*
X301097Y235842D01*
X300661Y236742D01*
X300215Y237636D01*
X299757Y238524D01*
X299287Y239407D01*
X298807Y240283D01*
X298316Y241154D01*
X297813Y242018D01*
X297300Y242875D01*
X296776Y243726D01*
X296240Y244570D01*
X295695Y245408D01*
X295139Y246238D01*
X294572Y247061D01*
X293995Y247877D01*
X293407Y248686D01*
X292809Y249487D01*
X292202Y250280D01*
X291584Y251066D01*
X290956Y251844D01*
X290318Y252613D01*
X289671Y253375D01*
X289014Y254128D01*
X288348Y254873D01*
X287672Y255609D01*
X286987Y256337D01*
X286293Y257056D01*
X285589Y257766D01*
X284877Y258467D01*
X284156Y259159D01*
X283426Y259842D01*
X282687Y260515D01*
X281941Y261179D01*
X281185Y261834D01*
X280422Y262479D01*
X279650Y263114D01*
X278870Y263739D01*
X278082Y264354D01*
X277287Y264960D01*
X276484Y265555D01*
X275674Y266140D01*
X274856Y266714D01*
X274031Y267279D01*
X273199Y267832D01*
X272360Y268375D01*
X271514Y268907D01*
X270661Y269429D01*
X269802Y269940D01*
X268936Y270439D01*
X268065Y270928D01*
X267187Y271406D01*
X266303Y271872D01*
X265413Y272327D01*
X264517Y272771D01*
X263616Y273204D01*
X262710Y273624D01*
X261798Y274034D01*
X260881Y274432D01*
X259959Y274818D01*
X259033Y275192D01*
X258101Y275555D01*
X257165Y275906D01*
X256225Y276244D01*
X255281Y276571D01*
X254332Y276886D01*
X253380Y277189D01*
X252423Y277480D01*
X251464Y277758D01*
X250500Y278025D01*
X249534Y278279D01*
X248564Y278521D01*
X247591Y278750D01*
X246615Y278967D01*
X245637Y279172D01*
X244656Y279364D01*
X243673Y279544D01*
X242688Y279711D01*
X241700Y279866D01*
X240711Y280008D01*
X239720Y280138D01*
X238727Y280255D01*
X237734Y280360D01*
X236738Y280451D01*
X235742Y280531D01*
X234745Y280597D01*
X233747Y280651D01*
X232748Y280692D01*
X231749Y280721D01*
X230750Y280737D01*
X229750Y280740D01*
X228751Y280730D01*
X227752Y280708D01*
X226753Y280673D01*
X225754Y280626D01*
X224757Y280565D01*
X223760Y280492D01*
X222764Y280407D01*
X221769Y280309D01*
X220776Y280198D01*
X219784Y280075D01*
X218794Y279939D01*
X217806Y279790D01*
X216819Y279629D01*
X215835Y279456D01*
X214853Y279270D01*
X213874Y279071D01*
X212897Y278860D01*
X211922Y278637D01*
X210951Y278401D01*
X209983Y278153D01*
X209018Y277893D01*
X208056Y277621D01*
X207098Y277336D01*
X206144Y277039D01*
X205193Y276730D01*
X204247Y276410D01*
X203304Y276077D01*
X202366Y275732D01*
X201433Y275375D01*
X200503Y275007D01*
X199579Y274626D01*
X198660Y274234D01*
X197746Y273831D01*
X196836Y273416D01*
X195932Y272989D01*
X195034Y272551D01*
X194142Y272101D01*
X193255Y271640D01*
X192374Y271168D01*
X191499Y270685D01*
X190630Y270191D01*
X189768Y269686D01*
X188912Y269170D01*
X188063Y268643D01*
X187220Y268105D01*
X186384Y267557D01*
X185556Y266998D01*
X184734Y266428D01*
X183920Y265849D01*
X183114Y265259D01*
X182314Y264658D01*
X181523Y264048D01*
X180739Y263428D01*
X179963Y262798D01*
X179196Y262158D01*
X178436Y261508D01*
X177685Y260849D01*
X176942Y260180D01*
X176208Y259502D01*
X175482Y258814D01*
X174766Y258118D01*
X174058Y257412D01*
X173359Y256698D01*
X172669Y255974D01*
X171989Y255242D01*
X171318Y254502D01*
X170656Y253752D01*
X170004Y252995D01*
X169361Y252229D01*
X168729Y251456D01*
X168106Y250674D01*
X167493Y249884D01*
X166890Y249087D01*
X166298Y248282D01*
X165716Y247470D01*
X165144Y246650D01*
X164582Y245824D01*
X164031Y244990D01*
X163491Y244149D01*
X162961Y243301D01*
X162442Y242447D01*
X161934Y241586D01*
X161437Y240719D01*
X160951Y239846D01*
X160477Y238966D01*
X160013Y238081D01*
X159561Y237189D01*
X159120Y236293D01*
X158690Y235390D01*
X158272Y234482D01*
X157865Y233569D01*
X157471Y232651D01*
X157087Y231728D01*
X156716Y230800D01*
X156356Y229868D01*
X156008Y228930D01*
X155673Y227989D01*
X155349Y227044D01*
X155037Y226094D01*
X154737Y225141D01*
X154449Y224183D01*
X154174Y223223D01*
X153911Y222258D01*
X153659Y221291D01*
X153421Y220320D01*
X153194Y219347D01*
X152980Y218371D01*
X152779Y217392D01*
X152590Y216410D01*
X152413Y215426D01*
X152249Y214441D01*
X152097Y213453D01*
X151958Y212463D01*
X151832Y211472D01*
X151718Y210479D01*
X151616Y209484D01*
X151528Y208489D01*
X151452Y207492D01*
X151388Y206495D01*
X151338Y205497D01*
X151300Y204498D01*
X151274Y203499D01*
X151261Y202499D01*
X151261Y201500D01*
X151274Y200500D01*
X151300Y199501D01*
X151338Y198502D01*
X151388Y197504D01*
X151452Y196507D01*
X151528Y195510D01*
X151616Y194515D01*
X151718Y193520D01*
X151832Y192527D01*
X151958Y191536D01*
X152097Y190546D01*
X152249Y189558D01*
X152413Y188572D01*
X152590Y187589D01*
X152779Y186607D01*
X152981Y185628D01*
X153195Y184652D01*
X153421Y183678D01*
X153660Y182708D01*
X153911Y181740D01*
X154174Y180776D01*
X154450Y179816D01*
X154737Y178858D01*
X155037Y177905D01*
X155349Y176955D01*
X155673Y176010D01*
X156009Y175068D01*
X156357Y174132D01*
X156716Y173199D01*
X157088Y172271D01*
X157471Y171348D01*
X157866Y170430D01*
X158272Y169517D01*
X158690Y168609D01*
X159120Y167707D01*
X159561Y166810D01*
X160013Y165918D01*
X160477Y165033D01*
X160952Y164153D01*
X161438Y163280D01*
X161935Y162413D01*
X162443Y161552D01*
X162962Y160698D01*
X163491Y159850D01*
X164032Y159010D01*
X164583Y158176D01*
X165144Y157349D01*
X165716Y156529D01*
X166298Y155717D01*
X166891Y154912D01*
X167494Y154115D01*
X168107Y153325D01*
X168729Y152544D01*
X169362Y151770D01*
X170005Y151004D01*
X170657Y150247D01*
X171318Y149498D01*
X171990Y148757D01*
X172670Y148025D01*
X173360Y147302D01*
X174059Y146587D01*
X174767Y145881D01*
X175483Y145185D01*
X176209Y144498D01*
X176943Y143819D01*
X177686Y143151D01*
X178437Y142491D01*
X179197Y141842D01*
X179964Y141202D01*
X180740Y140571D01*
X181524Y139951D01*
X182315Y139341D01*
X183114Y138741D01*
X183921Y138151D01*
X184735Y137571D01*
X185557Y137002D01*
X186385Y136443D01*
X187221Y135894D01*
X188064Y135357D01*
X188913Y134830D01*
X189769Y134314D01*
X190631Y133808D01*
X191500Y133314D01*
X192375Y132831D01*
X193256Y132359D01*
X194143Y131898D01*
X195035Y131449D01*
X195934Y131011D01*
X196837Y130584D01*
X197747Y130169D01*
X198661Y129765D01*
X199580Y129373D01*
X200505Y128993D01*
X201434Y128624D01*
X202367Y128268D01*
X203306Y127923D01*
X204248Y127590D01*
X205195Y127269D01*
X206145Y126960D01*
X207100Y126663D01*
X208058Y126379D01*
X209019Y126107D01*
X209984Y125846D01*
X210952Y125598D01*
X211924Y125363D01*
X212898Y125139D01*
X213875Y124929D01*
X214855Y124730D01*
X215837Y124544D01*
X216821Y124371D01*
X217807Y124210D01*
X218795Y124061D01*
X219786Y123925D01*
X220778Y123802D01*
X221771Y123691D01*
X222765Y123593D01*
X223761Y123507D01*
X224758Y123434D01*
X225756Y123374D01*
X226754Y123327D01*
X227753Y123292D01*
X228752Y123270D01*
X229751Y123260D01*
X230751Y123263D01*
X231750Y123279D01*
X232749Y123308D01*
X233748Y123349D01*
X234746Y123403D01*
X235743Y123470D01*
X236739Y123549D01*
X237735Y123641D01*
X238729Y123745D01*
X239721Y123862D01*
X240712Y123992D01*
X241702Y124134D01*
X242689Y124289D01*
X243674Y124456D01*
X244657Y124636D01*
X245638Y124828D01*
X246616Y125033D01*
X247592Y125250D01*
X248565Y125480D01*
X249535Y125722D01*
X250501Y125976D01*
X251464Y126242D01*
X252424Y126520D01*
X253380Y126811D01*
X254333Y127114D01*
X255282Y127429D01*
X256226Y127756D01*
X257166Y128095D01*
X258102Y128445D01*
X259033Y128808D01*
X259960Y129182D01*
X260882Y129569D01*
X261799Y129966D01*
X262711Y130376D01*
X263617Y130797D01*
X264518Y131229D01*
X265414Y131673D01*
X266303Y132128D01*
X267187Y132595D01*
X268065Y133072D01*
X268937Y133561D01*
X269803Y134061D01*
X270662Y134571D01*
X271515Y135093D01*
X272360Y135625D01*
X273199Y136168D01*
X274032Y136722D01*
X274857Y137286D01*
X275674Y137861D01*
X276485Y138445D01*
X277288Y139041D01*
X278083Y139646D01*
X278871Y140261D01*
X279650Y140886D01*
X280422Y141522D01*
X281186Y142166D01*
X281941Y142821D01*
X282688Y143485D01*
X283426Y144158D01*
X284156Y144841D01*
X284877Y145533D01*
X285590Y146234D01*
X286293Y146944D01*
X286987Y147663D01*
X287672Y148391D01*
X288348Y149127D01*
X289015Y149872D01*
X289671Y150626D01*
X290319Y151387D01*
X290956Y152157D01*
X291584Y152935D01*
X292202Y153720D01*
X292810Y154514D01*
X293407Y155315D01*
X293995Y156123D01*
X294572Y156939D01*
X295139Y157763D01*
X295695Y158593D01*
X296241Y159430D01*
X296776Y160274D01*
X297300Y161125D01*
X297813Y161983D01*
X298316Y162847D01*
X298807Y163717D01*
X299288Y164594D01*
X299757Y165476D01*
X300215Y166364D01*
X300661Y167258D01*
X301097Y168158D01*
X301520Y169063D01*
X301933Y169974D01*
X302333Y170889D01*
X302723Y171810D01*
X303100Y172735D01*
X303466Y173666D01*
X303819Y174600D01*
X304161Y175540D01*
X304491Y176483D01*
X304809Y177431D01*
X305115Y178382D01*
X305408Y179337D01*
X305690Y180296D01*
X305959Y181259D01*
X306217Y182225D01*
X306461Y183194D01*
X306694Y184166D01*
X306914Y185141D01*
X307122Y186118D01*
X307317Y187098D01*
X307500Y188081D01*
X307671Y189066D01*
X307828Y190053D01*
X307974Y191042D01*
X308107Y192032D01*
X308227Y193024D01*
X308334Y194018D01*
X308430Y195013D01*
X308512Y196009D01*
X308582Y197006D01*
X308639Y198004D01*
X308683Y199002D01*
X308715Y200001D01*
X308734Y201000D01*
X308740Y202000D01*
M02*
