G04*
G04 #@! TF.GenerationSoftware,Altium Limited,Altium Designer,19.0.10 (269)*
G04*
G04 Layer_Color=32768*
%FSLAX25Y25*%
%MOIN*%
G70*
G01*
G75*
%ADD12C,0.01000*%
%ADD47C,0.00197*%
D12*
X230000Y202000D02*
X314000Y286000D01*
X146000Y118000D02*
X230000Y202000D01*
X146000Y285500D02*
X229500Y202000D01*
X230000D01*
X228500D02*
X230000D01*
X219000D02*
X230000D01*
X313500Y118500D01*
X230000Y202000D02*
X232000D01*
X230000D02*
X245500D01*
X230000Y83500D02*
Y202000D01*
X229750D02*
Y320250D01*
X111500Y202000D02*
X348000D01*
D47*
X131854Y179279D02*
X145161D01*
Y171721D02*
Y179279D01*
X131854Y171721D02*
X145161D01*
X131854D02*
Y179279D01*
X140142Y195504D02*
Y208496D01*
X122858D02*
X140142D01*
X122858Y195504D02*
Y208496D01*
Y195504D02*
X140142D01*
X161517Y260296D02*
X170704Y269483D01*
X158483Y281704D02*
X170704Y269483D01*
X149296Y272517D02*
X158483Y281704D01*
X149296Y272517D02*
X161517Y260296D01*
X147968Y257877D02*
X157377Y248468D01*
X152032Y243123D02*
X157377Y248468D01*
X142623Y252532D02*
X152032Y243123D01*
X142623Y252532D02*
X147968Y257877D01*
X223004Y291858D02*
X235996D01*
Y309142D01*
X223004D02*
X235996D01*
X223004Y291858D02*
Y309142D01*
X206279Y286846D02*
Y300153D01*
X198721Y286846D02*
X206279D01*
X198721D02*
Y300153D01*
X206279D01*
X273468Y277123D02*
X282877Y286532D01*
X268123Y282468D02*
X273468Y277123D01*
X268123Y282468D02*
X277532Y291877D01*
X282877Y286532D01*
X288296Y269983D02*
X297483Y260796D01*
X309704Y273017D01*
X300517Y282204D02*
X309704Y273017D01*
X288296Y269983D02*
X300517Y282204D01*
X314846Y223220D02*
X328153D01*
X314846D02*
Y230780D01*
X328153D01*
Y223220D02*
Y230780D01*
X319783Y195504D02*
Y208496D01*
Y195504D02*
X337067D01*
Y208496D01*
X319783D02*
X337067D01*
X303123Y156532D02*
X312532Y147123D01*
X303123Y156532D02*
X308468Y161877D01*
X317877Y152468D01*
X312532Y147123D02*
X317877Y152468D01*
X288796Y134017D02*
X297983Y143204D01*
X288796Y134017D02*
X301017Y121796D01*
X310204Y130983D01*
X297983Y143204D02*
X310204Y130983D01*
X250721Y103847D02*
Y117154D01*
X258279D01*
Y103847D02*
Y117154D01*
X250721Y103847D02*
X258279D01*
X223504Y112142D02*
X236496D01*
X223504Y94858D02*
Y112142D01*
Y94858D02*
X236496D01*
Y112142D01*
X176623Y118468D02*
X186032Y127877D01*
X191377Y122532D01*
X181968Y113123D02*
X191377Y122532D01*
X176623Y118468D02*
X181968Y113123D01*
X162017Y143204D02*
X171204Y134017D01*
X149796Y130983D02*
X162017Y143204D01*
X149796Y130983D02*
X158983Y121796D01*
X171204Y134017D01*
M02*
