G04*
G04 #@! TF.GenerationSoftware,Altium Limited,Altium Designer,19.0.10 (269)*
G04*
G04 Layer_Color=8388736*
%FSLAX25Y25*%
%MOIN*%
G70*
G01*
G75*
G04:AMPARAMS|DCode=13|XSize=47.37mil|YSize=63.91mil|CornerRadius=8.92mil|HoleSize=0mil|Usage=FLASHONLY|Rotation=0.000|XOffset=0mil|YOffset=0mil|HoleType=Round|Shape=RoundedRectangle|*
%AMROUNDEDRECTD13*
21,1,0.04737,0.04606,0,0,0.0*
21,1,0.02953,0.06391,0,0,0.0*
1,1,0.01784,0.01476,-0.02303*
1,1,0.01784,-0.01476,-0.02303*
1,1,0.01784,-0.01476,0.02303*
1,1,0.01784,0.01476,0.02303*
%
%ADD13ROUNDEDRECTD13*%
%ADD14R,0.09461X0.07887*%
%ADD15R,0.05131X0.07887*%
G04:AMPARAMS|DCode=16|XSize=94.61mil|YSize=78.87mil|CornerRadius=0mil|HoleSize=0mil|Usage=FLASHONLY|Rotation=135.000|XOffset=0mil|YOffset=0mil|HoleType=Round|Shape=Rectangle|*
%AMROTATEDRECTD16*
4,1,4,0.06134,-0.00557,0.00557,-0.06134,-0.06134,0.00557,-0.00557,0.06134,0.06134,-0.00557,0.0*
%
%ADD16ROTATEDRECTD16*%

G04:AMPARAMS|DCode=17|XSize=51.31mil|YSize=78.87mil|CornerRadius=0mil|HoleSize=0mil|Usage=FLASHONLY|Rotation=135.000|XOffset=0mil|YOffset=0mil|HoleType=Round|Shape=Rectangle|*
%AMROTATEDRECTD17*
4,1,4,0.04602,0.00974,-0.00974,-0.04602,-0.04602,-0.00974,0.00974,0.04602,0.04602,0.00974,0.0*
%
%ADD17ROTATEDRECTD17*%

G04:AMPARAMS|DCode=18|XSize=47.37mil|YSize=63.91mil|CornerRadius=8.92mil|HoleSize=0mil|Usage=FLASHONLY|Rotation=315.000|XOffset=0mil|YOffset=0mil|HoleType=Round|Shape=RoundedRectangle|*
%AMROUNDEDRECTD18*
21,1,0.04737,0.04606,0,0,315.0*
21,1,0.02953,0.06391,0,0,315.0*
1,1,0.01784,-0.00585,-0.02673*
1,1,0.01784,-0.02673,-0.00585*
1,1,0.01784,0.00585,0.02673*
1,1,0.01784,0.02673,0.00585*
%
%ADD18ROUNDEDRECTD18*%
%ADD19R,0.07887X0.09461*%
%ADD20R,0.07887X0.05131*%
G04:AMPARAMS|DCode=21|XSize=47.37mil|YSize=63.91mil|CornerRadius=8.92mil|HoleSize=0mil|Usage=FLASHONLY|Rotation=270.000|XOffset=0mil|YOffset=0mil|HoleType=Round|Shape=RoundedRectangle|*
%AMROUNDEDRECTD21*
21,1,0.04737,0.04606,0,0,270.0*
21,1,0.02953,0.06391,0,0,270.0*
1,1,0.01784,-0.02303,-0.01476*
1,1,0.01784,-0.02303,0.01476*
1,1,0.01784,0.02303,0.01476*
1,1,0.01784,0.02303,-0.01476*
%
%ADD21ROUNDEDRECTD21*%
G04:AMPARAMS|DCode=22|XSize=47.37mil|YSize=63.91mil|CornerRadius=8.92mil|HoleSize=0mil|Usage=FLASHONLY|Rotation=225.000|XOffset=0mil|YOffset=0mil|HoleType=Round|Shape=RoundedRectangle|*
%AMROUNDEDRECTD22*
21,1,0.04737,0.04606,0,0,225.0*
21,1,0.02953,0.06391,0,0,225.0*
1,1,0.01784,-0.02673,0.00585*
1,1,0.01784,-0.00585,0.02673*
1,1,0.01784,0.02673,-0.00585*
1,1,0.01784,0.00585,-0.02673*
%
%ADD22ROUNDEDRECTD22*%
G04:AMPARAMS|DCode=23|XSize=94.61mil|YSize=78.87mil|CornerRadius=0mil|HoleSize=0mil|Usage=FLASHONLY|Rotation=45.000|XOffset=0mil|YOffset=0mil|HoleType=Round|Shape=Rectangle|*
%AMROTATEDRECTD23*
4,1,4,-0.00557,-0.06134,-0.06134,-0.00557,0.00557,0.06134,0.06134,0.00557,-0.00557,-0.06134,0.0*
%
%ADD23ROTATEDRECTD23*%

G04:AMPARAMS|DCode=24|XSize=51.31mil|YSize=78.87mil|CornerRadius=0mil|HoleSize=0mil|Usage=FLASHONLY|Rotation=45.000|XOffset=0mil|YOffset=0mil|HoleType=Round|Shape=Rectangle|*
%AMROTATEDRECTD24*
4,1,4,0.00974,-0.04602,-0.04602,0.00974,-0.00974,0.04602,0.04602,-0.00974,0.00974,-0.04602,0.0*
%
%ADD24ROTATEDRECTD24*%

%ADD25C,0.14580*%
%ADD26R,0.06706X0.06706*%
%ADD27C,0.06706*%
%ADD28C,0.04300*%
D13*
X134827Y175500D02*
D03*
X142189D02*
D03*
X325181Y227000D02*
D03*
X317819D02*
D03*
D14*
X134827Y202000D02*
D03*
X325098D02*
D03*
D15*
X126008D02*
D03*
X333917D02*
D03*
D16*
X162352Y268648D02*
D03*
X297148Y134852D02*
D03*
D17*
X156116Y274884D02*
D03*
X303383Y128616D02*
D03*
D18*
X147397Y253103D02*
D03*
X152603Y247897D02*
D03*
X313103Y151897D02*
D03*
X307897Y157103D02*
D03*
D19*
X229500Y297173D02*
D03*
X230000Y106827D02*
D03*
D20*
X229500Y305992D02*
D03*
X230000Y98008D02*
D03*
D21*
X202500Y297181D02*
D03*
Y289819D02*
D03*
X254500Y106819D02*
D03*
Y114181D02*
D03*
D22*
X278103Y287103D02*
D03*
X272897Y281897D02*
D03*
X181397Y117897D02*
D03*
X186603Y123103D02*
D03*
D23*
X296648Y269148D02*
D03*
X162852Y134852D02*
D03*
D24*
X302884Y275383D02*
D03*
X156616Y128616D02*
D03*
D25*
X139000Y239500D02*
D03*
X321500Y165500D02*
D03*
D26*
X209000Y108500D02*
D03*
D27*
X199000D02*
D03*
D28*
X230000Y202000D02*
D03*
M02*
