G04*
G04 #@! TF.GenerationSoftware,Altium Limited,Altium Designer,19.0.10 (269)*
G04*
G04 Layer_Physical_Order=1*
G04 Layer_Color=255*
%FSLAX25Y25*%
%MOIN*%
G70*
G01*
G75*
G04:AMPARAMS|DCode=29|XSize=39.37mil|YSize=55.91mil|CornerRadius=4.92mil|HoleSize=0mil|Usage=FLASHONLY|Rotation=0.000|XOffset=0mil|YOffset=0mil|HoleType=Round|Shape=RoundedRectangle|*
%AMROUNDEDRECTD29*
21,1,0.03937,0.04606,0,0,0.0*
21,1,0.02953,0.05591,0,0,0.0*
1,1,0.00984,0.01476,-0.02303*
1,1,0.00984,-0.01476,-0.02303*
1,1,0.00984,-0.01476,0.02303*
1,1,0.00984,0.01476,0.02303*
%
%ADD29ROUNDEDRECTD29*%
%ADD30R,0.08661X0.07087*%
%ADD31R,0.04331X0.07087*%
G04:AMPARAMS|DCode=32|XSize=86.61mil|YSize=70.87mil|CornerRadius=0mil|HoleSize=0mil|Usage=FLASHONLY|Rotation=135.000|XOffset=0mil|YOffset=0mil|HoleType=Round|Shape=Rectangle|*
%AMROTATEDRECTD32*
4,1,4,0.05568,-0.00557,0.00557,-0.05568,-0.05568,0.00557,-0.00557,0.05568,0.05568,-0.00557,0.0*
%
%ADD32ROTATEDRECTD32*%

G04:AMPARAMS|DCode=33|XSize=43.31mil|YSize=70.87mil|CornerRadius=0mil|HoleSize=0mil|Usage=FLASHONLY|Rotation=135.000|XOffset=0mil|YOffset=0mil|HoleType=Round|Shape=Rectangle|*
%AMROTATEDRECTD33*
4,1,4,0.04037,0.00974,-0.00974,-0.04037,-0.04037,-0.00974,0.00974,0.04037,0.04037,0.00974,0.0*
%
%ADD33ROTATEDRECTD33*%

G04:AMPARAMS|DCode=34|XSize=39.37mil|YSize=55.91mil|CornerRadius=4.92mil|HoleSize=0mil|Usage=FLASHONLY|Rotation=315.000|XOffset=0mil|YOffset=0mil|HoleType=Round|Shape=RoundedRectangle|*
%AMROUNDEDRECTD34*
21,1,0.03937,0.04606,0,0,315.0*
21,1,0.02953,0.05591,0,0,315.0*
1,1,0.00984,-0.00585,-0.02673*
1,1,0.00984,-0.02673,-0.00585*
1,1,0.00984,0.00585,0.02673*
1,1,0.00984,0.02673,0.00585*
%
%ADD34ROUNDEDRECTD34*%
%ADD35R,0.07087X0.08661*%
%ADD36R,0.07087X0.04331*%
G04:AMPARAMS|DCode=37|XSize=39.37mil|YSize=55.91mil|CornerRadius=4.92mil|HoleSize=0mil|Usage=FLASHONLY|Rotation=270.000|XOffset=0mil|YOffset=0mil|HoleType=Round|Shape=RoundedRectangle|*
%AMROUNDEDRECTD37*
21,1,0.03937,0.04606,0,0,270.0*
21,1,0.02953,0.05591,0,0,270.0*
1,1,0.00984,-0.02303,-0.01476*
1,1,0.00984,-0.02303,0.01476*
1,1,0.00984,0.02303,0.01476*
1,1,0.00984,0.02303,-0.01476*
%
%ADD37ROUNDEDRECTD37*%
G04:AMPARAMS|DCode=38|XSize=39.37mil|YSize=55.91mil|CornerRadius=4.92mil|HoleSize=0mil|Usage=FLASHONLY|Rotation=225.000|XOffset=0mil|YOffset=0mil|HoleType=Round|Shape=RoundedRectangle|*
%AMROUNDEDRECTD38*
21,1,0.03937,0.04606,0,0,225.0*
21,1,0.02953,0.05591,0,0,225.0*
1,1,0.00984,-0.02673,0.00585*
1,1,0.00984,-0.00585,0.02673*
1,1,0.00984,0.02673,-0.00585*
1,1,0.00984,0.00585,-0.02673*
%
%ADD38ROUNDEDRECTD38*%
G04:AMPARAMS|DCode=39|XSize=86.61mil|YSize=70.87mil|CornerRadius=0mil|HoleSize=0mil|Usage=FLASHONLY|Rotation=45.000|XOffset=0mil|YOffset=0mil|HoleType=Round|Shape=Rectangle|*
%AMROTATEDRECTD39*
4,1,4,-0.00557,-0.05568,-0.05568,-0.00557,0.00557,0.05568,0.05568,0.00557,-0.00557,-0.05568,0.0*
%
%ADD39ROTATEDRECTD39*%

G04:AMPARAMS|DCode=40|XSize=43.31mil|YSize=70.87mil|CornerRadius=0mil|HoleSize=0mil|Usage=FLASHONLY|Rotation=45.000|XOffset=0mil|YOffset=0mil|HoleType=Round|Shape=Rectangle|*
%AMROTATEDRECTD40*
4,1,4,0.00974,-0.04037,-0.04037,0.00974,-0.00974,0.04037,0.04037,-0.00974,0.00974,-0.04037,0.0*
%
%ADD40ROTATEDRECTD40*%

%ADD41C,0.03937*%
%ADD42C,0.07874*%
%ADD43C,0.13780*%
%ADD44R,0.05906X0.05906*%
%ADD45C,0.05906*%
%ADD46C,0.03500*%
G36*
X271583Y286417D02*
X271483Y285810D01*
X271237Y285645D01*
X270546Y284955D01*
X273251Y282251D01*
X275955Y279546D01*
X276645Y280237D01*
X276810Y280483D01*
X277417Y280583D01*
X320000Y238000D01*
Y231182D01*
X319500Y230784D01*
X319295Y230824D01*
X318319D01*
Y227000D01*
Y223176D01*
X319295D01*
X319500Y223216D01*
X320000Y222818D01*
Y206543D01*
X319768D01*
Y197457D01*
X320000D01*
Y173280D01*
X319953Y173276D01*
X318466Y172825D01*
X317095Y172092D01*
X315894Y171106D01*
X314908Y169904D01*
X314176Y168534D01*
X313724Y167047D01*
X313572Y165500D01*
X313724Y163953D01*
X314176Y162466D01*
X314908Y161095D01*
X314993Y160993D01*
X312417Y158417D01*
X311810Y158517D01*
X311645Y158763D01*
X310955Y159454D01*
X308251Y156749D01*
X305546Y154045D01*
X306237Y153355D01*
X306483Y153190D01*
X306583Y152583D01*
X266000Y112000D01*
X258682D01*
X258284Y112500D01*
X258325Y112705D01*
Y113681D01*
X254500D01*
X250676D01*
Y112705D01*
X250716Y112500D01*
X250318Y112000D01*
X234543D01*
Y112157D01*
X225457D01*
Y112000D01*
X213980D01*
Y117897D01*
X213810Y119186D01*
X213313Y120387D01*
X212521Y121418D01*
X211490Y122210D01*
X210289Y122707D01*
X209000Y122877D01*
X207711Y122707D01*
X206510Y122210D01*
X205479Y121418D01*
X204688Y120387D01*
X204190Y119186D01*
X204020Y117897D01*
Y112000D01*
X200879D01*
X200032Y112351D01*
X199000Y112487D01*
X197968Y112351D01*
X197121Y112000D01*
X194500D01*
X187917Y118583D01*
X188017Y119190D01*
X188263Y119355D01*
X188954Y120045D01*
X186249Y122749D01*
X183545Y125454D01*
X182855Y124763D01*
X182690Y124517D01*
X182083Y124417D01*
X140000Y166500D01*
Y171323D01*
X140500Y171718D01*
X140713Y171676D01*
X141689D01*
Y175500D01*
Y179324D01*
X140713D01*
X140500Y179282D01*
X140000Y179677D01*
Y197457D01*
X140157D01*
Y206543D01*
X140000D01*
Y231671D01*
X140547Y231724D01*
X142034Y232175D01*
X143404Y232908D01*
X144606Y233894D01*
X145592Y235096D01*
X146325Y236466D01*
X146776Y237953D01*
X146928Y239500D01*
X146776Y241047D01*
X146325Y242534D01*
X145592Y243904D01*
X145507Y244007D01*
X148083Y246583D01*
X148690Y246483D01*
X148855Y246237D01*
X149545Y245546D01*
X152249Y248251D01*
X154954Y250955D01*
X154263Y251645D01*
X154017Y251810D01*
X153917Y252417D01*
X193500Y292000D01*
X198318D01*
X198716Y291500D01*
X198676Y291295D01*
Y290319D01*
X202500D01*
X206325D01*
Y291295D01*
X206284Y291500D01*
X206682Y292000D01*
X224957D01*
Y291843D01*
X234043D01*
Y292000D01*
X266000D01*
X271583Y286417D01*
D02*
G37*
G36*
X301037Y279963D02*
X300025Y278950D01*
X303237Y275737D01*
X302530Y275030D01*
X299317Y278243D01*
X298287Y277213D01*
X271500Y304000D01*
X234043D01*
Y305492D01*
X229500D01*
Y306492D01*
X234043D01*
Y308000D01*
X273000D01*
X301037Y279963D01*
D02*
G37*
%LPC*%
G36*
X206325Y289319D02*
X203000D01*
Y286821D01*
X204803D01*
X205385Y286937D01*
X205879Y287267D01*
X206209Y287760D01*
X206325Y288342D01*
Y289319D01*
D02*
G37*
G36*
X202000D02*
X198676D01*
Y288342D01*
X198791Y287760D01*
X199121Y287267D01*
X199615Y286937D01*
X200197Y286821D01*
X202000D01*
Y289319D01*
D02*
G37*
G36*
X269839Y284248D02*
X269149Y283557D01*
X268819Y283064D01*
X268703Y282482D01*
X268819Y281899D01*
X269149Y281406D01*
X270424Y280131D01*
X272190Y281897D01*
X269839Y284248D01*
D02*
G37*
G36*
X272897Y281190D02*
X271131Y279424D01*
X272406Y278149D01*
X272900Y277819D01*
X273482Y277703D01*
X274064Y277819D01*
X274557Y278149D01*
X275248Y278839D01*
X272897Y281190D01*
D02*
G37*
G36*
X155661Y250248D02*
X153310Y247897D01*
X155076Y246131D01*
X156351Y247406D01*
X156681Y247900D01*
X156797Y248482D01*
X156681Y249064D01*
X156351Y249557D01*
X155661Y250248D01*
D02*
G37*
G36*
X152603Y247190D02*
X150252Y244839D01*
X150943Y244149D01*
X151436Y243819D01*
X152018Y243703D01*
X152601Y243819D01*
X153094Y244149D01*
X154369Y245424D01*
X152603Y247190D01*
D02*
G37*
G36*
X317319Y230824D02*
X316342D01*
X315760Y230709D01*
X315267Y230379D01*
X314937Y229885D01*
X314821Y229303D01*
Y227500D01*
X317319D01*
Y230824D01*
D02*
G37*
G36*
Y226500D02*
X314821D01*
Y224697D01*
X314937Y224115D01*
X315267Y223621D01*
X315760Y223291D01*
X316342Y223176D01*
X317319D01*
Y226500D01*
D02*
G37*
G36*
X143665Y179324D02*
X142689D01*
Y176000D01*
X145187D01*
Y177803D01*
X145071Y178385D01*
X144741Y178879D01*
X144248Y179209D01*
X143665Y179324D01*
D02*
G37*
G36*
X145187Y175000D02*
X142689D01*
Y171676D01*
X143665D01*
X144248Y171791D01*
X144741Y172121D01*
X145071Y172615D01*
X145187Y173197D01*
Y175000D01*
D02*
G37*
G36*
X308482Y161297D02*
X307899Y161181D01*
X307406Y160851D01*
X306131Y159576D01*
X307897Y157810D01*
X310248Y160161D01*
X309557Y160851D01*
X309064Y161181D01*
X308482Y161297D01*
D02*
G37*
G36*
X305424Y158869D02*
X304149Y157594D01*
X303819Y157100D01*
X303703Y156518D01*
X303819Y155936D01*
X304149Y155443D01*
X304839Y154752D01*
X307190Y157103D01*
X305424Y158869D01*
D02*
G37*
G36*
X186018Y127297D02*
X185436Y127181D01*
X184943Y126851D01*
X184252Y126161D01*
X186603Y123810D01*
X188369Y125576D01*
X187094Y126851D01*
X186600Y127181D01*
X186018Y127297D01*
D02*
G37*
G36*
X230000Y281783D02*
X224782Y281612D01*
X219586Y281100D01*
X214435Y280250D01*
X209351Y279064D01*
X204355Y277549D01*
X199468Y275710D01*
X194713Y273555D01*
X190109Y271094D01*
X185675Y268337D01*
X181431Y265296D01*
X177395Y261984D01*
X173585Y258415D01*
X170016Y254605D01*
X166704Y250569D01*
X163663Y246325D01*
X160906Y241891D01*
X158445Y237287D01*
X156290Y232532D01*
X154451Y227645D01*
X152936Y222649D01*
X151750Y217565D01*
X150900Y212414D01*
X150388Y207218D01*
X150217Y202000D01*
X150388Y196782D01*
X150900Y191586D01*
X151750Y186435D01*
X152936Y181351D01*
X154451Y176355D01*
X156290Y171468D01*
X158445Y166713D01*
X160906Y162109D01*
X163663Y157675D01*
X166704Y153431D01*
X170016Y149396D01*
X173585Y145585D01*
X177395Y142016D01*
X181431Y138704D01*
X185675Y135663D01*
X190109Y132906D01*
X194713Y130445D01*
X199468Y128290D01*
X204355Y126451D01*
X209351Y124936D01*
X214435Y123750D01*
X219586Y122900D01*
X224782Y122388D01*
X230000Y122217D01*
X235218Y122388D01*
X240414Y122900D01*
X245565Y123750D01*
X250649Y124936D01*
X255645Y126451D01*
X260532Y128290D01*
X265287Y130445D01*
X269891Y132906D01*
X274325Y135663D01*
X278569Y138704D01*
X282605Y142016D01*
X286415Y145585D01*
X289984Y149396D01*
X293296Y153431D01*
X296337Y157675D01*
X299094Y162109D01*
X301555Y166713D01*
X303710Y171468D01*
X305549Y176355D01*
X307064Y181351D01*
X308250Y186435D01*
X309100Y191586D01*
X309612Y196782D01*
X309783Y202000D01*
X309612Y207218D01*
X309100Y212414D01*
X308250Y217565D01*
X307064Y222649D01*
X305549Y227645D01*
X303710Y232532D01*
X301555Y237287D01*
X299094Y241891D01*
X296337Y246325D01*
X293296Y250569D01*
X289984Y254605D01*
X286415Y258415D01*
X282605Y261984D01*
X278569Y265296D01*
X274325Y268337D01*
X269891Y271094D01*
X265287Y273555D01*
X260532Y275710D01*
X255645Y277549D01*
X250649Y279064D01*
X245565Y280250D01*
X240414Y281100D01*
X235218Y281612D01*
X230000Y281783D01*
D02*
G37*
G36*
X189076Y124869D02*
X187310Y123103D01*
X189661Y120752D01*
X190351Y121443D01*
X190681Y121936D01*
X190797Y122518D01*
X190681Y123100D01*
X190351Y123594D01*
X189076Y124869D01*
D02*
G37*
G36*
X256803Y117179D02*
X255000D01*
Y114681D01*
X258325D01*
Y115657D01*
X258209Y116240D01*
X257879Y116733D01*
X257385Y117063D01*
X256803Y117179D01*
D02*
G37*
G36*
X254000D02*
X252197D01*
X251615Y117063D01*
X251121Y116733D01*
X250791Y116240D01*
X250676Y115657D01*
Y114681D01*
X254000D01*
Y117179D01*
D02*
G37*
%LPD*%
D29*
X134827Y175500D02*
D03*
X142189D02*
D03*
X325181Y227000D02*
D03*
X317819D02*
D03*
D30*
X134827Y202000D02*
D03*
X325098D02*
D03*
D31*
X126008D02*
D03*
X333917D02*
D03*
D32*
X162352Y268648D02*
D03*
X297148Y134852D02*
D03*
D33*
X156116Y274884D02*
D03*
X303383Y128616D02*
D03*
D34*
X147397Y253103D02*
D03*
X152603Y247897D02*
D03*
X313103Y151897D02*
D03*
X307897Y157103D02*
D03*
D35*
X229500Y297173D02*
D03*
X230000Y106827D02*
D03*
D36*
X229500Y305992D02*
D03*
X230000Y98008D02*
D03*
D37*
X202500Y297181D02*
D03*
Y289819D02*
D03*
X254500Y106819D02*
D03*
Y114181D02*
D03*
D38*
X278103Y287103D02*
D03*
X272897Y281897D02*
D03*
X181397Y117897D02*
D03*
X186603Y123103D02*
D03*
D39*
X296648Y269148D02*
D03*
X162852Y134852D02*
D03*
D40*
X302884Y275383D02*
D03*
X156616Y128616D02*
D03*
D41*
X146647Y252353D02*
X162352Y268058D01*
X238992Y305992D02*
X239000Y306000D01*
X229500Y305992D02*
X238992D01*
X297989Y280000D02*
X302605Y275383D01*
X302884D01*
X162352Y268058D02*
Y268648D01*
X229492Y297181D02*
X229500Y297173D01*
X202500Y297181D02*
X229492D01*
X278103Y287103D02*
X296058Y269148D01*
X296648D01*
X325181Y202083D02*
Y227000D01*
X325098Y202000D02*
X325181Y202083D01*
X297148Y135942D02*
X313103Y151897D01*
X297148Y134852D02*
Y135942D01*
X230008Y106819D02*
X254500D01*
X230000Y106827D02*
X230008Y106819D01*
X134827Y175500D02*
Y202000D01*
X164442Y134852D02*
X181397Y117897D01*
X162852Y134852D02*
X164442D01*
X198500Y98008D02*
X230000D01*
X187225D02*
X198500D01*
X199000Y98508D01*
Y108500D01*
X302884Y275383D02*
X333917Y244350D01*
Y202000D02*
Y244350D01*
X187225Y305992D02*
X229500D01*
X156116Y274884D02*
X187225Y305992D01*
X126008Y244775D02*
X156116Y274884D01*
X126008Y202000D02*
Y244775D01*
Y159225D02*
Y202000D01*
Y159225D02*
X156616Y128616D01*
X187225Y98008D01*
X230000D02*
X272775D01*
X303383Y128616D01*
X333917Y159150D01*
Y202000D01*
D42*
X209000Y108500D02*
Y117897D01*
D43*
X139000Y239500D02*
D03*
X321500Y165500D02*
D03*
D44*
X209000Y108500D02*
D03*
D45*
X199000D02*
D03*
D46*
X230000Y202000D02*
D03*
M02*
