G04*
G04 #@! TF.GenerationSoftware,Altium Limited,Altium Designer,19.0.10 (269)*
G04*
G04 Layer_Color=65535*
%FSLAX25Y25*%
%MOIN*%
G70*
G01*
G75*
%ADD10C,0.00787*%
%ADD11C,0.00500*%
%ADD12C,0.01000*%
D10*
X141720Y202000D02*
X140933D01*
X141720D01*
X167342Y264051D02*
X166555D01*
X167342D01*
X229894Y290673D02*
X229106D01*
X229894D01*
X292445Y264551D02*
X291658D01*
X292445D01*
X318992Y202000D02*
X318205D01*
X318992D01*
X292945Y139449D02*
X292158D01*
X292945D01*
X230394Y113327D02*
X229606D01*
X230394D01*
X167842Y139449D02*
X167055D01*
X167842D01*
X194000Y103500D02*
Y113500D01*
X214000D01*
Y103500D02*
Y113500D01*
X194000Y103500D02*
X214000D01*
D11*
X134571Y179004D02*
X142445D01*
X134571Y171996D02*
X142445D01*
X138390Y196488D02*
Y197197D01*
Y206803D02*
Y207512D01*
X124610Y196488D02*
Y197197D01*
Y206803D02*
Y207512D01*
Y196488D02*
X138390D01*
X124610Y207512D02*
X138390D01*
X160974Y262231D02*
X161476Y262732D01*
X168268Y269525D02*
X168769Y270026D01*
X151231Y271974D02*
X151732Y272476D01*
X158525Y279268D02*
X159026Y279769D01*
X151231Y271974D02*
X160974Y262231D01*
X159026Y279769D02*
X168769Y270026D01*
X149694Y255762D02*
X155262Y250194D01*
X144738Y250806D02*
X150306Y245238D01*
X223988Y293610D02*
X224697D01*
X234303D02*
X235012D01*
X223988Y307390D02*
X224697D01*
X234303D02*
X235012D01*
X223988Y293610D02*
Y307390D01*
X235012Y293610D02*
Y307390D01*
X206004Y289563D02*
Y297437D01*
X198996Y289563D02*
Y297437D01*
X275194Y279239D02*
X280762Y284806D01*
X270238Y284194D02*
X275806Y289761D01*
X290231Y270526D02*
X290732Y270024D01*
X297524Y263232D02*
X298026Y262731D01*
X299974Y280269D02*
X300476Y279768D01*
X307268Y272975D02*
X307769Y272474D01*
X290231Y270526D02*
X299974Y280269D01*
X298026Y262731D02*
X307769Y272474D01*
X317563Y223496D02*
X325437D01*
X317563Y230504D02*
X325437D01*
X321535Y206803D02*
Y207512D01*
Y196488D02*
Y197197D01*
X335315Y206803D02*
Y207512D01*
Y196488D02*
Y197197D01*
X321535Y207512D02*
X335315D01*
X321535Y196488D02*
X335315D01*
X305239Y154806D02*
X310806Y149238D01*
X310194Y159762D02*
X315761Y154194D01*
X298025Y140768D02*
X298526Y141269D01*
X290731Y133474D02*
X291232Y133976D01*
X307768Y131025D02*
X308269Y131526D01*
X300474Y123731D02*
X300975Y124232D01*
X298526Y141269D02*
X308269Y131526D01*
X290731Y133474D02*
X300474Y123731D01*
X250996Y106563D02*
Y114437D01*
X258004Y106563D02*
Y114437D01*
X234803Y110390D02*
X235512D01*
X224488D02*
X225197D01*
X234803Y96610D02*
X235512D01*
X224488D02*
X225197D01*
X235512D02*
Y110390D01*
X224488Y96610D02*
Y110390D01*
X178738Y120194D02*
X184306Y125762D01*
X183694Y115238D02*
X189262Y120806D01*
X168768Y133976D02*
X169269Y133474D01*
X161474Y141269D02*
X161976Y140768D01*
X159025Y124232D02*
X159526Y123731D01*
X151731Y131526D02*
X152232Y131025D01*
X159526Y123731D02*
X169269Y133474D01*
X151731Y131526D02*
X161474Y141269D01*
D12*
X192000Y98499D02*
X195999D01*
X193999Y100498D02*
Y96500D01*
X197998Y101498D02*
Y97499D01*
X199997Y95500D01*
X201997Y97499D01*
Y101498D01*
X213993Y100498D02*
X212993Y101498D01*
X210994D01*
X209994Y100498D01*
Y96500D01*
X210994Y95500D01*
X212993D01*
X213993Y96500D01*
Y98499D01*
X211994D01*
X505500Y-27001D02*
X509499D01*
X507499Y-25002D02*
Y-29000D01*
X511498Y-24002D02*
Y-28001D01*
X513497Y-30000D01*
X515497Y-28001D01*
Y-24002D01*
X530499Y-25002D02*
X529499Y-24002D01*
X527500D01*
X526500Y-25002D01*
Y-29000D01*
X527500Y-30000D01*
X529499D01*
X530499Y-29000D01*
Y-27001D01*
X528499D01*
X174000Y104500D02*
Y110498D01*
X176999D01*
X177999Y109498D01*
Y107499D01*
X176999Y106499D01*
X174000D01*
X175999D02*
X177999Y104500D01*
X179998Y109498D02*
X180998Y110498D01*
X182997D01*
X183997Y109498D01*
Y108499D01*
X182997Y107499D01*
X183997Y106499D01*
Y105500D01*
X182997Y104500D01*
X180998D01*
X179998Y105500D01*
Y106499D01*
X180998Y107499D01*
X179998Y108499D01*
Y109498D01*
X180998Y107499D02*
X182997D01*
X124500Y162000D02*
Y167998D01*
X127499D01*
X128499Y166998D01*
Y164999D01*
X127499Y163999D01*
X124500D01*
X126499D02*
X128499Y162000D01*
X130498Y167998D02*
X134497D01*
Y166998D01*
X130498Y163000D01*
Y162000D01*
X130500Y243000D02*
Y248998D01*
X133499D01*
X134499Y247998D01*
Y245999D01*
X133499Y244999D01*
X130500D01*
X132499D02*
X134499Y243000D01*
X140497Y248998D02*
X138497Y247998D01*
X136498Y245999D01*
Y244000D01*
X137498Y243000D01*
X139497D01*
X140497Y244000D01*
Y244999D01*
X139497Y245999D01*
X136498D01*
X184500Y300500D02*
Y306498D01*
X187499D01*
X188499Y305498D01*
Y303499D01*
X187499Y302499D01*
X184500D01*
X186499D02*
X188499Y300500D01*
X194497Y306498D02*
X190498D01*
Y303499D01*
X192497Y304499D01*
X193497D01*
X194497Y303499D01*
Y301500D01*
X193497Y300500D01*
X191498D01*
X190498Y301500D01*
X272897Y297000D02*
Y302998D01*
X275896D01*
X276896Y301998D01*
Y299999D01*
X275896Y298999D01*
X272897D01*
X274896D02*
X276896Y297000D01*
X281894D02*
Y302998D01*
X278895Y299999D01*
X282894D01*
X327500Y234000D02*
Y239998D01*
X330499D01*
X331499Y238998D01*
Y236999D01*
X330499Y235999D01*
X327500D01*
X329499D02*
X331499Y234000D01*
X333498Y238998D02*
X334498Y239998D01*
X336497D01*
X337497Y238998D01*
Y237999D01*
X336497Y236999D01*
X335497D01*
X336497D01*
X337497Y235999D01*
Y235000D01*
X336497Y234000D01*
X334498D01*
X333498Y235000D01*
X322000Y153500D02*
Y159498D01*
X324999D01*
X325999Y158498D01*
Y156499D01*
X324999Y155499D01*
X322000D01*
X323999D02*
X325999Y153500D01*
X331997D02*
X327998D01*
X331997Y157499D01*
Y158498D01*
X330997Y159498D01*
X328998D01*
X327998Y158498D01*
X264500Y96000D02*
Y101998D01*
X267499D01*
X268499Y100998D01*
Y98999D01*
X267499Y97999D01*
X264500D01*
X266499D02*
X268499Y96000D01*
X270498D02*
X272497D01*
X271498D01*
Y101998D01*
X270498Y100998D01*
X156500Y118998D02*
Y113000D01*
X159499D01*
X160499Y114000D01*
Y117998D01*
X159499Y118998D01*
X156500D01*
X162498Y117998D02*
X163498Y118998D01*
X165497D01*
X166497Y117998D01*
Y116999D01*
X165497Y115999D01*
X166497Y114999D01*
Y114000D01*
X165497Y113000D01*
X163498D01*
X162498Y114000D01*
Y114999D01*
X163498Y115999D01*
X162498Y116999D01*
Y117998D01*
X163498Y115999D02*
X165497D01*
X117500Y190998D02*
Y185000D01*
X120499D01*
X121499Y186000D01*
Y189998D01*
X120499Y190998D01*
X117500D01*
X123498D02*
X127497D01*
Y189998D01*
X123498Y186000D01*
Y185000D01*
X138500Y268998D02*
Y263000D01*
X141499D01*
X142499Y264000D01*
Y267998D01*
X141499Y268998D01*
X138500D01*
X148497D02*
X146497Y267998D01*
X144498Y265999D01*
Y264000D01*
X145498Y263000D01*
X147497D01*
X148497Y264000D01*
Y264999D01*
X147497Y265999D01*
X144498D01*
X209500Y312998D02*
Y307000D01*
X212499D01*
X213499Y308000D01*
Y311998D01*
X212499Y312998D01*
X209500D01*
X219497D02*
X215498D01*
Y309999D01*
X217497Y310999D01*
X218497D01*
X219497Y309999D01*
Y308000D01*
X218497Y307000D01*
X216498D01*
X215498Y308000D01*
X291000Y291498D02*
Y285500D01*
X293999D01*
X294999Y286500D01*
Y290498D01*
X293999Y291498D01*
X291000D01*
X299997Y285500D02*
Y291498D01*
X296998Y288499D01*
X300997D01*
X333500Y218998D02*
Y213000D01*
X336499D01*
X337499Y214000D01*
Y217998D01*
X336499Y218998D01*
X333500D01*
X339498Y217998D02*
X340498Y218998D01*
X342497D01*
X343497Y217998D01*
Y216999D01*
X342497Y215999D01*
X341497D01*
X342497D01*
X343497Y214999D01*
Y214000D01*
X342497Y213000D01*
X340498D01*
X339498Y214000D01*
X312000Y139498D02*
Y133500D01*
X314999D01*
X315999Y134500D01*
Y138498D01*
X314999Y139498D01*
X312000D01*
X321997Y133500D02*
X317998D01*
X321997Y137499D01*
Y138498D01*
X320997Y139498D01*
X318998D01*
X317998Y138498D01*
X241500Y95498D02*
Y89500D01*
X244499D01*
X245499Y90500D01*
Y94498D01*
X244499Y95498D01*
X241500D01*
X247498Y89500D02*
X249497D01*
X248498D01*
Y95498D01*
X247498Y94498D01*
X199000Y116000D02*
Y121998D01*
X201999D01*
X202999Y120998D01*
Y118999D01*
X201999Y117999D01*
X199000D01*
X204998Y116000D02*
X206997D01*
X205998D01*
Y121998D01*
X204998Y120998D01*
M02*
