G04*
G04 #@! TF.GenerationSoftware,Altium Limited,Altium Designer,19.0.10 (269)*
G04*
G04 Layer_Color=8388736*
%FSLAX25Y25*%
%MOIN*%
G70*
G01*
G75*
G04:AMPARAMS|DCode=13|XSize=47.37mil|YSize=63.91mil|CornerRadius=8.92mil|HoleSize=0mil|Usage=FLASHONLY|Rotation=270.000|XOffset=0mil|YOffset=0mil|HoleType=Round|Shape=RoundedRectangle|*
%AMROUNDEDRECTD13*
21,1,0.04737,0.04606,0,0,270.0*
21,1,0.02953,0.06391,0,0,270.0*
1,1,0.01784,-0.02303,-0.01476*
1,1,0.01784,-0.02303,0.01476*
1,1,0.01784,0.02303,0.01476*
1,1,0.01784,0.02303,-0.01476*
%
%ADD13ROUNDEDRECTD13*%
%ADD14R,0.07887X0.09461*%
%ADD15R,0.07887X0.05131*%
G04:AMPARAMS|DCode=16|XSize=47.37mil|YSize=63.91mil|CornerRadius=8.92mil|HoleSize=0mil|Usage=FLASHONLY|Rotation=0.000|XOffset=0mil|YOffset=0mil|HoleType=Round|Shape=RoundedRectangle|*
%AMROUNDEDRECTD16*
21,1,0.04737,0.04606,0,0,0.0*
21,1,0.02953,0.06391,0,0,0.0*
1,1,0.01784,0.01476,-0.02303*
1,1,0.01784,-0.01476,-0.02303*
1,1,0.01784,-0.01476,0.02303*
1,1,0.01784,0.01476,0.02303*
%
%ADD16ROUNDEDRECTD16*%
%ADD17R,0.09461X0.07887*%
%ADD18R,0.05131X0.07887*%
%ADD19C,0.14580*%
%ADD20R,0.06706X0.06706*%
%ADD21C,0.06706*%
D13*
X331500Y173681D02*
D03*
Y166319D02*
D03*
X331315Y252181D02*
D03*
Y244819D02*
D03*
X134500Y282819D02*
D03*
Y290181D02*
D03*
Y198819D02*
D03*
Y206181D02*
D03*
D14*
X331500Y185913D02*
D03*
X331315Y264173D02*
D03*
X134685Y271087D02*
D03*
Y187327D02*
D03*
D15*
X331500Y194732D02*
D03*
X331315Y272992D02*
D03*
X134685Y262268D02*
D03*
Y178508D02*
D03*
D16*
X287319Y327000D02*
D03*
X294681D02*
D03*
X210319D02*
D03*
X217681D02*
D03*
X178681Y130000D02*
D03*
X171319D02*
D03*
X257181Y130185D02*
D03*
X249819D02*
D03*
D17*
X190413D02*
D03*
X268988D02*
D03*
X197067Y327000D02*
D03*
X275827D02*
D03*
D18*
X199232Y130185D02*
D03*
X277807D02*
D03*
X188248Y327000D02*
D03*
X267008D02*
D03*
D19*
X134500Y228610D02*
D03*
X331500D02*
D03*
D20*
X311500Y130500D02*
D03*
D21*
X301500D02*
D03*
M02*
