G04*
G04 #@! TF.GenerationSoftware,Altium Limited,Altium Designer,19.0.10 (269)*
G04*
G04 Layer_Color=16711935*
%FSLAX25Y25*%
%MOIN*%
G70*
G01*
G75*
%ADD10C,0.00787*%
%ADD11C,0.00500*%
D10*
X331894Y179413D02*
G03*
X331894Y179413I-394J0D01*
G01*
X331709Y257673D02*
G03*
X331709Y257673I-394J0D01*
G01*
X135079Y277587D02*
G03*
X135079Y277587I-394J0D01*
G01*
Y193827D02*
G03*
X135079Y193827I-394J0D01*
G01*
X184307Y130185D02*
G03*
X184307Y130185I-394J0D01*
G01*
X262882D02*
G03*
X262882Y130185I-394J0D01*
G01*
X203961Y327000D02*
G03*
X203961Y327000I-394J0D01*
G01*
X282720D02*
G03*
X282720Y327000I-394J0D01*
G01*
D11*
X334256Y165748D02*
Y174252D01*
X328744Y165748D02*
Y174252D01*
Y165748D02*
X334256D01*
X328744Y174252D02*
X334256D01*
X325988Y182350D02*
X337012D01*
X325988D02*
Y196130D01*
X337012D01*
Y182350D02*
Y196130D01*
X334071Y244248D02*
Y252752D01*
X328559Y244248D02*
Y252752D01*
Y244248D02*
X334071D01*
X328559Y252752D02*
X334071D01*
X325803Y260610D02*
X336827D01*
X325803D02*
Y274390D01*
X336827D01*
Y260610D02*
Y274390D01*
X286748Y329756D02*
X295252D01*
X286748Y324244D02*
X295252D01*
Y329756D01*
X286748Y324244D02*
Y329756D01*
X209748D02*
X218252D01*
X209748Y324244D02*
X218252D01*
Y329756D01*
X209748Y324244D02*
Y329756D01*
X129173Y274650D02*
X140197D01*
Y260870D02*
Y274650D01*
X129173Y260870D02*
X140197D01*
X129173D02*
Y274650D01*
X131744Y282248D02*
Y290752D01*
X137256Y282248D02*
Y290752D01*
X131744D02*
X137256D01*
X131744Y282248D02*
X137256D01*
X129173Y190890D02*
X140197D01*
Y177110D02*
Y190890D01*
X129173Y177110D02*
X140197D01*
X129173D02*
Y190890D01*
X131744Y198248D02*
Y206752D01*
X137256Y198248D02*
Y206752D01*
X131744D02*
X137256D01*
X131744Y198248D02*
X137256D01*
X186850Y124673D02*
Y135697D01*
X200630D01*
Y124673D02*
Y135697D01*
X186850Y124673D02*
X200630D01*
X170748Y127244D02*
X179252D01*
X170748Y132756D02*
X179252D01*
X170748Y127244D02*
Y132756D01*
X179252Y127244D02*
Y132756D01*
X265425Y124673D02*
Y135697D01*
X279205D01*
Y124673D02*
Y135697D01*
X265425Y124673D02*
X279205D01*
X249248Y127429D02*
X257752D01*
X249248Y132941D02*
X257752D01*
X249248Y127429D02*
Y132941D01*
X257752Y127429D02*
Y132941D01*
X200630Y321488D02*
Y332512D01*
X186850Y321488D02*
X200630D01*
X186850D02*
Y332512D01*
X200630D01*
X279390Y321488D02*
Y332512D01*
X265610Y321488D02*
X279390D01*
X265610D02*
Y332512D01*
X279390D01*
M02*
