G04*
G04 #@! TF.GenerationSoftware,Altium Limited,Altium Designer,19.0.10 (269)*
G04*
G04 Layer_Color=32768*
%FSLAX25Y25*%
%MOIN*%
G70*
G01*
G75*
%ADD33C,0.00197*%
D33*
X335279Y163347D02*
Y176654D01*
X327720Y163347D02*
X335279D01*
X327720D02*
Y176654D01*
X335279D01*
X325004Y180598D02*
X337996D01*
Y197882D01*
X325004D02*
X337996D01*
X325004Y180598D02*
Y197882D01*
X335094Y241846D02*
Y255153D01*
X327535Y241846D02*
X335094D01*
X327535D02*
Y255153D01*
X335094D01*
X324819Y258858D02*
X337811D01*
Y276142D01*
X324819D02*
X337811D01*
X324819Y258858D02*
Y276142D01*
X284347Y330780D02*
X297654D01*
Y323220D02*
Y330780D01*
X284347Y323220D02*
X297654D01*
X284347D02*
Y330780D01*
X207347D02*
X220654D01*
Y323220D02*
Y330780D01*
X207347Y323220D02*
X220654D01*
X207347D02*
Y330780D01*
X128189Y276402D02*
X141181D01*
X128189Y259118D02*
Y276402D01*
Y259118D02*
X141181D01*
Y276402D01*
X130720Y279847D02*
Y293154D01*
X138279D01*
Y279847D02*
Y293154D01*
X130720Y279847D02*
X138279D01*
X128189Y192642D02*
X141181D01*
X128189Y175358D02*
Y192642D01*
Y175358D02*
X141181D01*
Y192642D01*
X130720Y195846D02*
Y209154D01*
X138279D01*
Y195846D02*
Y209154D01*
X130720Y195846D02*
X138279D01*
X185098Y123689D02*
Y136681D01*
Y123689D02*
X202382D01*
Y136681D01*
X185098D02*
X202382D01*
X168347Y126221D02*
X181653D01*
X168347D02*
Y133780D01*
X181653D01*
Y126221D02*
Y133780D01*
X263673Y123689D02*
Y136681D01*
Y123689D02*
X280957D01*
Y136681D01*
X263673D02*
X280957D01*
X246847Y126406D02*
X260154D01*
X246847D02*
Y133965D01*
X260154D01*
Y126406D02*
Y133965D01*
X202382Y320504D02*
Y333496D01*
X185098D02*
X202382D01*
X185098Y320504D02*
Y333496D01*
Y320504D02*
X202382D01*
X281142D02*
Y333496D01*
X263858D02*
X281142D01*
X263858Y320504D02*
Y333496D01*
Y320504D02*
X281142D01*
M02*
