G04*
G04 #@! TF.GenerationSoftware,Altium Limited,Altium Designer,19.0.10 (269)*
G04*
G04 Layer_Physical_Order=1*
G04 Layer_Color=255*
%FSLAX25Y25*%
%MOIN*%
G70*
G01*
G75*
G04:AMPARAMS|DCode=22|XSize=39.37mil|YSize=55.91mil|CornerRadius=4.92mil|HoleSize=0mil|Usage=FLASHONLY|Rotation=270.000|XOffset=0mil|YOffset=0mil|HoleType=Round|Shape=RoundedRectangle|*
%AMROUNDEDRECTD22*
21,1,0.03937,0.04606,0,0,270.0*
21,1,0.02953,0.05591,0,0,270.0*
1,1,0.00984,-0.02303,-0.01476*
1,1,0.00984,-0.02303,0.01476*
1,1,0.00984,0.02303,0.01476*
1,1,0.00984,0.02303,-0.01476*
%
%ADD22ROUNDEDRECTD22*%
%ADD23R,0.07087X0.08661*%
%ADD24R,0.07087X0.04331*%
G04:AMPARAMS|DCode=25|XSize=39.37mil|YSize=55.91mil|CornerRadius=4.92mil|HoleSize=0mil|Usage=FLASHONLY|Rotation=0.000|XOffset=0mil|YOffset=0mil|HoleType=Round|Shape=RoundedRectangle|*
%AMROUNDEDRECTD25*
21,1,0.03937,0.04606,0,0,0.0*
21,1,0.02953,0.05591,0,0,0.0*
1,1,0.00984,0.01476,-0.02303*
1,1,0.00984,-0.01476,-0.02303*
1,1,0.00984,-0.01476,0.02303*
1,1,0.00984,0.01476,0.02303*
%
%ADD25ROUNDEDRECTD25*%
%ADD26R,0.08661X0.07087*%
%ADD27R,0.04331X0.07087*%
%ADD28C,0.03000*%
%ADD29C,0.02000*%
%ADD30C,0.13780*%
%ADD31R,0.05906X0.05906*%
%ADD32C,0.05906*%
G36*
X351500Y110500D02*
X115000D01*
Y346500D01*
X351500D01*
Y110500D01*
D02*
G37*
%LPC*%
G36*
X296158Y330824D02*
X295181D01*
Y327500D01*
X297679D01*
Y329303D01*
X297563Y329885D01*
X297233Y330379D01*
X296740Y330709D01*
X296158Y330824D01*
D02*
G37*
G36*
X294181D02*
X293205D01*
X292622Y330709D01*
X292129Y330379D01*
X291799Y329885D01*
X291683Y329303D01*
Y327500D01*
X294181D01*
Y330824D01*
D02*
G37*
G36*
X219158D02*
X218181D01*
Y327500D01*
X220679D01*
Y329303D01*
X220563Y329885D01*
X220233Y330379D01*
X219740Y330709D01*
X219158Y330824D01*
D02*
G37*
G36*
X217181D02*
X216205D01*
X215622Y330709D01*
X215129Y330379D01*
X214799Y329885D01*
X214683Y329303D01*
Y327500D01*
X217181D01*
Y330824D01*
D02*
G37*
G36*
X297679Y326500D02*
X295181D01*
Y323176D01*
X296158D01*
X296740Y323291D01*
X297233Y323621D01*
X297563Y324115D01*
X297679Y324697D01*
Y326500D01*
D02*
G37*
G36*
X294181D02*
X291683D01*
Y324697D01*
X291799Y324115D01*
X292129Y323621D01*
X292622Y323291D01*
X293205Y323176D01*
X294181D01*
Y326500D01*
D02*
G37*
G36*
X220679D02*
X218181D01*
Y323176D01*
X219158D01*
X219740Y323291D01*
X220233Y323621D01*
X220563Y324115D01*
X220679Y324697D01*
Y326500D01*
D02*
G37*
G36*
X217181D02*
X214683D01*
Y324697D01*
X214799Y324115D01*
X215129Y323621D01*
X215622Y323291D01*
X216205Y323176D01*
X217181D01*
Y326500D01*
D02*
G37*
G36*
X270173Y331543D02*
X269996Y331543D01*
X263843D01*
Y322457D01*
X264459D01*
Y319549D01*
X192056D01*
X190132Y321473D01*
Y322103D01*
X190485Y322457D01*
X191736Y322457D01*
X191913Y322457D01*
X202398D01*
Y324961D01*
X207321D01*
Y324697D01*
X207437Y324115D01*
X207767Y323621D01*
X208260Y323291D01*
X208842Y323176D01*
X211795D01*
X212378Y323291D01*
X212871Y323621D01*
X213201Y324115D01*
X213317Y324697D01*
Y329303D01*
X213201Y329885D01*
X212871Y330379D01*
X212378Y330709D01*
X211795Y330824D01*
X208842D01*
X208260Y330709D01*
X207767Y330379D01*
X207437Y329885D01*
X207321Y329303D01*
Y329039D01*
X202398D01*
Y331543D01*
X191913D01*
X191413Y331543D01*
X191236Y331543D01*
X185083D01*
Y326581D01*
X185034Y326335D01*
Y320916D01*
X184951Y320500D01*
X185145Y319525D01*
X185698Y318698D01*
X189198Y315198D01*
X190024Y314645D01*
X191000Y314451D01*
X315444D01*
X317593Y312302D01*
Y272992D01*
Y194732D01*
Y146698D01*
X313944Y143049D01*
X153056D01*
X148549Y147556D01*
Y178500D01*
Y250953D01*
X148355Y251928D01*
X147802Y252755D01*
X139277Y261280D01*
Y261602D01*
X139228Y261849D01*
Y265256D01*
X139228Y265756D01*
X139228Y265933D01*
Y276417D01*
X136539D01*
Y279821D01*
X136803D01*
X137385Y279937D01*
X137879Y280267D01*
X138209Y280760D01*
X138324Y281343D01*
Y284295D01*
X138209Y284877D01*
X137879Y285371D01*
X137385Y285701D01*
X136803Y285817D01*
X132197D01*
X131615Y285701D01*
X131121Y285371D01*
X130791Y284877D01*
X130675Y284295D01*
Y281343D01*
X130791Y280760D01*
X131121Y280267D01*
X131615Y279937D01*
X132197Y279821D01*
X132461D01*
Y276417D01*
X130142D01*
Y265933D01*
X130142Y265433D01*
X130142Y265256D01*
Y259102D01*
X134471D01*
X134926Y258422D01*
X143451Y249897D01*
Y181057D01*
X139582D01*
X139228Y181410D01*
X139228Y181996D01*
X139228Y182173D01*
Y192657D01*
X136539D01*
Y195821D01*
X136803D01*
X137385Y195937D01*
X137879Y196267D01*
X138209Y196760D01*
X138324Y197343D01*
Y200295D01*
X138209Y200877D01*
X137879Y201371D01*
X137385Y201701D01*
X136803Y201817D01*
X132197D01*
X131615Y201701D01*
X131121Y201371D01*
X130791Y200877D01*
X130675Y200295D01*
Y197343D01*
X130791Y196760D01*
X131121Y196267D01*
X131615Y195937D01*
X132197Y195821D01*
X132461D01*
Y192657D01*
X130142D01*
Y182173D01*
X130142Y181673D01*
X130142Y181496D01*
Y175343D01*
X139228D01*
Y175959D01*
X143451D01*
Y146500D01*
X143645Y145525D01*
X144198Y144698D01*
X150198Y138698D01*
X151024Y138145D01*
X152000Y137951D01*
X196683D01*
Y135082D01*
X196330Y134728D01*
X195744Y134728D01*
X195567Y134728D01*
X185083D01*
Y132039D01*
X181679D01*
Y132303D01*
X181563Y132885D01*
X181233Y133379D01*
X180740Y133709D01*
X180157Y133825D01*
X177205D01*
X176622Y133709D01*
X176129Y133379D01*
X175799Y132885D01*
X175683Y132303D01*
Y127697D01*
X175799Y127115D01*
X176129Y126621D01*
X176622Y126291D01*
X177205Y126175D01*
X180157D01*
X180740Y126291D01*
X181233Y126621D01*
X181563Y127115D01*
X181679Y127697D01*
Y127961D01*
X185083D01*
Y125642D01*
X195567D01*
X196067Y125642D01*
X196244Y125642D01*
X202398D01*
Y130604D01*
X202447Y130850D01*
X202398Y131097D01*
Y134728D01*
X201781D01*
Y137951D01*
X275258D01*
Y135082D01*
X274905Y134728D01*
X274319Y134728D01*
X274142Y134728D01*
X263657D01*
Y132224D01*
X260179D01*
Y132488D01*
X260063Y133070D01*
X259733Y133564D01*
X259240Y133894D01*
X258658Y134010D01*
X255705D01*
X255122Y133894D01*
X254629Y133564D01*
X254299Y133070D01*
X254183Y132488D01*
Y127882D01*
X254299Y127300D01*
X254629Y126806D01*
X255122Y126476D01*
X255705Y126360D01*
X258658D01*
X259240Y126476D01*
X259733Y126806D01*
X260063Y127300D01*
X260179Y127882D01*
Y128146D01*
X263657D01*
Y125642D01*
X274142D01*
X274642Y125642D01*
X274819Y125642D01*
X280972D01*
Y134728D01*
X280356D01*
Y137951D01*
X298951D01*
Y133526D01*
X298681Y133319D01*
X298047Y132493D01*
X297649Y131532D01*
X297513Y130500D01*
X297649Y129468D01*
X298047Y128507D01*
X298681Y127681D01*
X299507Y127047D01*
X300468Y126649D01*
X301500Y126513D01*
X302532Y126649D01*
X303493Y127047D01*
X304319Y127681D01*
X304953Y128507D01*
X305351Y129468D01*
X305487Y130500D01*
X305351Y131532D01*
X304953Y132493D01*
X304319Y133319D01*
X304049Y133526D01*
Y137951D01*
X315000D01*
X315975Y138145D01*
X316802Y138698D01*
X321944Y143839D01*
X322497Y144666D01*
X322691Y145642D01*
Y192183D01*
X326603D01*
X326957Y191830D01*
X326957Y191244D01*
X326957Y191067D01*
Y180583D01*
X329461D01*
Y176679D01*
X329197D01*
X328615Y176563D01*
X328121Y176233D01*
X327791Y175740D01*
X327676Y175157D01*
Y172205D01*
X327791Y171623D01*
X328121Y171129D01*
X328615Y170799D01*
X329197Y170683D01*
X333803D01*
X334385Y170799D01*
X334879Y171129D01*
X335209Y171623D01*
X335325Y172205D01*
Y175157D01*
X335209Y175740D01*
X334879Y176233D01*
X334385Y176563D01*
X333803Y176679D01*
X333539D01*
Y180583D01*
X336043D01*
Y191067D01*
X336043Y191567D01*
X336043Y191744D01*
Y197898D01*
X326957D01*
Y197281D01*
X322691D01*
Y270443D01*
X326418D01*
X326772Y270090D01*
X326772Y269504D01*
X326772Y269327D01*
Y258842D01*
X329276D01*
Y255179D01*
X329012D01*
X328430Y255063D01*
X327936Y254733D01*
X327606Y254240D01*
X327490Y253658D01*
Y250705D01*
X327606Y250122D01*
X327936Y249629D01*
X328430Y249299D01*
X329012Y249183D01*
X333618D01*
X334200Y249299D01*
X334694Y249629D01*
X335024Y250122D01*
X335139Y250705D01*
Y253658D01*
X335024Y254240D01*
X334694Y254733D01*
X334200Y255063D01*
X333618Y255179D01*
X333354D01*
Y258842D01*
X335858D01*
Y269327D01*
X335858Y269827D01*
X335858Y270004D01*
Y276157D01*
X326772D01*
Y275541D01*
X322691D01*
Y313358D01*
X322497Y314334D01*
X321944Y315161D01*
X318302Y318802D01*
X317476Y319355D01*
X316500Y319549D01*
X269557D01*
Y322103D01*
X269910Y322457D01*
X270496Y322457D01*
X270673Y322457D01*
X281157D01*
Y324961D01*
X284321D01*
Y324697D01*
X284437Y324115D01*
X284767Y323621D01*
X285260Y323291D01*
X285842Y323176D01*
X288795D01*
X289377Y323291D01*
X289871Y323621D01*
X290201Y324115D01*
X290317Y324697D01*
Y329303D01*
X290201Y329885D01*
X289871Y330379D01*
X289377Y330709D01*
X288795Y330824D01*
X285842D01*
X285260Y330709D01*
X284767Y330379D01*
X284437Y329885D01*
X284321Y329303D01*
Y329039D01*
X281157D01*
Y331543D01*
X270673D01*
X270173Y331543D01*
D02*
G37*
G36*
X136803Y293179D02*
X135000D01*
Y290681D01*
X138324D01*
Y291657D01*
X138209Y292240D01*
X137879Y292733D01*
X137385Y293063D01*
X136803Y293179D01*
D02*
G37*
G36*
X134000D02*
X132197D01*
X131615Y293063D01*
X131121Y292733D01*
X130791Y292240D01*
X130675Y291657D01*
Y290681D01*
X134000D01*
Y293179D01*
D02*
G37*
G36*
X138324Y289681D02*
X135000D01*
Y287183D01*
X136803D01*
X137385Y287299D01*
X137879Y287629D01*
X138209Y288123D01*
X138324Y288705D01*
Y289681D01*
D02*
G37*
G36*
X134000D02*
X130675D01*
Y288705D01*
X130791Y288123D01*
X131121Y287629D01*
X131615Y287299D01*
X132197Y287183D01*
X134000D01*
Y289681D01*
D02*
G37*
G36*
X333618Y247817D02*
X331815D01*
Y245319D01*
X335139D01*
Y246295D01*
X335024Y246878D01*
X334694Y247371D01*
X334200Y247701D01*
X333618Y247817D01*
D02*
G37*
G36*
X330815D02*
X329012D01*
X328430Y247701D01*
X327936Y247371D01*
X327606Y246878D01*
X327490Y246295D01*
Y245319D01*
X330815D01*
Y247817D01*
D02*
G37*
G36*
X335139Y244319D02*
X331815D01*
Y241821D01*
X333618D01*
X334200Y241937D01*
X334694Y242267D01*
X335024Y242760D01*
X335139Y243342D01*
Y244319D01*
D02*
G37*
G36*
X330815D02*
X327490D01*
Y243342D01*
X327606Y242760D01*
X327936Y242267D01*
X328430Y241937D01*
X329012Y241821D01*
X330815D01*
Y244319D01*
D02*
G37*
G36*
X331500Y236538D02*
X329953Y236386D01*
X328466Y235935D01*
X327096Y235202D01*
X325894Y234216D01*
X324908Y233015D01*
X324176Y231644D01*
X323724Y230157D01*
X323572Y228610D01*
X323724Y227064D01*
X324176Y225576D01*
X324908Y224206D01*
X325894Y223004D01*
X327096Y222018D01*
X328466Y221286D01*
X329953Y220835D01*
X331500Y220682D01*
X333047Y220835D01*
X334534Y221286D01*
X335905Y222018D01*
X337106Y223004D01*
X338092Y224206D01*
X338825Y225576D01*
X339276Y227064D01*
X339428Y228610D01*
X339276Y230157D01*
X338825Y231644D01*
X338092Y233015D01*
X337106Y234216D01*
X335905Y235202D01*
X334534Y235935D01*
X333047Y236386D01*
X331500Y236538D01*
D02*
G37*
G36*
X134500D02*
X132953Y236386D01*
X131466Y235935D01*
X130096Y235202D01*
X128894Y234216D01*
X127908Y233015D01*
X127175Y231644D01*
X126724Y230157D01*
X126572Y228610D01*
X126724Y227064D01*
X127175Y225576D01*
X127908Y224206D01*
X128894Y223004D01*
X130096Y222018D01*
X131466Y221286D01*
X132953Y220835D01*
X134500Y220682D01*
X136047Y220835D01*
X137534Y221286D01*
X138905Y222018D01*
X140106Y223004D01*
X141092Y224206D01*
X141824Y225576D01*
X142276Y227064D01*
X142428Y228610D01*
X142276Y230157D01*
X141824Y231644D01*
X141092Y233015D01*
X140106Y234216D01*
X138905Y235202D01*
X137534Y235935D01*
X136047Y236386D01*
X134500Y236538D01*
D02*
G37*
G36*
X136803Y209179D02*
X135000D01*
Y206681D01*
X138324D01*
Y207658D01*
X138209Y208240D01*
X137879Y208733D01*
X137385Y209063D01*
X136803Y209179D01*
D02*
G37*
G36*
X134000D02*
X132197D01*
X131615Y209063D01*
X131121Y208733D01*
X130791Y208240D01*
X130675Y207658D01*
Y206681D01*
X134000D01*
Y209179D01*
D02*
G37*
G36*
X138324Y205681D02*
X135000D01*
Y203183D01*
X136803D01*
X137385Y203299D01*
X137879Y203629D01*
X138209Y204122D01*
X138324Y204705D01*
Y205681D01*
D02*
G37*
G36*
X134000D02*
X130675D01*
Y204705D01*
X130791Y204122D01*
X131121Y203629D01*
X131615Y203299D01*
X132197Y203183D01*
X134000D01*
Y205681D01*
D02*
G37*
G36*
X333803Y169317D02*
X332000D01*
Y166819D01*
X335325D01*
Y167795D01*
X335209Y168377D01*
X334879Y168871D01*
X334385Y169201D01*
X333803Y169317D01*
D02*
G37*
G36*
X331000D02*
X329197D01*
X328615Y169201D01*
X328121Y168871D01*
X327791Y168377D01*
X327676Y167795D01*
Y166819D01*
X331000D01*
Y169317D01*
D02*
G37*
G36*
X335325Y165819D02*
X332000D01*
Y163321D01*
X333803D01*
X334385Y163437D01*
X334879Y163767D01*
X335209Y164260D01*
X335325Y164842D01*
Y165819D01*
D02*
G37*
G36*
X331000D02*
X327676D01*
Y164842D01*
X327791Y164260D01*
X328121Y163767D01*
X328615Y163437D01*
X329197Y163321D01*
X331000D01*
Y165819D01*
D02*
G37*
G36*
X311980Y308370D02*
X154500D01*
X154110Y308292D01*
X153779Y308071D01*
X153558Y307741D01*
X153480Y307350D01*
Y149870D01*
X153558Y149480D01*
X153779Y149149D01*
X154110Y148928D01*
X154500Y148851D01*
X311980D01*
X312370Y148928D01*
X312701Y149149D01*
X312922Y149480D01*
X313000Y149870D01*
Y307350D01*
X312922Y307741D01*
X312701Y308071D01*
X312370Y308292D01*
X311980Y308370D01*
D02*
G37*
G36*
X315453Y134453D02*
X312000D01*
Y131000D01*
X315453D01*
Y134453D01*
D02*
G37*
G36*
X311000D02*
X307547D01*
Y131000D01*
X311000D01*
Y134453D01*
D02*
G37*
G36*
X251295Y134010D02*
X250319D01*
Y130685D01*
X252817D01*
Y132488D01*
X252701Y133070D01*
X252371Y133564D01*
X251877Y133894D01*
X251295Y134010D01*
D02*
G37*
G36*
X249319D02*
X248342D01*
X247760Y133894D01*
X247267Y133564D01*
X246937Y133070D01*
X246821Y132488D01*
Y130685D01*
X249319D01*
Y134010D01*
D02*
G37*
G36*
X172795Y133825D02*
X171819D01*
Y130500D01*
X174317D01*
Y132303D01*
X174201Y132885D01*
X173871Y133379D01*
X173378Y133709D01*
X172795Y133825D01*
D02*
G37*
G36*
X170819D02*
X169843D01*
X169260Y133709D01*
X168767Y133379D01*
X168437Y132885D01*
X168321Y132303D01*
Y130500D01*
X170819D01*
Y133825D01*
D02*
G37*
G36*
X315453Y130000D02*
X312000D01*
Y126547D01*
X315453D01*
Y130000D01*
D02*
G37*
G36*
X311000D02*
X307547D01*
Y126547D01*
X311000D01*
Y130000D01*
D02*
G37*
G36*
X252817Y129685D02*
X250319D01*
Y126360D01*
X251295D01*
X251877Y126476D01*
X252371Y126806D01*
X252701Y127300D01*
X252817Y127882D01*
Y129685D01*
D02*
G37*
G36*
X249319D02*
X246821D01*
Y127882D01*
X246937Y127300D01*
X247267Y126806D01*
X247760Y126476D01*
X248342Y126360D01*
X249319D01*
Y129685D01*
D02*
G37*
G36*
X174317Y129500D02*
X171819D01*
Y126175D01*
X172795D01*
X173378Y126291D01*
X173871Y126621D01*
X174201Y127115D01*
X174317Y127697D01*
Y129500D01*
D02*
G37*
G36*
X170819D02*
X168321D01*
Y127697D01*
X168437Y127115D01*
X168767Y126621D01*
X169260Y126291D01*
X169843Y126175D01*
X170819D01*
Y129500D01*
D02*
G37*
%LPD*%
D22*
X331500Y173681D02*
D03*
Y166319D02*
D03*
X331315Y252181D02*
D03*
Y244819D02*
D03*
X134500Y282819D02*
D03*
Y290181D02*
D03*
Y198819D02*
D03*
Y206181D02*
D03*
D23*
X331500Y185913D02*
D03*
X331315Y264173D02*
D03*
X134685Y271087D02*
D03*
Y187327D02*
D03*
D24*
X331500Y194732D02*
D03*
X331315Y272992D02*
D03*
X134685Y262268D02*
D03*
Y178508D02*
D03*
D25*
X287319Y327000D02*
D03*
X294681D02*
D03*
X210319D02*
D03*
X217681D02*
D03*
X178681Y130000D02*
D03*
X171319D02*
D03*
X257181Y130185D02*
D03*
X249819D02*
D03*
D26*
X190413D02*
D03*
X268988D02*
D03*
X197067Y327000D02*
D03*
X275827D02*
D03*
D27*
X199232Y130185D02*
D03*
X277807D02*
D03*
X188248Y327000D02*
D03*
X267008D02*
D03*
D28*
X320142Y272992D02*
Y313358D01*
Y194732D02*
Y272992D01*
X316500Y317000D02*
X320142Y313358D01*
Y194732D02*
X331500D01*
X320142Y145642D02*
Y194732D01*
X315000Y140500D02*
X320142Y145642D01*
X300500Y140500D02*
X315000D01*
X277807D02*
X300500D01*
X301500Y139500D01*
Y130500D02*
Y139500D01*
X199232Y140500D02*
X277807D01*
Y130185D02*
Y140500D01*
X320142Y272992D02*
X331315D01*
X266000Y317000D02*
X316500D01*
X191000D02*
X266000D01*
X267008Y318008D01*
Y327000D01*
X187500Y320500D02*
X187583Y320583D01*
Y326335D01*
X188248Y327000D01*
X187500Y320500D02*
X191000Y317000D01*
X146000Y178500D02*
Y250953D01*
Y146500D02*
Y178500D01*
X145992Y178508D02*
X146000Y178500D01*
X134685Y178508D02*
X145992D01*
X136728Y260224D02*
X146000Y250953D01*
X136728Y260224D02*
Y261602D01*
X136063Y262268D02*
X136728Y261602D01*
X134685Y262268D02*
X136063D01*
X146000Y146500D02*
X152000Y140500D01*
X199232D01*
Y130185D02*
Y140500D01*
Y130185D02*
X199898Y130850D01*
D29*
X331315Y252181D02*
Y264173D01*
X331500Y173681D02*
Y185913D01*
X257181Y130185D02*
X268988D01*
X190228Y130000D02*
X190413Y130185D01*
X178681Y130000D02*
X190228D01*
X134500Y187512D02*
X134685Y187327D01*
X134500Y187512D02*
Y198819D01*
Y271272D02*
Y282819D01*
Y271272D02*
X134685Y271087D01*
X275827Y327000D02*
X287319D01*
X197067D02*
X210319D01*
D30*
X134500Y228610D02*
D03*
X331500D02*
D03*
D31*
X311500Y130500D02*
D03*
D32*
X301500D02*
D03*
M02*
