G04*
G04 #@! TF.GenerationSoftware,Altium Limited,Altium Designer,19.0.10 (269)*
G04*
G04 Layer_Color=65535*
%FSLAX25Y25*%
%MOIN*%
G70*
G01*
G75*
%ADD10C,0.00787*%
%ADD11C,0.00500*%
%ADD12C,0.01000*%
D10*
X331894Y179413D02*
G03*
X331894Y179413I-394J0D01*
G01*
X331709Y257673D02*
G03*
X331709Y257673I-394J0D01*
G01*
X135079Y277587D02*
G03*
X135079Y277587I-394J0D01*
G01*
Y193827D02*
G03*
X135079Y193827I-394J0D01*
G01*
X184307Y130185D02*
G03*
X184307Y130185I-394J0D01*
G01*
X262882D02*
G03*
X262882Y130185I-394J0D01*
G01*
X203961Y327000D02*
G03*
X203961Y327000I-394J0D01*
G01*
X282720D02*
G03*
X282720Y327000I-394J0D01*
G01*
X296500Y125500D02*
Y135500D01*
X316500D01*
Y125500D02*
Y135500D01*
X296500Y125500D02*
X316500D01*
D11*
X335004Y166063D02*
Y173937D01*
X327996Y166063D02*
Y173937D01*
X325988Y182350D02*
X326697D01*
X336303D02*
X337012D01*
X325988Y196130D02*
X326697D01*
X336303D02*
X337012D01*
X325988Y182350D02*
Y196130D01*
X337012Y182350D02*
Y196130D01*
X334819Y244563D02*
Y252437D01*
X327811Y244563D02*
Y252437D01*
X325803Y260610D02*
X326512D01*
X336118D02*
X336827D01*
X325803Y274390D02*
X326512D01*
X336118D02*
X336827D01*
X325803Y260610D02*
Y274390D01*
X336827Y260610D02*
Y274390D01*
X287063Y330504D02*
X294937D01*
X287063Y323496D02*
X294937D01*
X210063Y330504D02*
X217937D01*
X210063Y323496D02*
X217937D01*
X139488Y274650D02*
X140197D01*
X129173D02*
X129882D01*
X139488Y260870D02*
X140197D01*
X129173D02*
X129882D01*
X140197D02*
Y274650D01*
X129173Y260870D02*
Y274650D01*
X130996Y282563D02*
Y290437D01*
X138004Y282563D02*
Y290437D01*
X139488Y190890D02*
X140197D01*
X129173D02*
X129882D01*
X139488Y177110D02*
X140197D01*
X129173D02*
X129882D01*
X140197D02*
Y190890D01*
X129173Y177110D02*
Y190890D01*
X130996Y198563D02*
Y206437D01*
X138004Y198563D02*
Y206437D01*
X186850Y134988D02*
Y135697D01*
Y124673D02*
Y125382D01*
X200630Y134988D02*
Y135697D01*
Y124673D02*
Y125382D01*
X186850Y135697D02*
X200630D01*
X186850Y124673D02*
X200630D01*
X171063Y126496D02*
X178937D01*
X171063Y133504D02*
X178937D01*
X265425Y134988D02*
Y135697D01*
Y124673D02*
Y125382D01*
X279205Y134988D02*
Y135697D01*
Y124673D02*
Y125382D01*
X265425Y135697D02*
X279205D01*
X265425Y124673D02*
X279205D01*
X249563Y126681D02*
X257437D01*
X249563Y133689D02*
X257437D01*
X200630Y321488D02*
Y322197D01*
Y331803D02*
Y332512D01*
X186850Y321488D02*
Y322197D01*
Y331803D02*
Y332512D01*
Y321488D02*
X200630D01*
X186850Y332512D02*
X200630D01*
X279390Y321488D02*
Y322197D01*
Y331803D02*
Y332512D01*
X265610Y321488D02*
Y322197D01*
Y331803D02*
Y332512D01*
Y321488D02*
X279390D01*
X265610Y332512D02*
X279390D01*
D12*
X316999Y121998D02*
X315999Y122998D01*
X314000D01*
X313000Y121998D01*
Y118000D01*
X314000Y117000D01*
X315999D01*
X316999Y118000D01*
Y119999D01*
X314999D01*
X292000D02*
X295999D01*
X293999Y121998D02*
Y118000D01*
X297998Y122998D02*
Y118999D01*
X299997Y117000D01*
X301997Y118999D01*
Y122998D01*
X127500Y166000D02*
Y171998D01*
X130499D01*
X131499Y170998D01*
Y168999D01*
X130499Y167999D01*
X127500D01*
X129499D02*
X131499Y166000D01*
X133498Y170998D02*
X134498Y171998D01*
X136497D01*
X137497Y170998D01*
Y169999D01*
X136497Y168999D01*
X137497Y167999D01*
Y167000D01*
X136497Y166000D01*
X134498D01*
X133498Y167000D01*
Y167999D01*
X134498Y168999D01*
X133498Y169999D01*
Y170998D01*
X134498Y168999D02*
X136497D01*
X130500Y309000D02*
Y314998D01*
X133499D01*
X134499Y313998D01*
Y311999D01*
X133499Y310999D01*
X130500D01*
X132499D02*
X134499Y309000D01*
X136498Y314998D02*
X140497D01*
Y313998D01*
X136498Y310000D01*
Y309000D01*
X207500Y336600D02*
Y342598D01*
X210499D01*
X211499Y341598D01*
Y339599D01*
X210499Y338599D01*
X207500D01*
X209499D02*
X211499Y336600D01*
X217497Y342598D02*
X215497Y341598D01*
X213498Y339599D01*
Y337600D01*
X214498Y336600D01*
X216497D01*
X217497Y337600D01*
Y338599D01*
X216497Y339599D01*
X213498D01*
X284000Y336500D02*
Y342498D01*
X286999D01*
X287999Y341498D01*
Y339499D01*
X286999Y338499D01*
X284000D01*
X285999D02*
X287999Y336500D01*
X293997Y342498D02*
X289998D01*
Y339499D01*
X291997Y340499D01*
X292997D01*
X293997Y339499D01*
Y337500D01*
X292997Y336500D01*
X290998D01*
X289998Y337500D01*
X328000Y284500D02*
Y290498D01*
X330999D01*
X331999Y289498D01*
Y287499D01*
X330999Y286499D01*
X328000D01*
X329999D02*
X331999Y284500D01*
X336997D02*
Y290498D01*
X333998Y287499D01*
X337997D01*
X327500Y145000D02*
Y150998D01*
X330499D01*
X331499Y149998D01*
Y147999D01*
X330499Y146999D01*
X327500D01*
X329499D02*
X331499Y145000D01*
X333498Y149998D02*
X334498Y150998D01*
X336497D01*
X337497Y149998D01*
Y148999D01*
X336497Y147999D01*
X335497D01*
X336497D01*
X337497Y146999D01*
Y146000D01*
X336497Y145000D01*
X334498D01*
X333498Y146000D01*
X249000Y116000D02*
Y121998D01*
X251999D01*
X252999Y120998D01*
Y118999D01*
X251999Y117999D01*
X249000D01*
X250999D02*
X252999Y116000D01*
X258997D02*
X254998D01*
X258997Y119999D01*
Y120998D01*
X257997Y121998D01*
X255998D01*
X254998Y120998D01*
X170500Y116000D02*
Y121998D01*
X173499D01*
X174499Y120998D01*
Y118999D01*
X173499Y117999D01*
X170500D01*
X172499D02*
X174499Y116000D01*
X176498D02*
X178497D01*
X177498D01*
Y121998D01*
X176498Y120998D01*
X297100Y138900D02*
Y144898D01*
X300099D01*
X301099Y143898D01*
Y141899D01*
X300099Y140899D01*
X297100D01*
X303098Y138900D02*
X305097D01*
X304098D01*
Y144898D01*
X303098Y143898D01*
X127500Y162498D02*
Y156500D01*
X130499D01*
X131499Y157500D01*
Y161498D01*
X130499Y162498D01*
X127500D01*
X133498Y161498D02*
X134498Y162498D01*
X136497D01*
X137497Y161498D01*
Y160499D01*
X136497Y159499D01*
X137497Y158499D01*
Y157500D01*
X136497Y156500D01*
X134498D01*
X133498Y157500D01*
Y158499D01*
X134498Y159499D01*
X133498Y160499D01*
Y161498D01*
X134498Y159499D02*
X136497D01*
X130500Y305498D02*
Y299500D01*
X133499D01*
X134499Y300500D01*
Y304498D01*
X133499Y305498D01*
X130500D01*
X136498D02*
X140497D01*
Y304498D01*
X136498Y300500D01*
Y299500D01*
X186040Y342598D02*
Y336600D01*
X189039D01*
X190039Y337600D01*
Y341598D01*
X189039Y342598D01*
X186040D01*
X196037D02*
X194038Y341598D01*
X192038Y339599D01*
Y337600D01*
X193038Y336600D01*
X195037D01*
X196037Y337600D01*
Y338599D01*
X195037Y339599D01*
X192038D01*
X264800Y342598D02*
Y336600D01*
X267799D01*
X268799Y337600D01*
Y341598D01*
X267799Y342598D01*
X264800D01*
X274797D02*
X270798D01*
Y339599D01*
X272797Y340599D01*
X273797D01*
X274797Y339599D01*
Y337600D01*
X273797Y336600D01*
X271798D01*
X270798Y337600D01*
X327811Y298998D02*
Y293000D01*
X330810D01*
X331810Y294000D01*
Y297998D01*
X330810Y298998D01*
X327811D01*
X336808Y293000D02*
Y298998D01*
X333809Y295999D01*
X337808D01*
X327500Y158998D02*
Y153000D01*
X330499D01*
X331499Y154000D01*
Y157998D01*
X330499Y158998D01*
X327500D01*
X333498Y157998D02*
X334498Y158998D01*
X336497D01*
X337497Y157998D01*
Y156999D01*
X336497Y155999D01*
X335497D01*
X336497D01*
X337497Y154999D01*
Y154000D01*
X336497Y153000D01*
X334498D01*
X333498Y154000D01*
X266000Y121998D02*
Y116000D01*
X268999D01*
X269999Y117000D01*
Y120998D01*
X268999Y121998D01*
X266000D01*
X275997Y116000D02*
X271998D01*
X275997Y119999D01*
Y120998D01*
X274997Y121998D01*
X272998D01*
X271998Y120998D01*
X188000Y121998D02*
Y116000D01*
X190999D01*
X191999Y117000D01*
Y120998D01*
X190999Y121998D01*
X188000D01*
X193998Y116000D02*
X195997D01*
X194998D01*
Y121998D01*
X193998Y120998D01*
M02*
