G04*
G04 #@! TF.GenerationSoftware,Altium Limited,Altium Designer,19.0.10 (269)*
G04*
G04 Layer_Color=8388736*
%FSLAX25Y25*%
%MOIN*%
G70*
G01*
G75*
%ADD16R,0.05328X0.05918*%
G04:AMPARAMS|DCode=17|XSize=47.37mil|YSize=63.91mil|CornerRadius=8.92mil|HoleSize=0mil|Usage=FLASHONLY|Rotation=270.000|XOffset=0mil|YOffset=0mil|HoleType=Round|Shape=RoundedRectangle|*
%AMROUNDEDRECTD17*
21,1,0.04737,0.04606,0,0,270.0*
21,1,0.02953,0.06391,0,0,270.0*
1,1,0.01784,-0.02303,-0.01476*
1,1,0.01784,-0.02303,0.01476*
1,1,0.01784,0.02303,0.01476*
1,1,0.01784,0.02303,-0.01476*
%
%ADD17ROUNDEDRECTD17*%
G04:AMPARAMS|DCode=18|XSize=91.86mil|YSize=69.81mil|CornerRadius=19.45mil|HoleSize=0mil|Usage=FLASHONLY|Rotation=90.000|XOffset=0mil|YOffset=0mil|HoleType=Round|Shape=RoundedRectangle|*
%AMROUNDEDRECTD18*
21,1,0.09186,0.03091,0,0,90.0*
21,1,0.05295,0.06981,0,0,90.0*
1,1,0.03891,0.01545,0.02648*
1,1,0.03891,0.01545,-0.02648*
1,1,0.03891,-0.01545,-0.02648*
1,1,0.03891,-0.01545,0.02648*
%
%ADD18ROUNDEDRECTD18*%
%ADD19R,0.08674X0.14973*%
G04:AMPARAMS|DCode=20|XSize=47.37mil|YSize=63.91mil|CornerRadius=8.92mil|HoleSize=0mil|Usage=FLASHONLY|Rotation=180.000|XOffset=0mil|YOffset=0mil|HoleType=Round|Shape=RoundedRectangle|*
%AMROUNDEDRECTD20*
21,1,0.04737,0.04606,0,0,180.0*
21,1,0.02953,0.06391,0,0,180.0*
1,1,0.01784,-0.01476,0.02303*
1,1,0.01784,0.01476,0.02303*
1,1,0.01784,0.01476,-0.02303*
1,1,0.01784,-0.01476,-0.02303*
%
%ADD20ROUNDEDRECTD20*%
%ADD21R,0.14973X0.11036*%
%ADD22R,0.43100X0.33500*%
%ADD23R,0.04900X0.16700*%
%ADD24R,0.32296X0.43477*%
G04:AMPARAMS|DCode=25|XSize=156.82mil|YSize=49.73mil|CornerRadius=9.22mil|HoleSize=0mil|Usage=FLASHONLY|Rotation=0.000|XOffset=0mil|YOffset=0mil|HoleType=Round|Shape=RoundedRectangle|*
%AMROUNDEDRECTD25*
21,1,0.15682,0.03130,0,0,0.0*
21,1,0.13839,0.04973,0,0,0.0*
1,1,0.01843,0.06919,-0.01565*
1,1,0.01843,-0.06919,-0.01565*
1,1,0.01843,-0.06919,0.01565*
1,1,0.01843,0.06919,0.01565*
%
%ADD25ROUNDEDRECTD25*%
%ADD26R,0.08674X0.16942*%
%ADD27R,0.26391X0.10642*%
%ADD28C,0.16548*%
%ADD29C,0.05595*%
%ADD30R,0.05595X0.05595*%
%ADD31R,0.06737X0.06737*%
%ADD32C,0.06737*%
%ADD33R,0.06737X0.06737*%
%ADD34C,0.07296*%
%ADD35R,0.07296X0.07296*%
%ADD36C,0.07001*%
%ADD37R,0.07001X0.07001*%
%ADD38C,0.08477*%
%ADD39R,0.08477X0.08477*%
%ADD40C,0.04737*%
D16*
X256429Y490000D02*
D03*
X247571D02*
D03*
X236429D02*
D03*
X227571D02*
D03*
X215929D02*
D03*
X207071D02*
D03*
X183642Y354000D02*
D03*
X192500D02*
D03*
X261071Y284000D02*
D03*
X269929D02*
D03*
X261071Y293000D02*
D03*
X269929D02*
D03*
X298571Y485000D02*
D03*
X307429D02*
D03*
X298571Y476000D02*
D03*
X307429D02*
D03*
X192429Y345000D02*
D03*
X183571D02*
D03*
X307429Y467000D02*
D03*
X298571D02*
D03*
X206358Y336000D02*
D03*
X197500D02*
D03*
X269929Y302000D02*
D03*
X261071D02*
D03*
D17*
X256500Y481681D02*
D03*
Y474319D02*
D03*
X247500Y481681D02*
D03*
Y474319D02*
D03*
X236500Y481681D02*
D03*
Y474319D02*
D03*
X227681Y481681D02*
D03*
Y474319D02*
D03*
X216000Y481681D02*
D03*
Y474319D02*
D03*
X207000Y481681D02*
D03*
Y474319D02*
D03*
X282000Y287681D02*
D03*
Y280319D02*
D03*
Y302681D02*
D03*
Y295319D02*
D03*
D18*
X246500Y461890D02*
D03*
X256500D02*
D03*
Y428110D02*
D03*
X246500D02*
D03*
X226500Y461890D02*
D03*
X236500D02*
D03*
Y428110D02*
D03*
X226500D02*
D03*
X206000Y461890D02*
D03*
X216000D02*
D03*
Y428110D02*
D03*
X206000D02*
D03*
X229000Y282610D02*
D03*
X219000D02*
D03*
Y316390D02*
D03*
X229000D02*
D03*
X205500Y282610D02*
D03*
X195500D02*
D03*
Y316390D02*
D03*
X205500D02*
D03*
X182000Y282610D02*
D03*
X172000D02*
D03*
Y316390D02*
D03*
X182000D02*
D03*
D19*
X297386Y347500D02*
D03*
X270614D02*
D03*
D20*
X227681Y272000D02*
D03*
X220319D02*
D03*
X204181D02*
D03*
X196819D02*
D03*
X180681D02*
D03*
X173319D02*
D03*
X192319Y405000D02*
D03*
X199681D02*
D03*
X182181Y327000D02*
D03*
X174819D02*
D03*
X229181Y326500D02*
D03*
X221819D02*
D03*
X219681Y336000D02*
D03*
X212319D02*
D03*
X205681Y327000D02*
D03*
X198319D02*
D03*
X205181Y345000D02*
D03*
X197819D02*
D03*
X205181Y354000D02*
D03*
X197819D02*
D03*
X280638Y485000D02*
D03*
X288000D02*
D03*
X280819Y476000D02*
D03*
X288181D02*
D03*
X280638Y467000D02*
D03*
X288000D02*
D03*
X318319Y485000D02*
D03*
X325681D02*
D03*
X318319Y476000D02*
D03*
X325681D02*
D03*
X318319Y467000D02*
D03*
X325681D02*
D03*
X243319Y284000D02*
D03*
X250681D02*
D03*
X243319Y293000D02*
D03*
X250681D02*
D03*
X243319Y302000D02*
D03*
X250681D02*
D03*
D21*
X284000Y369331D02*
D03*
Y410669D02*
D03*
D22*
X231500Y392729D02*
D03*
D23*
X244886Y351579D02*
D03*
X238193D02*
D03*
X231500D02*
D03*
X224807D02*
D03*
X218114D02*
D03*
D24*
X341500Y287500D02*
D03*
D25*
X299413Y297500D02*
D03*
Y277500D02*
D03*
D26*
X335000Y382374D02*
D03*
Y416626D02*
D03*
D27*
X168035Y366500D02*
D03*
X118823D02*
D03*
D28*
X346000Y254500D02*
D03*
X113500D02*
D03*
X346000Y486500D02*
D03*
X162286Y438500D02*
D03*
D29*
X154000Y417000D02*
D03*
X164000D02*
D03*
D30*
X174000D02*
D03*
D31*
X142500Y309500D02*
D03*
D32*
Y299658D02*
D03*
Y289815D02*
D03*
Y279972D02*
D03*
X168500Y463000D02*
D03*
X158658D02*
D03*
X148815D02*
D03*
D33*
X178342D02*
D03*
D34*
X277000Y318000D02*
D03*
X287000D02*
D03*
X297000D02*
D03*
X307000D02*
D03*
X317000D02*
D03*
X327000D02*
D03*
X337000D02*
D03*
Y444500D02*
D03*
X327000D02*
D03*
X317000D02*
D03*
X307000D02*
D03*
X297000D02*
D03*
X287000D02*
D03*
X277000D02*
D03*
D35*
X347000Y318000D02*
D03*
Y444500D02*
D03*
D36*
X327067Y346579D02*
D03*
D37*
Y356421D02*
D03*
D38*
X119500Y486000D02*
D03*
X119000Y438221D02*
D03*
D39*
X119500Y466000D02*
D03*
X119000Y418221D02*
D03*
D40*
X293376Y476000D02*
D03*
X250000Y407000D02*
D03*
X243529D02*
D03*
X237500D02*
D03*
X231538D02*
D03*
X225455D02*
D03*
X213462D02*
D03*
X219500D02*
D03*
X352500Y269500D02*
D03*
X341500D02*
D03*
X331000D02*
D03*
X352500Y278500D02*
D03*
X341500D02*
D03*
X331000D02*
D03*
X352500Y287500D02*
D03*
X341500D02*
D03*
X331000D02*
D03*
X352500Y296000D02*
D03*
X341500D02*
D03*
X331000D02*
D03*
X352500Y303500D02*
D03*
X341500D02*
D03*
X331000D02*
D03*
X250000Y381000D02*
D03*
X243500D02*
D03*
X237500D02*
D03*
X231500D02*
D03*
X225500D02*
D03*
X219504D02*
D03*
X250000Y387500D02*
D03*
X243500D02*
D03*
X237500D02*
D03*
X231500D02*
D03*
X225500D02*
D03*
X219500D02*
D03*
X250000Y394000D02*
D03*
X243500D02*
D03*
X237500D02*
D03*
X231500D02*
D03*
X225500D02*
D03*
X219500D02*
D03*
X250000Y400500D02*
D03*
X243500D02*
D03*
X237500D02*
D03*
X231500D02*
D03*
X225500D02*
D03*
X219504D02*
D03*
X213587Y381000D02*
D03*
Y387500D02*
D03*
X213500Y394000D02*
D03*
X213587Y400500D02*
D03*
X192500Y336000D02*
D03*
X238000Y302000D02*
D03*
Y293000D02*
D03*
Y283500D02*
D03*
X261500Y340500D02*
D03*
M02*
