G04*
G04 #@! TF.GenerationSoftware,Altium Limited,Altium Designer,19.0.10 (269)*
G04*
G04 Layer_Physical_Order=1*
G04 Layer_Color=255*
%FSLAX25Y25*%
%MOIN*%
G70*
G01*
G75*
%ADD15C,0.01000*%
%ADD41R,0.04528X0.05118*%
G04:AMPARAMS|DCode=42|XSize=39.37mil|YSize=55.91mil|CornerRadius=4.92mil|HoleSize=0mil|Usage=FLASHONLY|Rotation=270.000|XOffset=0mil|YOffset=0mil|HoleType=Round|Shape=RoundedRectangle|*
%AMROUNDEDRECTD42*
21,1,0.03937,0.04606,0,0,270.0*
21,1,0.02953,0.05591,0,0,270.0*
1,1,0.00984,-0.02303,-0.01476*
1,1,0.00984,-0.02303,0.01476*
1,1,0.00984,0.02303,0.01476*
1,1,0.00984,0.02303,-0.01476*
%
%ADD42ROUNDEDRECTD42*%
G04:AMPARAMS|DCode=43|XSize=83.86mil|YSize=61.81mil|CornerRadius=15.45mil|HoleSize=0mil|Usage=FLASHONLY|Rotation=90.000|XOffset=0mil|YOffset=0mil|HoleType=Round|Shape=RoundedRectangle|*
%AMROUNDEDRECTD43*
21,1,0.08386,0.03091,0,0,90.0*
21,1,0.05295,0.06181,0,0,90.0*
1,1,0.03091,0.01545,0.02648*
1,1,0.03091,0.01545,-0.02648*
1,1,0.03091,-0.01545,-0.02648*
1,1,0.03091,-0.01545,0.02648*
%
%ADD43ROUNDEDRECTD43*%
%ADD44R,0.07874X0.14173*%
G04:AMPARAMS|DCode=45|XSize=39.37mil|YSize=55.91mil|CornerRadius=4.92mil|HoleSize=0mil|Usage=FLASHONLY|Rotation=180.000|XOffset=0mil|YOffset=0mil|HoleType=Round|Shape=RoundedRectangle|*
%AMROUNDEDRECTD45*
21,1,0.03937,0.04606,0,0,180.0*
21,1,0.02953,0.05591,0,0,180.0*
1,1,0.00984,-0.01476,0.02303*
1,1,0.00984,0.01476,0.02303*
1,1,0.00984,0.01476,-0.02303*
1,1,0.00984,-0.01476,-0.02303*
%
%ADD45ROUNDEDRECTD45*%
%ADD46R,0.14173X0.10236*%
%ADD47R,0.42300X0.32700*%
%ADD48R,0.04100X0.15900*%
%ADD49R,0.31496X0.42677*%
G04:AMPARAMS|DCode=50|XSize=148.82mil|YSize=41.73mil|CornerRadius=5.22mil|HoleSize=0mil|Usage=FLASHONLY|Rotation=0.000|XOffset=0mil|YOffset=0mil|HoleType=Round|Shape=RoundedRectangle|*
%AMROUNDEDRECTD50*
21,1,0.14882,0.03130,0,0,0.0*
21,1,0.13839,0.04173,0,0,0.0*
1,1,0.01043,0.06919,-0.01565*
1,1,0.01043,-0.06919,-0.01565*
1,1,0.01043,-0.06919,0.01565*
1,1,0.01043,0.06919,0.01565*
%
%ADD50ROUNDEDRECTD50*%
%ADD51R,0.07874X0.16142*%
%ADD52R,0.25591X0.09843*%
%ADD53C,0.02000*%
%ADD54C,0.15748*%
%ADD55C,0.04795*%
%ADD56R,0.04795X0.04795*%
%ADD57R,0.05937X0.05937*%
%ADD58C,0.05937*%
%ADD59R,0.05937X0.05937*%
%ADD60C,0.06496*%
%ADD61R,0.06496X0.06496*%
%ADD62C,0.06201*%
%ADD63R,0.06201X0.06201*%
%ADD64C,0.07677*%
%ADD65R,0.07677X0.07677*%
%ADD66C,0.03937*%
G36*
X361500Y314500D02*
X358039D01*
Y322500D01*
X357884Y323280D01*
X357442Y323942D01*
X333363Y348021D01*
X332702Y348463D01*
X331921Y348618D01*
X330661D01*
X330649Y348647D01*
X329991Y349503D01*
X329135Y350160D01*
X328137Y350574D01*
X327067Y350714D01*
X325996Y350574D01*
X324999Y350160D01*
X324143Y349503D01*
X323485Y348647D01*
X323072Y347649D01*
X322931Y346579D01*
X323072Y345508D01*
X323485Y344511D01*
X324143Y343654D01*
X324999Y342997D01*
X325996Y342584D01*
X327067Y342443D01*
X328137Y342584D01*
X329135Y342997D01*
X329991Y343654D01*
X330610Y344460D01*
X331121Y344494D01*
X331122Y344494D01*
X353961Y321655D01*
Y314500D01*
X351248D01*
Y322248D01*
X342752D01*
Y314500D01*
X340189D01*
X340087Y314802D01*
X340053Y315000D01*
X340711Y315858D01*
X341139Y316891D01*
X341285Y318000D01*
X341139Y319109D01*
X340711Y320142D01*
X340030Y321030D01*
X339142Y321711D01*
X338109Y322139D01*
X337000Y322285D01*
X335891Y322139D01*
X334858Y321711D01*
X333970Y321030D01*
X333289Y320142D01*
X332861Y319109D01*
X332715Y318000D01*
X332861Y316891D01*
X333289Y315858D01*
X333947Y315000D01*
X333913Y314802D01*
X333811Y314500D01*
X330189D01*
X330087Y314802D01*
X330053Y315000D01*
X330711Y315858D01*
X331139Y316891D01*
X331285Y318000D01*
X331139Y319109D01*
X330711Y320142D01*
X330030Y321030D01*
X329142Y321711D01*
X328109Y322139D01*
X327000Y322285D01*
X325891Y322139D01*
X324858Y321711D01*
X323970Y321030D01*
X323289Y320142D01*
X322861Y319109D01*
X322715Y318000D01*
X322861Y316891D01*
X323289Y315858D01*
X323947Y315000D01*
X323913Y314802D01*
X323811Y314500D01*
X320189D01*
X320087Y314802D01*
X320053Y315000D01*
X320711Y315858D01*
X321139Y316891D01*
X321285Y318000D01*
X321139Y319109D01*
X320711Y320142D01*
X320030Y321030D01*
X319142Y321711D01*
X318109Y322139D01*
X317000Y322285D01*
X315891Y322139D01*
X314858Y321711D01*
X313970Y321030D01*
X313289Y320142D01*
X312861Y319109D01*
X312715Y318000D01*
X312861Y316891D01*
X313289Y315858D01*
X313947Y315000D01*
X313913Y314802D01*
X313811Y314500D01*
X310189D01*
X310087Y314802D01*
X310053Y315000D01*
X310711Y315858D01*
X311139Y316891D01*
X311285Y318000D01*
X311139Y319109D01*
X310711Y320142D01*
X310030Y321030D01*
X309142Y321711D01*
X308109Y322139D01*
X307000Y322285D01*
X305891Y322139D01*
X304858Y321711D01*
X303970Y321030D01*
X303289Y320142D01*
X302861Y319109D01*
X302715Y318000D01*
X302861Y316891D01*
X303289Y315858D01*
X303970Y314970D01*
X304858Y314289D01*
X305471Y314036D01*
Y313134D01*
X303867Y311529D01*
X287000D01*
X286415Y311413D01*
X285919Y311081D01*
X282722Y307885D01*
X282390Y307388D01*
X282274Y306803D01*
Y305679D01*
X279697D01*
X279115Y305563D01*
X278621Y305233D01*
X278291Y304740D01*
X278175Y304157D01*
Y301205D01*
X278291Y300623D01*
X278621Y300129D01*
X279115Y299799D01*
X279697Y299683D01*
X284303D01*
X284885Y299799D01*
X285379Y300129D01*
X285709Y300623D01*
X285824Y301205D01*
Y304157D01*
X285709Y304740D01*
X285379Y305233D01*
X285332Y305264D01*
Y306170D01*
X287633Y308471D01*
X304500D01*
X305085Y308587D01*
X305581Y308919D01*
X306538Y309875D01*
X307000Y309684D01*
Y300993D01*
X306500Y300583D01*
X306333Y300616D01*
X292494D01*
X291900Y300498D01*
X291397Y300162D01*
X291061Y299659D01*
X290943Y299065D01*
Y296547D01*
X287926Y293529D01*
X286082D01*
X285824Y293843D01*
Y296795D01*
X285709Y297377D01*
X285379Y297871D01*
X284885Y298201D01*
X284303Y298317D01*
X279697D01*
X279115Y298201D01*
X278621Y297871D01*
X278291Y297377D01*
X278175Y296795D01*
Y293843D01*
X278291Y293260D01*
X278621Y292767D01*
X279115Y292437D01*
X279697Y292321D01*
X280471D01*
Y290679D01*
X279697D01*
X279115Y290563D01*
X278621Y290233D01*
X278291Y289740D01*
X278175Y289158D01*
Y286205D01*
X278291Y285623D01*
X278621Y285129D01*
X279115Y284799D01*
X279697Y284683D01*
X284303D01*
X284885Y284799D01*
X285379Y285129D01*
X285709Y285623D01*
X285824Y286205D01*
Y289158D01*
X285709Y289740D01*
X285554Y289971D01*
X285822Y290471D01*
X288559D01*
X289144Y290587D01*
X289640Y290919D01*
X293106Y294384D01*
X306333D01*
X306500Y294417D01*
X307000Y294006D01*
Y280994D01*
X306500Y280583D01*
X306333Y280616D01*
X299913D01*
Y277500D01*
Y274384D01*
X306333D01*
X306500Y274417D01*
X307000Y274007D01*
Y263500D01*
X99500D01*
Y500000D01*
X361500D01*
Y314500D01*
D02*
G37*
%LPC*%
G36*
X250835Y493559D02*
X248071D01*
Y490500D01*
X250835D01*
Y493559D01*
D02*
G37*
G36*
X247071D02*
X244307D01*
Y490500D01*
X247071D01*
Y493559D01*
D02*
G37*
G36*
X319795Y488825D02*
X316843D01*
X316260Y488709D01*
X315767Y488379D01*
X315437Y487885D01*
X315321Y487303D01*
Y486529D01*
X310693D01*
Y488559D01*
X304165D01*
Y481441D01*
X310693D01*
Y483471D01*
X315321D01*
Y482697D01*
X315437Y482115D01*
X315767Y481621D01*
X316260Y481291D01*
X316843Y481176D01*
X319795D01*
X320377Y481291D01*
X320871Y481621D01*
X321201Y482115D01*
X321317Y482697D01*
Y487303D01*
X321201Y487885D01*
X320871Y488379D01*
X320377Y488709D01*
X319795Y488825D01*
D02*
G37*
G36*
X120000Y490814D02*
Y486500D01*
X124314D01*
X124214Y487263D01*
X123726Y488440D01*
X122951Y489451D01*
X121940Y490227D01*
X120763Y490714D01*
X120000Y490814D01*
D02*
G37*
G36*
X119000D02*
X118237Y490714D01*
X117060Y490227D01*
X116049Y489451D01*
X115273Y488440D01*
X114786Y487263D01*
X114685Y486500D01*
X119000D01*
Y490814D01*
D02*
G37*
G36*
X250835Y489500D02*
X248071D01*
Y486441D01*
X250835D01*
Y489500D01*
D02*
G37*
G36*
X247071D02*
X244307D01*
Y486441D01*
X247071D01*
Y489500D01*
D02*
G37*
G36*
X327157Y488825D02*
X326181D01*
Y485500D01*
X328679D01*
Y487303D01*
X328563Y487885D01*
X328233Y488379D01*
X327740Y488709D01*
X327157Y488825D01*
D02*
G37*
G36*
X325181D02*
X324205D01*
X323622Y488709D01*
X323129Y488379D01*
X322799Y487885D01*
X322683Y487303D01*
Y485500D01*
X325181D01*
Y488825D01*
D02*
G37*
G36*
X249803Y484679D02*
X248000D01*
Y482181D01*
X251325D01*
Y483157D01*
X251209Y483740D01*
X250879Y484233D01*
X250385Y484563D01*
X249803Y484679D01*
D02*
G37*
G36*
X124314Y485500D02*
X120000D01*
Y481185D01*
X120763Y481286D01*
X121940Y481774D01*
X122951Y482549D01*
X123726Y483560D01*
X124214Y484737D01*
X124314Y485500D01*
D02*
G37*
G36*
X119000D02*
X114685D01*
X114786Y484737D01*
X115273Y483560D01*
X116049Y482549D01*
X117060Y481774D01*
X118237Y481286D01*
X119000Y481185D01*
Y485500D01*
D02*
G37*
G36*
X328679Y484500D02*
X326181D01*
Y481176D01*
X327157D01*
X327740Y481291D01*
X328233Y481621D01*
X328563Y482115D01*
X328679Y482697D01*
Y484500D01*
D02*
G37*
G36*
X325181D02*
X322683D01*
Y482697D01*
X322799Y482115D01*
X323129Y481621D01*
X323622Y481291D01*
X324205Y481176D01*
X325181D01*
Y484500D01*
D02*
G37*
G36*
X282114Y488825D02*
X279161D01*
X278579Y488709D01*
X278086Y488379D01*
X277756Y487885D01*
X277640Y487303D01*
Y486529D01*
X267000D01*
X266415Y486413D01*
X265919Y486081D01*
X261919Y482081D01*
X261587Y481585D01*
X261471Y481000D01*
Y444134D01*
X260367Y443029D01*
X207500D01*
X206915Y442913D01*
X206419Y442581D01*
X204919Y441081D01*
X204587Y440585D01*
X204471Y440000D01*
Y433353D01*
X204455D01*
X203462Y433155D01*
X202620Y432593D01*
X202057Y431751D01*
X201860Y430758D01*
Y425463D01*
X202057Y424470D01*
X202620Y423628D01*
X203462Y423065D01*
X204455Y422867D01*
X207545D01*
X208538Y423065D01*
X209380Y423628D01*
X209943Y424470D01*
X210140Y425463D01*
Y430758D01*
X209943Y431751D01*
X209380Y432593D01*
X208538Y433155D01*
X207545Y433353D01*
X207529D01*
Y439366D01*
X208134Y439971D01*
X225654D01*
X225846Y439509D01*
X225419Y439081D01*
X225087Y438585D01*
X224971Y438000D01*
Y433353D01*
X224955D01*
X223962Y433155D01*
X223120Y432593D01*
X222557Y431751D01*
X222360Y430758D01*
Y425463D01*
X222557Y424470D01*
X223120Y423628D01*
X223962Y423065D01*
X224955Y422867D01*
X228045D01*
X229038Y423065D01*
X229880Y423628D01*
X230443Y424470D01*
X230640Y425463D01*
Y430758D01*
X230443Y431751D01*
X229880Y432593D01*
X229038Y433155D01*
X228045Y433353D01*
X228029D01*
Y437366D01*
X228633Y437971D01*
X246654D01*
X246846Y437509D01*
X245419Y436081D01*
X245087Y435585D01*
X244971Y435000D01*
Y433353D01*
X244955D01*
X243962Y433155D01*
X243120Y432593D01*
X242557Y431751D01*
X242360Y430758D01*
Y425463D01*
X242557Y424470D01*
X243120Y423628D01*
X243962Y423065D01*
X244955Y422867D01*
X248045D01*
X249038Y423065D01*
X249880Y423628D01*
X250443Y424470D01*
X250640Y425463D01*
Y430758D01*
X250443Y431751D01*
X249880Y432593D01*
X249038Y433155D01*
X248045Y433353D01*
X248029D01*
Y434367D01*
X249634Y435971D01*
X263000D01*
X263585Y436087D01*
X264081Y436419D01*
X268081Y440418D01*
X268413Y440915D01*
X268529Y441500D01*
Y462752D01*
X271248Y465471D01*
X277640D01*
Y464697D01*
X277756Y464115D01*
X278086Y463621D01*
X278579Y463291D01*
X279161Y463175D01*
X282114D01*
X282696Y463291D01*
X283190Y463621D01*
X283520Y464115D01*
X283635Y464697D01*
Y469303D01*
X283520Y469885D01*
X283190Y470379D01*
X282696Y470709D01*
X282114Y470824D01*
X279161D01*
X278579Y470709D01*
X278086Y470379D01*
X277756Y469885D01*
X277640Y469303D01*
Y468529D01*
X270614D01*
X270029Y468413D01*
X269533Y468081D01*
X266991Y465540D01*
X266529Y465731D01*
Y471867D01*
X269133Y474471D01*
X277821D01*
Y473697D01*
X277937Y473115D01*
X278267Y472621D01*
X278760Y472291D01*
X279343Y472176D01*
X282295D01*
X282877Y472291D01*
X283371Y472621D01*
X283701Y473115D01*
X283817Y473697D01*
Y478303D01*
X283701Y478885D01*
X283371Y479379D01*
X282877Y479709D01*
X282295Y479824D01*
X279343D01*
X278760Y479709D01*
X278267Y479379D01*
X277937Y478885D01*
X277821Y478303D01*
Y477529D01*
X268500D01*
X267915Y477413D01*
X267419Y477081D01*
X264991Y474654D01*
X264529Y474846D01*
Y480367D01*
X267634Y483471D01*
X277640D01*
Y482697D01*
X277756Y482115D01*
X278086Y481621D01*
X278579Y481291D01*
X279161Y481176D01*
X282114D01*
X282696Y481291D01*
X283190Y481621D01*
X283520Y482115D01*
X283635Y482697D01*
Y487303D01*
X283520Y487885D01*
X283190Y488379D01*
X282696Y488709D01*
X282114Y488825D01*
D02*
G37*
G36*
X259693Y493559D02*
X253165D01*
Y486441D01*
X254900D01*
Y484679D01*
X254197D01*
X253615Y484563D01*
X253121Y484233D01*
X252791Y483740D01*
X252676Y483157D01*
Y480205D01*
X252791Y479623D01*
X253121Y479129D01*
X253615Y478799D01*
X254197Y478683D01*
X258803D01*
X259385Y478799D01*
X259879Y479129D01*
X260209Y479623D01*
X260325Y480205D01*
Y483157D01*
X260209Y483740D01*
X259879Y484233D01*
X259385Y484563D01*
X258803Y484679D01*
X257959D01*
Y486441D01*
X259693D01*
Y493559D01*
D02*
G37*
G36*
X251325Y481181D02*
X248000D01*
Y478683D01*
X249803D01*
X250385Y478799D01*
X250879Y479129D01*
X251209Y479623D01*
X251325Y480205D01*
Y481181D01*
D02*
G37*
G36*
X240500Y497529D02*
X202000D01*
X201415Y497413D01*
X200919Y497081D01*
X198419Y494581D01*
X198087Y494085D01*
X197971Y493500D01*
Y471529D01*
X138500D01*
X137915Y471413D01*
X137419Y471081D01*
X134419Y468081D01*
X134087Y467585D01*
X133971Y467000D01*
Y435354D01*
X121676Y423059D01*
X114161D01*
Y413382D01*
X116961D01*
Y372421D01*
X105028D01*
Y360579D01*
X132618D01*
Y369537D01*
X137541Y374461D01*
X186655D01*
X195058Y366058D01*
X195720Y365616D01*
X196500Y365461D01*
X214085D01*
X216075Y363470D01*
Y360529D01*
X215064D01*
Y342629D01*
X221164D01*
Y360529D01*
X220153D01*
Y364315D01*
X220153Y364315D01*
X219998Y365095D01*
X219556Y365757D01*
X217314Y367999D01*
X217505Y368461D01*
X220655D01*
X222461Y366655D01*
Y360529D01*
X221757D01*
Y342629D01*
X227857D01*
Y360529D01*
X226539D01*
Y367500D01*
X226384Y368280D01*
X225942Y368942D01*
X223875Y371009D01*
X224066Y371471D01*
X233366D01*
X236664Y368174D01*
Y360529D01*
X235143D01*
Y342629D01*
X241243D01*
Y360529D01*
X239722D01*
Y368807D01*
X239606Y369392D01*
X239274Y369888D01*
X235081Y374081D01*
X234585Y374413D01*
X234000Y374529D01*
X199669D01*
X193848Y380350D01*
Y401186D01*
X194378Y401291D01*
X194871Y401621D01*
X195201Y402115D01*
X195317Y402697D01*
Y407303D01*
X195201Y407885D01*
X194871Y408379D01*
X194378Y408709D01*
X193795Y408824D01*
X190851D01*
X190850Y408825D01*
X190657D01*
X181400Y418081D01*
X180904Y418413D01*
X180319Y418529D01*
X177398D01*
Y420398D01*
X170602D01*
Y418529D01*
X167044D01*
X166968Y418714D01*
X166423Y419423D01*
X165714Y419968D01*
X164887Y420310D01*
X164000Y420427D01*
X163113Y420310D01*
X162286Y419968D01*
X161577Y419423D01*
X161032Y418714D01*
X160690Y417887D01*
X160573Y417000D01*
X160690Y416113D01*
X161032Y415286D01*
X161577Y414577D01*
X162286Y414032D01*
X163113Y413690D01*
X164000Y413573D01*
X164887Y413690D01*
X165714Y414032D01*
X166423Y414577D01*
X166968Y415286D01*
X167044Y415471D01*
X170602D01*
Y413602D01*
X177398D01*
Y415471D01*
X179685D01*
X188942Y406214D01*
X189321Y405961D01*
Y402697D01*
X189437Y402115D01*
X189767Y401621D01*
X190260Y401291D01*
X190789Y401186D01*
Y381248D01*
X190328Y381056D01*
X189942Y381442D01*
X189280Y381884D01*
X188500Y382039D01*
X159345D01*
X156039Y385345D01*
Y414282D01*
X156423Y414577D01*
X156968Y415286D01*
X157310Y416113D01*
X157427Y417000D01*
X157310Y417887D01*
X156968Y418714D01*
X156423Y419423D01*
X155713Y419968D01*
X154887Y420310D01*
X154000Y420427D01*
X153113Y420310D01*
X152287Y419968D01*
X151577Y419423D01*
X151032Y418714D01*
X150690Y417887D01*
X150573Y417000D01*
X150690Y416113D01*
X151032Y415286D01*
X151577Y414577D01*
X151961Y414282D01*
Y384500D01*
X152116Y383720D01*
X152558Y383058D01*
X156577Y379039D01*
X156370Y378539D01*
X136697D01*
X136697Y378539D01*
X135916Y378384D01*
X135255Y377942D01*
X135255Y377942D01*
X129734Y372421D01*
X121039D01*
Y413382D01*
X123839D01*
Y420896D01*
X136581Y433639D01*
X136913Y434135D01*
X137029Y434721D01*
Y466366D01*
X139134Y468471D01*
X198866D01*
X202016Y465322D01*
X201860Y464537D01*
Y459242D01*
X202057Y458249D01*
X202620Y457407D01*
X203185Y457029D01*
X203033Y456529D01*
X180633D01*
X179872Y457291D01*
Y459031D01*
X182311D01*
Y466968D01*
X174374D01*
Y459031D01*
X176813D01*
Y456658D01*
X176929Y456072D01*
X177261Y455576D01*
X178346Y454491D01*
X178154Y454029D01*
X171634D01*
X170029Y455633D01*
Y459338D01*
X170501Y459534D01*
X171330Y460170D01*
X171967Y460999D01*
X172366Y461964D01*
X172503Y463000D01*
X172366Y464036D01*
X171967Y465001D01*
X171330Y465830D01*
X170501Y466467D01*
X169536Y466866D01*
X168500Y467003D01*
X167464Y466866D01*
X166499Y466467D01*
X165670Y465830D01*
X165033Y465001D01*
X164634Y464036D01*
X164497Y463000D01*
X164634Y461964D01*
X165033Y460999D01*
X165670Y460170D01*
X166499Y459534D01*
X166971Y459338D01*
Y455000D01*
X167087Y454415D01*
X167419Y453919D01*
X169346Y451991D01*
X169154Y451529D01*
X161949D01*
X160187Y453291D01*
Y459338D01*
X160659Y459534D01*
X161488Y460170D01*
X162124Y460999D01*
X162524Y461964D01*
X162660Y463000D01*
X162524Y464036D01*
X162124Y465001D01*
X161488Y465830D01*
X160659Y466467D01*
X159694Y466866D01*
X158658Y467003D01*
X157622Y466866D01*
X156656Y466467D01*
X155827Y465830D01*
X155191Y465001D01*
X154791Y464036D01*
X154655Y463000D01*
X154791Y461964D01*
X155191Y460999D01*
X155827Y460170D01*
X156656Y459534D01*
X157128Y459338D01*
Y452658D01*
X157245Y452072D01*
X157576Y451576D01*
X160233Y448919D01*
X160730Y448587D01*
X161315Y448471D01*
X254429D01*
X255014Y448587D01*
X255511Y448919D01*
X257511Y450919D01*
X257842Y451415D01*
X257959Y452000D01*
Y456647D01*
X258045D01*
X259038Y456845D01*
X259880Y457407D01*
X260443Y458249D01*
X260640Y459242D01*
Y464537D01*
X260443Y465530D01*
X259880Y466372D01*
X259038Y466935D01*
X258045Y467133D01*
X258029D01*
Y471321D01*
X258803D01*
X259385Y471437D01*
X259879Y471767D01*
X260209Y472260D01*
X260325Y472843D01*
Y475795D01*
X260209Y476377D01*
X259879Y476871D01*
X259385Y477201D01*
X258803Y477317D01*
X254197D01*
X253615Y477201D01*
X253121Y476871D01*
X252791Y476377D01*
X252686Y475848D01*
X251314D01*
X251209Y476377D01*
X250879Y476871D01*
X250385Y477201D01*
X249803Y477317D01*
X245197D01*
X244615Y477201D01*
X244121Y476871D01*
X244029Y476734D01*
X243529Y476886D01*
Y479114D01*
X244029Y479266D01*
X244121Y479129D01*
X244615Y478799D01*
X245197Y478683D01*
X247000D01*
Y481681D01*
Y484679D01*
X245197D01*
X244615Y484563D01*
X244121Y484233D01*
X244029Y484096D01*
X243529Y484248D01*
Y494500D01*
X243413Y495085D01*
X243081Y495581D01*
X241581Y497081D01*
X241085Y497413D01*
X240500Y497529D01*
D02*
G37*
G36*
X319795Y479824D02*
X316843D01*
X316260Y479709D01*
X315767Y479379D01*
X315437Y478885D01*
X315321Y478303D01*
Y477529D01*
X310693D01*
Y479559D01*
X304165D01*
Y472441D01*
X310693D01*
Y474471D01*
X315321D01*
Y473697D01*
X315437Y473115D01*
X315767Y472621D01*
X316260Y472291D01*
X316843Y472176D01*
X319795D01*
X320377Y472291D01*
X320871Y472621D01*
X321201Y473115D01*
X321317Y473697D01*
Y478303D01*
X321201Y478885D01*
X320871Y479379D01*
X320377Y479709D01*
X319795Y479824D01*
D02*
G37*
G36*
X327157D02*
X326181D01*
Y476500D01*
X328679D01*
Y478303D01*
X328563Y478885D01*
X328233Y479379D01*
X327740Y479709D01*
X327157Y479824D01*
D02*
G37*
G36*
X325181D02*
X324205D01*
X323622Y479709D01*
X323129Y479379D01*
X322799Y478885D01*
X322683Y478303D01*
Y476500D01*
X325181D01*
Y479824D01*
D02*
G37*
G36*
X289657D02*
X286705D01*
X286122Y479709D01*
X285629Y479379D01*
X285299Y478885D01*
X285183Y478303D01*
Y473697D01*
X285299Y473115D01*
X285629Y472621D01*
X286122Y472291D01*
X286705Y472176D01*
X289657D01*
X290240Y472291D01*
X290733Y472621D01*
X291063Y473115D01*
X291113Y473365D01*
X291664Y473572D01*
X291879Y473407D01*
X292601Y473108D01*
X293376Y473006D01*
X294151Y473108D01*
X294807Y473380D01*
X295307Y473188D01*
Y472441D01*
X301835D01*
Y479559D01*
X295307D01*
Y478812D01*
X294807Y478620D01*
X294151Y478892D01*
X293376Y478994D01*
X292601Y478892D01*
X291879Y478593D01*
X291664Y478428D01*
X291113Y478635D01*
X291063Y478885D01*
X290733Y479379D01*
X290240Y479709D01*
X289657Y479824D01*
D02*
G37*
G36*
X328679Y475500D02*
X326181D01*
Y472176D01*
X327157D01*
X327740Y472291D01*
X328233Y472621D01*
X328563Y473115D01*
X328679Y473697D01*
Y475500D01*
D02*
G37*
G36*
X325181D02*
X322683D01*
Y473697D01*
X322799Y473115D01*
X323129Y472621D01*
X323622Y472291D01*
X324205Y472176D01*
X325181D01*
Y475500D01*
D02*
G37*
G36*
X319795Y470824D02*
X316843D01*
X316260Y470709D01*
X315767Y470379D01*
X315437Y469885D01*
X315321Y469303D01*
Y468529D01*
X310693D01*
Y470559D01*
X304165D01*
Y463441D01*
X310693D01*
Y465471D01*
X315321D01*
Y464697D01*
X315437Y464115D01*
X315767Y463621D01*
X316260Y463291D01*
X316843Y463175D01*
X319795D01*
X320377Y463291D01*
X320871Y463621D01*
X321201Y464115D01*
X321317Y464697D01*
Y469303D01*
X321201Y469885D01*
X320871Y470379D01*
X320377Y470709D01*
X319795Y470824D01*
D02*
G37*
G36*
X327157D02*
X326181D01*
Y467500D01*
X328679D01*
Y469303D01*
X328563Y469885D01*
X328233Y470379D01*
X327740Y470709D01*
X327157Y470824D01*
D02*
G37*
G36*
X325181D02*
X324205D01*
X323622Y470709D01*
X323129Y470379D01*
X322799Y469885D01*
X322683Y469303D01*
Y467500D01*
X325181D01*
Y470824D01*
D02*
G37*
G36*
X149315Y466937D02*
Y463500D01*
X152752D01*
X152681Y464036D01*
X152281Y465001D01*
X151645Y465830D01*
X150816Y466467D01*
X149851Y466866D01*
X149315Y466937D01*
D02*
G37*
G36*
X148315D02*
X147779Y466866D01*
X146814Y466467D01*
X145985Y465830D01*
X145349Y465001D01*
X144949Y464036D01*
X144878Y463500D01*
X148315D01*
Y466937D01*
D02*
G37*
G36*
X328679Y466500D02*
X326181D01*
Y463175D01*
X327157D01*
X327740Y463291D01*
X328233Y463621D01*
X328563Y464115D01*
X328679Y464697D01*
Y466500D01*
D02*
G37*
G36*
X325181D02*
X322683D01*
Y464697D01*
X322799Y464115D01*
X323129Y463621D01*
X323622Y463291D01*
X324205Y463175D01*
X325181D01*
Y466500D01*
D02*
G37*
G36*
X124339Y470839D02*
X114661D01*
Y461161D01*
X124339D01*
Y470839D01*
D02*
G37*
G36*
X152752Y462500D02*
X149315D01*
Y459063D01*
X149851Y459134D01*
X150816Y459534D01*
X151645Y460170D01*
X152281Y460999D01*
X152681Y461964D01*
X152752Y462500D01*
D02*
G37*
G36*
X148315D02*
X144878D01*
X144949Y461964D01*
X145349Y460999D01*
X145985Y460170D01*
X146814Y459534D01*
X147779Y459134D01*
X148315Y459063D01*
Y462500D01*
D02*
G37*
G36*
X329500Y493529D02*
X301071D01*
X300486Y493413D01*
X299989Y493081D01*
X297489Y490581D01*
X297158Y490085D01*
X297042Y489500D01*
Y488559D01*
X295307D01*
Y486529D01*
X290998D01*
Y487303D01*
X290882Y487885D01*
X290552Y488379D01*
X290059Y488709D01*
X289476Y488825D01*
X286524D01*
X285941Y488709D01*
X285448Y488379D01*
X285118Y487885D01*
X285002Y487303D01*
Y482697D01*
X285118Y482115D01*
X285448Y481621D01*
X285941Y481291D01*
X286524Y481176D01*
X289476D01*
X290059Y481291D01*
X290552Y481621D01*
X290882Y482115D01*
X290998Y482697D01*
Y483471D01*
X295307D01*
Y481441D01*
X301835D01*
Y488559D01*
X300500D01*
X300293Y489059D01*
X301704Y490471D01*
X328867D01*
X330971Y488367D01*
Y462500D01*
X331087Y461915D01*
X331419Y461419D01*
X343627Y449210D01*
X343436Y448748D01*
X342752D01*
Y440252D01*
X351248D01*
Y448748D01*
X348304D01*
X348081Y449081D01*
X334029Y463133D01*
Y489000D01*
X333913Y489585D01*
X333581Y490081D01*
X330581Y493081D01*
X330085Y493413D01*
X329500Y493529D01*
D02*
G37*
G36*
X337000Y448785D02*
X335891Y448639D01*
X334858Y448211D01*
X333970Y447530D01*
X333289Y446642D01*
X332861Y445609D01*
X332715Y444500D01*
X332861Y443391D01*
X333289Y442358D01*
X333970Y441470D01*
X334858Y440789D01*
X335891Y440361D01*
X337000Y440215D01*
X338109Y440361D01*
X339142Y440789D01*
X340030Y441470D01*
X340711Y442358D01*
X341139Y443391D01*
X341285Y444500D01*
X341139Y445609D01*
X340711Y446642D01*
X340030Y447530D01*
X339142Y448211D01*
X338109Y448639D01*
X337000Y448785D01*
D02*
G37*
G36*
X289476Y470824D02*
X286524D01*
X285941Y470709D01*
X285448Y470379D01*
X285118Y469885D01*
X285002Y469303D01*
Y464697D01*
X285118Y464115D01*
X285448Y463621D01*
X285941Y463291D01*
X286524Y463175D01*
X289476D01*
X290059Y463291D01*
X290552Y463621D01*
X290882Y464115D01*
X290998Y464697D01*
Y465471D01*
X295307D01*
Y463441D01*
X297042D01*
Y459929D01*
X297158Y459344D01*
X297489Y458848D01*
X300419Y455919D01*
X300915Y455587D01*
X301500Y455471D01*
X323867D01*
X325471Y453866D01*
Y448464D01*
X324858Y448211D01*
X323970Y447530D01*
X323289Y446642D01*
X322861Y445609D01*
X322715Y444500D01*
X322861Y443391D01*
X323289Y442358D01*
X323970Y441470D01*
X324858Y440789D01*
X325891Y440361D01*
X327000Y440215D01*
X328109Y440361D01*
X329142Y440789D01*
X330030Y441470D01*
X330711Y442358D01*
X331139Y443391D01*
X331285Y444500D01*
X331139Y445609D01*
X330711Y446642D01*
X330030Y447530D01*
X329142Y448211D01*
X328529Y448464D01*
Y454500D01*
X328413Y455085D01*
X328081Y455581D01*
X325581Y458081D01*
X325085Y458413D01*
X324500Y458529D01*
X302133D01*
X300100Y460563D01*
Y463441D01*
X301835D01*
Y470559D01*
X295307D01*
Y468529D01*
X290998D01*
Y469303D01*
X290882Y469885D01*
X290552Y470379D01*
X290059Y470709D01*
X289476Y470824D01*
D02*
G37*
G36*
X317000Y448785D02*
X315891Y448639D01*
X314858Y448211D01*
X313970Y447530D01*
X313289Y446642D01*
X312861Y445609D01*
X312715Y444500D01*
X312861Y443391D01*
X313289Y442358D01*
X313970Y441470D01*
X314858Y440789D01*
X315891Y440361D01*
X317000Y440215D01*
X318109Y440361D01*
X319142Y440789D01*
X320030Y441470D01*
X320711Y442358D01*
X321139Y443391D01*
X321285Y444500D01*
X321139Y445609D01*
X320711Y446642D01*
X320030Y447530D01*
X319142Y448211D01*
X318109Y448639D01*
X317000Y448785D01*
D02*
G37*
G36*
X307000D02*
X305891Y448639D01*
X304858Y448211D01*
X303970Y447530D01*
X303289Y446642D01*
X302861Y445609D01*
X302715Y444500D01*
X302861Y443391D01*
X303289Y442358D01*
X303970Y441470D01*
X304858Y440789D01*
X305891Y440361D01*
X307000Y440215D01*
X308109Y440361D01*
X309142Y440789D01*
X310030Y441470D01*
X310711Y442358D01*
X311139Y443391D01*
X311285Y444500D01*
X311139Y445609D01*
X310711Y446642D01*
X310030Y447530D01*
X309142Y448211D01*
X308109Y448639D01*
X307000Y448785D01*
D02*
G37*
G36*
X297000D02*
X295891Y448639D01*
X294858Y448211D01*
X293970Y447530D01*
X293289Y446642D01*
X292861Y445609D01*
X292715Y444500D01*
X292861Y443391D01*
X293289Y442358D01*
X293970Y441470D01*
X294858Y440789D01*
X295891Y440361D01*
X297000Y440215D01*
X298109Y440361D01*
X299142Y440789D01*
X300030Y441470D01*
X300711Y442358D01*
X301139Y443391D01*
X301285Y444500D01*
X301139Y445609D01*
X300711Y446642D01*
X300030Y447530D01*
X299142Y448211D01*
X298109Y448639D01*
X297000Y448785D01*
D02*
G37*
G36*
X287000D02*
X285891Y448639D01*
X284858Y448211D01*
X283970Y447530D01*
X283289Y446642D01*
X282861Y445609D01*
X282715Y444500D01*
X282861Y443391D01*
X283289Y442358D01*
X283970Y441470D01*
X284858Y440789D01*
X285891Y440361D01*
X287000Y440215D01*
X288109Y440361D01*
X289142Y440789D01*
X290030Y441470D01*
X290711Y442358D01*
X291139Y443391D01*
X291285Y444500D01*
X291139Y445609D01*
X290711Y446642D01*
X290030Y447530D01*
X289142Y448211D01*
X288109Y448639D01*
X287000Y448785D01*
D02*
G37*
G36*
X277000D02*
X275891Y448639D01*
X274858Y448211D01*
X273970Y447530D01*
X273289Y446642D01*
X272861Y445609D01*
X272715Y444500D01*
X272861Y443391D01*
X273289Y442358D01*
X273970Y441470D01*
X274858Y440789D01*
X275891Y440361D01*
X277000Y440215D01*
X278109Y440361D01*
X279142Y440789D01*
X280030Y441470D01*
X280711Y442358D01*
X281139Y443391D01*
X281285Y444500D01*
X281139Y445609D01*
X280711Y446642D01*
X280030Y447530D01*
X279142Y448211D01*
X278109Y448639D01*
X277000Y448785D01*
D02*
G37*
G36*
X119500Y443035D02*
Y438721D01*
X123814D01*
X123714Y439484D01*
X123226Y440661D01*
X122451Y441671D01*
X121440Y442447D01*
X120263Y442935D01*
X119500Y443035D01*
D02*
G37*
G36*
X118500Y443035D02*
X117737Y442935D01*
X116560Y442447D01*
X115549Y441671D01*
X114773Y440661D01*
X114286Y439484D01*
X114186Y438721D01*
X118500D01*
Y443035D01*
D02*
G37*
G36*
X123814Y437720D02*
X119500D01*
Y433406D01*
X120263Y433506D01*
X121440Y433994D01*
X122451Y434770D01*
X123226Y435780D01*
X123714Y436957D01*
X123814Y437720D01*
D02*
G37*
G36*
X118500D02*
X114186D01*
X114286Y436957D01*
X114773Y435780D01*
X115549Y434770D01*
X116560Y433994D01*
X117737Y433506D01*
X118500Y433406D01*
Y437720D01*
D02*
G37*
G36*
X258045Y433353D02*
X257000D01*
Y428610D01*
X260640D01*
Y430758D01*
X260443Y431751D01*
X259880Y432593D01*
X259038Y433155D01*
X258045Y433353D01*
D02*
G37*
G36*
X238045D02*
X237000D01*
Y428610D01*
X240640D01*
Y430758D01*
X240443Y431751D01*
X239880Y432593D01*
X239038Y433155D01*
X238045Y433353D01*
D02*
G37*
G36*
X217545D02*
X216500D01*
Y428610D01*
X220140D01*
Y430758D01*
X219943Y431751D01*
X219380Y432593D01*
X218538Y433155D01*
X217545Y433353D01*
D02*
G37*
G36*
X256000D02*
X254955D01*
X253962Y433155D01*
X253120Y432593D01*
X252557Y431751D01*
X252360Y430758D01*
Y428610D01*
X256000D01*
Y433353D01*
D02*
G37*
G36*
X236000D02*
X234955D01*
X233962Y433155D01*
X233120Y432593D01*
X232557Y431751D01*
X232360Y430758D01*
Y428610D01*
X236000D01*
Y433353D01*
D02*
G37*
G36*
X215500D02*
X214455D01*
X213462Y433155D01*
X212620Y432593D01*
X212057Y431751D01*
X211860Y430758D01*
Y428610D01*
X215500D01*
Y433353D01*
D02*
G37*
G36*
X260640Y427610D02*
X257000D01*
Y422867D01*
X258045D01*
X259038Y423065D01*
X259880Y423628D01*
X260443Y424470D01*
X260640Y425463D01*
Y427610D01*
D02*
G37*
G36*
X256000D02*
X252360D01*
Y425463D01*
X252557Y424470D01*
X253120Y423628D01*
X253962Y423065D01*
X254955Y422867D01*
X256000D01*
Y427610D01*
D02*
G37*
G36*
X240640D02*
X237000D01*
Y422867D01*
X238045D01*
X239038Y423065D01*
X239880Y423628D01*
X240443Y424470D01*
X240640Y425463D01*
Y427610D01*
D02*
G37*
G36*
X236000D02*
X232360D01*
Y425463D01*
X232557Y424470D01*
X233120Y423628D01*
X233962Y423065D01*
X234955Y422867D01*
X236000D01*
Y427610D01*
D02*
G37*
G36*
X220140D02*
X216500D01*
Y422867D01*
X217545D01*
X218538Y423065D01*
X219380Y423628D01*
X219943Y424470D01*
X220140Y425463D01*
Y427610D01*
D02*
G37*
G36*
X215500D02*
X211860D01*
Y425463D01*
X212057Y424470D01*
X212620Y423628D01*
X213462Y423065D01*
X214455Y422867D01*
X215500D01*
Y427610D01*
D02*
G37*
G36*
X339937Y425697D02*
X330063D01*
Y415728D01*
X292087D01*
Y416787D01*
X275913D01*
Y404551D01*
X292087D01*
Y411650D01*
X330063D01*
Y407555D01*
X339937D01*
Y425697D01*
D02*
G37*
G36*
X201157Y408824D02*
X200181D01*
Y405500D01*
X202679D01*
Y407303D01*
X202563Y407885D01*
X202233Y408379D01*
X201740Y408709D01*
X201157Y408824D01*
D02*
G37*
G36*
X199181D02*
X198205D01*
X197623Y408709D01*
X197129Y408379D01*
X196799Y407885D01*
X196683Y407303D01*
Y405500D01*
X199181D01*
Y408824D01*
D02*
G37*
G36*
X202679Y404500D02*
X200181D01*
Y401175D01*
X201157D01*
X201740Y401291D01*
X202233Y401621D01*
X202563Y402115D01*
X202679Y402697D01*
Y404500D01*
D02*
G37*
G36*
X199181D02*
X196683D01*
Y402697D01*
X196799Y402115D01*
X197129Y401621D01*
X197623Y401291D01*
X198205Y401175D01*
X199181D01*
Y404500D01*
D02*
G37*
G36*
X253650Y410079D02*
X232000D01*
Y393229D01*
X253650D01*
Y410079D01*
D02*
G37*
G36*
X231000D02*
X209350D01*
Y393229D01*
X231000D01*
Y410079D01*
D02*
G37*
G36*
X339937Y391445D02*
X335500D01*
Y382874D01*
X339937D01*
Y391445D01*
D02*
G37*
G36*
X334500D02*
X330063D01*
Y382874D01*
X334500D01*
Y391445D01*
D02*
G37*
G36*
X253650Y392229D02*
X232000D01*
Y375379D01*
X253650D01*
Y392229D01*
D02*
G37*
G36*
X231000D02*
X209350D01*
Y375379D01*
X231000D01*
Y392229D01*
D02*
G37*
G36*
X339937Y381874D02*
X335500D01*
Y373303D01*
X339937D01*
Y381874D01*
D02*
G37*
G36*
X334500D02*
X330063D01*
Y373303D01*
X334500D01*
Y381874D01*
D02*
G37*
G36*
X181831Y372421D02*
X168535D01*
Y367000D01*
X181831D01*
Y372421D01*
D02*
G37*
G36*
X167535D02*
X154240D01*
Y367000D01*
X167535D01*
Y372421D01*
D02*
G37*
G36*
X292087Y375449D02*
X275913D01*
Y370297D01*
X269172Y363556D01*
X268730Y362895D01*
X268575Y362114D01*
Y355587D01*
X265677D01*
Y342953D01*
X263180D01*
X262997Y343093D01*
X262275Y343392D01*
X261500Y343494D01*
X260725Y343392D01*
X260003Y343093D01*
X259383Y342617D01*
X258907Y341997D01*
X258608Y341275D01*
X258506Y340500D01*
X258608Y339725D01*
X258907Y339003D01*
X259383Y338383D01*
X260003Y337907D01*
X260725Y337608D01*
X261500Y337506D01*
X262275Y337608D01*
X262997Y337907D01*
X263617Y338383D01*
X263994Y338874D01*
X267177D01*
X267957Y339029D01*
X268532Y339413D01*
X275551D01*
Y355587D01*
X272653D01*
Y361269D01*
X275451Y364068D01*
X275913Y363876D01*
Y363213D01*
X292087D01*
Y375449D01*
D02*
G37*
G36*
X181831Y366000D02*
X168535D01*
Y360579D01*
X181831D01*
Y366000D01*
D02*
G37*
G36*
X167535D02*
X154240D01*
Y360579D01*
X167535D01*
Y366000D01*
D02*
G37*
G36*
X206658Y357824D02*
X205681D01*
Y354500D01*
X208179D01*
Y356303D01*
X208063Y356885D01*
X207733Y357379D01*
X207240Y357709D01*
X206658Y357824D01*
D02*
G37*
G36*
X204681D02*
X203705D01*
X203122Y357709D01*
X202629Y357379D01*
X202299Y356885D01*
X202183Y356303D01*
Y354500D01*
X204681D01*
Y357824D01*
D02*
G37*
G36*
X331167Y360522D02*
X322967D01*
Y358460D01*
X318843D01*
X318062Y358305D01*
X317401Y357863D01*
X312558Y353021D01*
X312116Y352359D01*
X311961Y351579D01*
Y337845D01*
X307655Y333539D01*
X292500D01*
X291720Y333384D01*
X291058Y332942D01*
X291058Y332942D01*
X285558Y327442D01*
X285116Y326780D01*
X284961Y326000D01*
Y321753D01*
X284858Y321711D01*
X283970Y321030D01*
X283289Y320142D01*
X282861Y319109D01*
X282715Y318000D01*
X282861Y316891D01*
X283115Y316278D01*
X274919Y308081D01*
X274587Y307585D01*
X274471Y307000D01*
Y278633D01*
X273741Y277903D01*
X235134D01*
X233129Y279907D01*
X233140Y279963D01*
Y285258D01*
X233083Y285547D01*
X233544Y285793D01*
X235103Y284234D01*
X235006Y283500D01*
X235108Y282725D01*
X235407Y282003D01*
X235883Y281383D01*
X236503Y280907D01*
X237225Y280608D01*
X238000Y280506D01*
X238775Y280608D01*
X239497Y280907D01*
X239906Y281221D01*
X240325Y281137D01*
X240458Y281072D01*
X240476Y281056D01*
X240767Y280621D01*
X241260Y280291D01*
X241843Y280175D01*
X244795D01*
X245377Y280291D01*
X245871Y280621D01*
X246201Y281115D01*
X246317Y281697D01*
Y286303D01*
X246201Y286885D01*
X245871Y287379D01*
X245377Y287709D01*
X244795Y287825D01*
X241843D01*
X241260Y287709D01*
X240767Y287379D01*
X240437Y286885D01*
X240321Y286303D01*
Y286091D01*
X239821Y285844D01*
X239497Y286093D01*
X238775Y286392D01*
X238000Y286494D01*
X237265Y286397D01*
X232692Y290971D01*
X232899Y291471D01*
X235432D01*
X235883Y290883D01*
X236503Y290407D01*
X237225Y290108D01*
X238000Y290006D01*
X238775Y290108D01*
X239497Y290407D01*
X239834Y290666D01*
X239862Y290667D01*
X240371Y290447D01*
X240437Y290115D01*
X240767Y289621D01*
X241260Y289291D01*
X241843Y289176D01*
X244795D01*
X245377Y289291D01*
X245871Y289621D01*
X246201Y290115D01*
X246317Y290697D01*
Y295303D01*
X246201Y295885D01*
X245871Y296379D01*
X245377Y296709D01*
X244795Y296825D01*
X241843D01*
X241260Y296709D01*
X240767Y296379D01*
X240437Y295885D01*
X240371Y295553D01*
X239862Y295333D01*
X239834Y295334D01*
X239497Y295593D01*
X238775Y295892D01*
X238000Y295994D01*
X237225Y295892D01*
X236503Y295593D01*
X235883Y295117D01*
X235432Y294529D01*
X233377D01*
X233329Y294592D01*
X233192Y295029D01*
X237265Y299103D01*
X238000Y299006D01*
X238775Y299108D01*
X239497Y299407D01*
X239834Y299666D01*
X239862Y299667D01*
X240371Y299447D01*
X240437Y299115D01*
X240767Y298621D01*
X241260Y298291D01*
X241843Y298176D01*
X244795D01*
X245377Y298291D01*
X245871Y298621D01*
X246201Y299115D01*
X246317Y299697D01*
Y304303D01*
X246201Y304885D01*
X245871Y305379D01*
X245377Y305709D01*
X244795Y305824D01*
X241843D01*
X241260Y305709D01*
X240767Y305379D01*
X240437Y304885D01*
X240371Y304553D01*
X239862Y304333D01*
X239834Y304334D01*
X239497Y304593D01*
X238775Y304892D01*
X238000Y304994D01*
X237225Y304892D01*
X236503Y304593D01*
X235883Y304117D01*
X235407Y303497D01*
X235108Y302775D01*
X235006Y302000D01*
X235103Y301266D01*
X231366Y297529D01*
X178000D01*
X177415Y297413D01*
X176919Y297081D01*
X170919Y291081D01*
X170587Y290585D01*
X170471Y290000D01*
Y287853D01*
X170455D01*
X169462Y287655D01*
X168620Y287093D01*
X168057Y286251D01*
X167860Y285258D01*
Y279963D01*
X168057Y278970D01*
X168620Y278128D01*
X169462Y277565D01*
X170455Y277367D01*
X171653D01*
Y275787D01*
X171260Y275709D01*
X170767Y275379D01*
X170437Y274885D01*
X170321Y274303D01*
Y269697D01*
X170437Y269115D01*
X170767Y268621D01*
X171260Y268291D01*
X171843Y268176D01*
X174795D01*
X175378Y268291D01*
X175871Y268621D01*
X176201Y269115D01*
X176317Y269697D01*
Y274303D01*
X176201Y274885D01*
X175871Y275379D01*
X175378Y275709D01*
X174795Y275824D01*
X174712D01*
Y277681D01*
X175380Y278128D01*
X175943Y278970D01*
X176140Y279963D01*
Y285258D01*
X175943Y286251D01*
X175380Y287093D01*
X174538Y287655D01*
X173545Y287853D01*
X173529D01*
Y289367D01*
X178633Y294471D01*
X197304D01*
X197352Y294408D01*
X197489Y293971D01*
X194419Y290900D01*
X194087Y290404D01*
X193971Y289819D01*
Y287853D01*
X193955D01*
X192962Y287655D01*
X192120Y287093D01*
X191557Y286251D01*
X191360Y285258D01*
Y279963D01*
X191557Y278970D01*
X192120Y278128D01*
X192962Y277565D01*
X193955Y277367D01*
X195153D01*
Y275787D01*
X194760Y275709D01*
X194267Y275379D01*
X193937Y274885D01*
X193821Y274303D01*
Y269697D01*
X193937Y269115D01*
X194267Y268621D01*
X194760Y268291D01*
X195343Y268176D01*
X198295D01*
X198878Y268291D01*
X199371Y268621D01*
X199701Y269115D01*
X199817Y269697D01*
Y274303D01*
X199701Y274885D01*
X199371Y275379D01*
X198878Y275709D01*
X198295Y275824D01*
X198212D01*
Y277681D01*
X198880Y278128D01*
X199443Y278970D01*
X199640Y279963D01*
Y285258D01*
X199443Y286251D01*
X198880Y287093D01*
X198038Y287655D01*
X197045Y287853D01*
X197029D01*
Y289185D01*
X199315Y291471D01*
X219783D01*
X219990Y290971D01*
X217919Y288899D01*
X217587Y288403D01*
X217478Y287853D01*
X217455D01*
X216462Y287655D01*
X215620Y287093D01*
X215057Y286251D01*
X214860Y285258D01*
Y279963D01*
X215057Y278970D01*
X215620Y278128D01*
X216462Y277565D01*
X217455Y277367D01*
X218653D01*
Y275787D01*
X218260Y275709D01*
X217767Y275379D01*
X217437Y274885D01*
X217321Y274303D01*
Y269697D01*
X217437Y269115D01*
X217767Y268621D01*
X218260Y268291D01*
X218843Y268176D01*
X221795D01*
X222377Y268291D01*
X222871Y268621D01*
X223201Y269115D01*
X223317Y269697D01*
Y274303D01*
X223201Y274885D01*
X222871Y275379D01*
X222377Y275709D01*
X221795Y275824D01*
X221711D01*
Y277681D01*
X222380Y278128D01*
X222943Y278970D01*
X223140Y279963D01*
Y285258D01*
X222943Y286251D01*
X222380Y287093D01*
X221640Y287588D01*
X221482Y288138D01*
X221894Y288549D01*
X230710D01*
X230911Y288290D01*
X230636Y287835D01*
X230545Y287853D01*
X227455D01*
X226462Y287655D01*
X225620Y287093D01*
X225057Y286251D01*
X224860Y285258D01*
Y279963D01*
X225057Y278970D01*
X225620Y278128D01*
X226462Y277565D01*
X227455Y277367D01*
X230545D01*
X231211Y277500D01*
X232971Y275741D01*
Y269500D01*
X233031Y269194D01*
X231366Y267529D01*
X212529D01*
Y276000D01*
X212413Y276585D01*
X212081Y277081D01*
X209567Y279595D01*
X209640Y279963D01*
Y285258D01*
X209443Y286251D01*
X208880Y287093D01*
X208038Y287655D01*
X207045Y287853D01*
X203955D01*
X202962Y287655D01*
X202120Y287093D01*
X201557Y286251D01*
X201360Y285258D01*
Y279963D01*
X201557Y278970D01*
X202120Y278128D01*
X202962Y277565D01*
X203955Y277367D01*
X207045D01*
X207399Y277438D01*
X209471Y275366D01*
Y267529D01*
X191133D01*
X189529Y269133D01*
Y275508D01*
X189413Y276093D01*
X189081Y276589D01*
X186069Y279602D01*
X186140Y279963D01*
Y285258D01*
X185943Y286251D01*
X185380Y287093D01*
X184538Y287655D01*
X183545Y287853D01*
X180455D01*
X179462Y287655D01*
X178620Y287093D01*
X178057Y286251D01*
X177860Y285258D01*
Y279963D01*
X178057Y278970D01*
X178620Y278128D01*
X179462Y277565D01*
X180455Y277367D01*
X183545D01*
X183906Y277439D01*
X186471Y274874D01*
Y268500D01*
X186587Y267915D01*
X186919Y267419D01*
X189419Y264919D01*
X189915Y264587D01*
X190500Y264471D01*
X232000D01*
X232585Y264587D01*
X233081Y264919D01*
X235667Y267504D01*
X235999Y268001D01*
X236115Y268586D01*
Y269414D01*
X236029Y269846D01*
Y274845D01*
X274374D01*
X274959Y274961D01*
X275455Y275293D01*
X277081Y276919D01*
X277413Y277415D01*
X277529Y278000D01*
Y306366D01*
X285278Y314115D01*
X285891Y313861D01*
X287000Y313715D01*
X288109Y313861D01*
X289142Y314289D01*
X290030Y314970D01*
X290711Y315858D01*
X291139Y316891D01*
X291285Y318000D01*
X291139Y319109D01*
X290711Y320142D01*
X290030Y321030D01*
X289142Y321711D01*
X289039Y321753D01*
Y325155D01*
X293345Y329461D01*
X308500D01*
X309280Y329616D01*
X309942Y330058D01*
X315442Y335558D01*
X315442Y335558D01*
X315884Y336220D01*
X316039Y337000D01*
Y350734D01*
X319687Y354382D01*
X322967D01*
Y352321D01*
X331167D01*
Y360522D01*
D02*
G37*
G36*
X234550Y360529D02*
X232000D01*
Y352079D01*
X234550D01*
Y360529D01*
D02*
G37*
G36*
X231000D02*
X228450D01*
Y352079D01*
X231000D01*
Y360529D01*
D02*
G37*
G36*
X247936D02*
X245386D01*
Y352079D01*
X247936D01*
Y360529D01*
D02*
G37*
G36*
X244386D02*
X241836D01*
Y352079D01*
X244386D01*
Y360529D01*
D02*
G37*
G36*
X186906Y357559D02*
X180378D01*
Y355529D01*
X178000D01*
X177415Y355413D01*
X176919Y355081D01*
X173738Y351900D01*
X173406Y351404D01*
X173290Y350819D01*
Y330814D01*
X172760Y330709D01*
X172267Y330379D01*
X171937Y329885D01*
X171821Y329303D01*
Y328529D01*
X145500D01*
X144915Y328413D01*
X144419Y328081D01*
X141419Y325081D01*
X141087Y324585D01*
X140971Y324000D01*
Y313469D01*
X138531D01*
Y305532D01*
X146468D01*
Y313469D01*
X144029D01*
Y323366D01*
X146133Y325471D01*
X171821D01*
Y324697D01*
X171937Y324115D01*
X172267Y323621D01*
X172760Y323291D01*
X173343Y323176D01*
X176295D01*
X176877Y323291D01*
X177371Y323621D01*
X177701Y324115D01*
X177817Y324697D01*
Y329303D01*
X177701Y329885D01*
X177371Y330379D01*
X176877Y330709D01*
X176348Y330814D01*
Y350185D01*
X178633Y352471D01*
X180378D01*
Y350441D01*
X186906D01*
Y357559D01*
D02*
G37*
G36*
X208179Y353500D02*
X205681D01*
Y350175D01*
X206658D01*
X207240Y350291D01*
X207733Y350621D01*
X208063Y351115D01*
X208179Y351697D01*
Y353500D01*
D02*
G37*
G36*
X204681D02*
X202183D01*
Y351697D01*
X202299Y351115D01*
X202629Y350621D01*
X203122Y350291D01*
X203705Y350175D01*
X204681D01*
Y353500D01*
D02*
G37*
G36*
X199295Y357824D02*
X196343D01*
X195760Y357709D01*
X195536Y357559D01*
X189236D01*
Y350441D01*
X195536D01*
X195760Y350291D01*
X196343Y350175D01*
X199295D01*
X199878Y350291D01*
X200371Y350621D01*
X200701Y351115D01*
X200817Y351697D01*
Y356303D01*
X200701Y356885D01*
X200371Y357379D01*
X199878Y357709D01*
X199295Y357824D01*
D02*
G37*
G36*
X302323Y355587D02*
X297886D01*
Y348000D01*
X302323D01*
Y355587D01*
D02*
G37*
G36*
X296886D02*
X292449D01*
Y348000D01*
X296886D01*
Y355587D01*
D02*
G37*
G36*
X206658Y348825D02*
X205681D01*
Y345500D01*
X208179D01*
Y347303D01*
X208063Y347885D01*
X207733Y348379D01*
X207240Y348709D01*
X206658Y348825D01*
D02*
G37*
G36*
X204681D02*
X203705D01*
X203122Y348709D01*
X202629Y348379D01*
X202299Y347885D01*
X202183Y347303D01*
Y345500D01*
X204681D01*
Y348825D01*
D02*
G37*
G36*
X247936Y351079D02*
X245386D01*
Y342629D01*
X247936D01*
Y351079D01*
D02*
G37*
G36*
X244386D02*
X241836D01*
Y342629D01*
X244386D01*
Y351079D01*
D02*
G37*
G36*
X234550Y351079D02*
X232000D01*
Y342629D01*
X234550D01*
Y351079D01*
D02*
G37*
G36*
X231000D02*
X228450D01*
Y342629D01*
X231000D01*
Y351079D01*
D02*
G37*
G36*
X208179Y344500D02*
X205681D01*
Y341176D01*
X206658D01*
X207240Y341291D01*
X207733Y341621D01*
X208063Y342115D01*
X208179Y342697D01*
Y344500D01*
D02*
G37*
G36*
X204681D02*
X202183D01*
Y342697D01*
X202299Y342115D01*
X202629Y341621D01*
X203122Y341291D01*
X203705Y341176D01*
X204681D01*
Y344500D01*
D02*
G37*
G36*
X199295Y348825D02*
X196343D01*
X195760Y348709D01*
X195536Y348559D01*
X189165D01*
Y341441D01*
X195536D01*
X195760Y341291D01*
X196343Y341176D01*
X199295D01*
X199878Y341291D01*
X200371Y341621D01*
X200701Y342115D01*
X200817Y342697D01*
Y347303D01*
X200701Y347885D01*
X200371Y348379D01*
X199878Y348709D01*
X199295Y348825D01*
D02*
G37*
G36*
X213795Y339825D02*
X210842D01*
X210260Y339709D01*
X210104Y339604D01*
X209622Y339559D01*
X209622Y339559D01*
X209622Y339559D01*
X203095D01*
Y332441D01*
X209622D01*
X209622Y332441D01*
Y332441D01*
X210104Y332396D01*
X210260Y332291D01*
X210842Y332175D01*
X213795D01*
X214377Y332291D01*
X214871Y332621D01*
X215201Y333115D01*
X215317Y333697D01*
Y338303D01*
X215201Y338885D01*
X214871Y339379D01*
X214377Y339709D01*
X213795Y339825D01*
D02*
G37*
G36*
X302323Y347000D02*
X297886D01*
Y339413D01*
X302323D01*
Y347000D01*
D02*
G37*
G36*
X296886D02*
X292449D01*
Y339413D01*
X296886D01*
Y347000D01*
D02*
G37*
G36*
X221158Y339825D02*
X220181D01*
Y336500D01*
X222679D01*
Y338303D01*
X222563Y338885D01*
X222233Y339379D01*
X221740Y339709D01*
X221158Y339825D01*
D02*
G37*
G36*
X219181D02*
X218205D01*
X217622Y339709D01*
X217129Y339379D01*
X216799Y338885D01*
X216683Y338303D01*
Y336500D01*
X219181D01*
Y339825D01*
D02*
G37*
G36*
X186835Y348559D02*
X180307D01*
Y341441D01*
X181971D01*
Y337996D01*
X182087Y337411D01*
X182419Y336915D01*
X189971Y329363D01*
Y327634D01*
X187919Y325581D01*
X187587Y325085D01*
X187471Y324500D01*
Y310633D01*
X185366Y308529D01*
X162500D01*
X161915Y308413D01*
X161419Y308081D01*
X154524Y301187D01*
X146162D01*
X145966Y301659D01*
X145330Y302488D01*
X144501Y303124D01*
X143536Y303524D01*
X142500Y303660D01*
X141464Y303524D01*
X140499Y303124D01*
X139670Y302488D01*
X139033Y301659D01*
X138634Y300693D01*
X138497Y299658D01*
X138634Y298622D01*
X139033Y297656D01*
X139670Y296827D01*
X140499Y296191D01*
X141464Y295791D01*
X142500Y295655D01*
X143536Y295791D01*
X144501Y296191D01*
X145330Y296827D01*
X145966Y297656D01*
X146162Y298128D01*
X154312D01*
X154503Y297666D01*
X148181Y291344D01*
X146162D01*
X145966Y291816D01*
X145330Y292645D01*
X144501Y293281D01*
X143536Y293681D01*
X142500Y293818D01*
X141464Y293681D01*
X140499Y293281D01*
X139670Y292645D01*
X139033Y291816D01*
X138634Y290851D01*
X138497Y289815D01*
X138634Y288779D01*
X139033Y287814D01*
X139670Y286985D01*
X140499Y286349D01*
X141464Y285949D01*
X142500Y285812D01*
X143536Y285949D01*
X144501Y286349D01*
X145330Y286985D01*
X145966Y287814D01*
X146162Y288286D01*
X148815D01*
X149400Y288402D01*
X149896Y288734D01*
X164634Y303471D01*
X209000D01*
X209585Y303587D01*
X210081Y303919D01*
X213581Y307419D01*
X213913Y307915D01*
X214029Y308500D01*
Y323366D01*
X215634Y324971D01*
X218821D01*
Y324197D01*
X218937Y323615D01*
X219267Y323121D01*
X219760Y322791D01*
X220342Y322675D01*
X223295D01*
X223878Y322791D01*
X224371Y323121D01*
X224701Y323615D01*
X224817Y324197D01*
Y328803D01*
X224701Y329385D01*
X224371Y329879D01*
X223878Y330209D01*
X223295Y330325D01*
X220342D01*
X219760Y330209D01*
X219267Y329879D01*
X218937Y329385D01*
X218821Y328803D01*
Y328029D01*
X215000D01*
X214415Y327913D01*
X213919Y327581D01*
X211419Y325081D01*
X211087Y324585D01*
X210971Y324000D01*
Y309134D01*
X208366Y306529D01*
X188346D01*
X188154Y306991D01*
X190081Y308919D01*
X190413Y309415D01*
X190529Y310000D01*
Y323867D01*
X192133Y325471D01*
X195321D01*
Y324697D01*
X195437Y324115D01*
X195767Y323621D01*
X196260Y323291D01*
X196843Y323176D01*
X199795D01*
X200377Y323291D01*
X200871Y323621D01*
X201201Y324115D01*
X201317Y324697D01*
Y329303D01*
X201201Y329885D01*
X200871Y330379D01*
X200377Y330709D01*
X199795Y330824D01*
X196843D01*
X196260Y330709D01*
X195767Y330379D01*
X195437Y329885D01*
X195321Y329303D01*
Y328529D01*
X193029D01*
Y329996D01*
X192913Y330581D01*
X192581Y331078D01*
X190484Y333175D01*
X190814Y333552D01*
X191003Y333407D01*
X191725Y333108D01*
X192500Y333006D01*
X193275Y333108D01*
X193736Y333299D01*
X194236Y332993D01*
Y332441D01*
X199116D01*
X199264Y332412D01*
X199412Y332441D01*
X200764D01*
Y333793D01*
X200793Y333941D01*
X200764Y334089D01*
Y339559D01*
X194236D01*
Y339007D01*
X193736Y338701D01*
X193275Y338892D01*
X192500Y338994D01*
X191725Y338892D01*
X191003Y338593D01*
X190383Y338117D01*
X189907Y337497D01*
X189608Y336775D01*
X189506Y336000D01*
X189608Y335225D01*
X189907Y334503D01*
X190052Y334314D01*
X189675Y333984D01*
X185029Y338630D01*
Y341441D01*
X186835D01*
Y348559D01*
D02*
G37*
G36*
X222679Y335500D02*
X220181D01*
Y332175D01*
X221158D01*
X221740Y332291D01*
X222233Y332621D01*
X222563Y333115D01*
X222679Y333697D01*
Y335500D01*
D02*
G37*
G36*
X219181D02*
X216683D01*
Y333697D01*
X216799Y333115D01*
X217129Y332621D01*
X217622Y332291D01*
X218205Y332175D01*
X219181D01*
Y335500D01*
D02*
G37*
G36*
X277500Y322219D02*
Y318500D01*
X281219D01*
X281139Y319109D01*
X280711Y320142D01*
X280030Y321030D01*
X279142Y321711D01*
X278109Y322139D01*
X277500Y322219D01*
D02*
G37*
G36*
X276500D02*
X275891Y322139D01*
X274858Y321711D01*
X273970Y321030D01*
X273289Y320142D01*
X272861Y319109D01*
X272781Y318500D01*
X276500D01*
Y322219D01*
D02*
G37*
G36*
X220545Y321633D02*
X219500D01*
Y316890D01*
X223140D01*
Y319037D01*
X222943Y320030D01*
X222380Y320872D01*
X221538Y321435D01*
X220545Y321633D01*
D02*
G37*
G36*
X197045D02*
X196000D01*
Y316890D01*
X199640D01*
Y319037D01*
X199443Y320030D01*
X198880Y320872D01*
X198038Y321435D01*
X197045Y321633D01*
D02*
G37*
G36*
X173545D02*
X172500D01*
Y316890D01*
X176140D01*
Y319037D01*
X175943Y320030D01*
X175380Y320872D01*
X174538Y321435D01*
X173545Y321633D01*
D02*
G37*
G36*
X218500D02*
X217455D01*
X216462Y321435D01*
X215620Y320872D01*
X215057Y320030D01*
X214860Y319037D01*
Y316890D01*
X218500D01*
Y321633D01*
D02*
G37*
G36*
X195000D02*
X193955D01*
X192962Y321435D01*
X192120Y320872D01*
X191557Y320030D01*
X191360Y319037D01*
Y316890D01*
X195000D01*
Y321633D01*
D02*
G37*
G36*
X171500D02*
X170455D01*
X169462Y321435D01*
X168620Y320872D01*
X168057Y320030D01*
X167860Y319037D01*
Y316890D01*
X171500D01*
Y321633D01*
D02*
G37*
G36*
X281219Y317500D02*
X277500D01*
Y313781D01*
X278109Y313861D01*
X279142Y314289D01*
X280030Y314970D01*
X280711Y315858D01*
X281139Y316891D01*
X281219Y317500D01*
D02*
G37*
G36*
X276500D02*
X272781D01*
X272861Y316891D01*
X273289Y315858D01*
X273970Y314970D01*
X274858Y314289D01*
X275891Y313861D01*
X276500Y313781D01*
Y317500D01*
D02*
G37*
G36*
X297000Y322285D02*
X295891Y322139D01*
X294858Y321711D01*
X293970Y321030D01*
X293289Y320142D01*
X292861Y319109D01*
X292715Y318000D01*
X292861Y316891D01*
X293289Y315858D01*
X293970Y314970D01*
X294858Y314289D01*
X295891Y313861D01*
X297000Y313715D01*
X298109Y313861D01*
X299142Y314289D01*
X300030Y314970D01*
X300711Y315858D01*
X301139Y316891D01*
X301285Y318000D01*
X301139Y319109D01*
X300711Y320142D01*
X300030Y321030D01*
X299142Y321711D01*
X298109Y322139D01*
X297000Y322285D01*
D02*
G37*
G36*
X230658Y330325D02*
X227705D01*
X227122Y330209D01*
X226629Y329879D01*
X226299Y329385D01*
X226183Y328803D01*
Y324197D01*
X226299Y323615D01*
X226629Y323121D01*
X227122Y322791D01*
X227471Y322722D01*
Y321633D01*
X227455D01*
X226462Y321435D01*
X225620Y320872D01*
X225057Y320030D01*
X224860Y319037D01*
Y313742D01*
X225057Y312749D01*
X225620Y311907D01*
X226462Y311345D01*
X227455Y311147D01*
X230545D01*
X231538Y311345D01*
X232380Y311907D01*
X232943Y312749D01*
X233140Y313742D01*
Y319037D01*
X232943Y320030D01*
X232380Y320872D01*
X231538Y321435D01*
X230545Y321633D01*
X230529D01*
Y322675D01*
X230658D01*
X231240Y322791D01*
X231733Y323121D01*
X232063Y323615D01*
X232179Y324197D01*
Y328803D01*
X232063Y329385D01*
X231733Y329879D01*
X231240Y330209D01*
X230658Y330325D01*
D02*
G37*
G36*
X223140Y315890D02*
X219500D01*
Y311147D01*
X220545D01*
X221538Y311345D01*
X222380Y311907D01*
X222943Y312749D01*
X223140Y313742D01*
Y315890D01*
D02*
G37*
G36*
X218500D02*
X214860D01*
Y313742D01*
X215057Y312749D01*
X215620Y311907D01*
X216462Y311345D01*
X217455Y311147D01*
X218500D01*
Y315890D01*
D02*
G37*
G36*
X207157Y330824D02*
X204205D01*
X203623Y330709D01*
X203129Y330379D01*
X202799Y329885D01*
X202683Y329303D01*
Y324697D01*
X202799Y324115D01*
X203129Y323621D01*
X203623Y323291D01*
X204152Y323186D01*
Y321633D01*
X203955D01*
X202962Y321435D01*
X202120Y320872D01*
X201557Y320030D01*
X201360Y319037D01*
Y313742D01*
X201557Y312749D01*
X202120Y311907D01*
X202962Y311345D01*
X203955Y311147D01*
X207045D01*
X208038Y311345D01*
X208880Y311907D01*
X209443Y312749D01*
X209640Y313742D01*
Y319037D01*
X209443Y320030D01*
X208880Y320872D01*
X208038Y321435D01*
X207210Y321600D01*
Y323186D01*
X207740Y323291D01*
X208233Y323621D01*
X208563Y324115D01*
X208679Y324697D01*
Y329303D01*
X208563Y329885D01*
X208233Y330379D01*
X207740Y330709D01*
X207157Y330824D01*
D02*
G37*
G36*
X199640Y315890D02*
X196000D01*
Y311147D01*
X197045D01*
X198038Y311345D01*
X198880Y311907D01*
X199443Y312749D01*
X199640Y313742D01*
Y315890D01*
D02*
G37*
G36*
X195000D02*
X191360D01*
Y313742D01*
X191557Y312749D01*
X192120Y311907D01*
X192962Y311345D01*
X193955Y311147D01*
X195000D01*
Y315890D01*
D02*
G37*
G36*
X183658Y330824D02*
X180705D01*
X180122Y330709D01*
X179629Y330379D01*
X179299Y329885D01*
X179183Y329303D01*
Y324697D01*
X179299Y324115D01*
X179629Y323621D01*
X180122Y323291D01*
X180652Y323186D01*
Y321633D01*
X180455D01*
X179462Y321435D01*
X178620Y320872D01*
X178057Y320030D01*
X177860Y319037D01*
Y313742D01*
X178057Y312749D01*
X178620Y311907D01*
X179462Y311345D01*
X180455Y311147D01*
X183545D01*
X184538Y311345D01*
X185380Y311907D01*
X185943Y312749D01*
X186140Y313742D01*
Y319037D01*
X185943Y320030D01*
X185380Y320872D01*
X184538Y321435D01*
X183711Y321600D01*
Y323186D01*
X184240Y323291D01*
X184733Y323621D01*
X185063Y324115D01*
X185179Y324697D01*
Y329303D01*
X185063Y329885D01*
X184733Y330379D01*
X184240Y330709D01*
X183658Y330824D01*
D02*
G37*
G36*
X176140Y315890D02*
X172500D01*
Y311147D01*
X173545D01*
X174538Y311345D01*
X175380Y311907D01*
X175943Y312749D01*
X176140Y313742D01*
Y315890D01*
D02*
G37*
G36*
X171500D02*
X167860D01*
Y313742D01*
X168057Y312749D01*
X168620Y311907D01*
X169462Y311345D01*
X170455Y311147D01*
X171500D01*
Y315890D01*
D02*
G37*
G36*
X273193Y305559D02*
X270429D01*
Y302500D01*
X273193D01*
Y305559D01*
D02*
G37*
G36*
X269429D02*
X266665D01*
Y302500D01*
X269429D01*
Y305559D01*
D02*
G37*
G36*
X273193Y301500D02*
X270429D01*
Y298441D01*
X273193D01*
Y301500D01*
D02*
G37*
G36*
X269429D02*
X266665D01*
Y298441D01*
X269429D01*
Y301500D01*
D02*
G37*
G36*
X252157Y305824D02*
X249205D01*
X248622Y305709D01*
X248129Y305379D01*
X247799Y304885D01*
X247683Y304303D01*
Y299697D01*
X247799Y299115D01*
X248129Y298621D01*
X248622Y298291D01*
X249205Y298176D01*
X252157D01*
X252740Y298291D01*
X253233Y298621D01*
X253563Y299115D01*
X253679Y299697D01*
Y300471D01*
X257807D01*
Y298441D01*
X264335D01*
Y305559D01*
X257807D01*
Y303529D01*
X253679D01*
Y304303D01*
X253563Y304885D01*
X253233Y305379D01*
X252740Y305709D01*
X252157Y305824D01*
D02*
G37*
G36*
X273193Y296559D02*
X270429D01*
Y293500D01*
X273193D01*
Y296559D01*
D02*
G37*
G36*
X269429D02*
X266665D01*
Y293500D01*
X269429D01*
Y296559D01*
D02*
G37*
G36*
X273193Y292500D02*
X270429D01*
Y289441D01*
X273193D01*
Y292500D01*
D02*
G37*
G36*
X269429D02*
X266665D01*
Y289441D01*
X269429D01*
Y292500D01*
D02*
G37*
G36*
X252157Y296825D02*
X249205D01*
X248622Y296709D01*
X248129Y296379D01*
X247799Y295885D01*
X247683Y295303D01*
Y290697D01*
X247799Y290115D01*
X248129Y289621D01*
X248622Y289291D01*
X249205Y289176D01*
X252157D01*
X252740Y289291D01*
X253233Y289621D01*
X253563Y290115D01*
X253679Y290697D01*
Y291471D01*
X257807D01*
Y289441D01*
X264335D01*
Y296559D01*
X257807D01*
Y294529D01*
X253679D01*
Y295303D01*
X253563Y295885D01*
X253233Y296379D01*
X252740Y296709D01*
X252157Y296825D01*
D02*
G37*
G36*
X273193Y287559D02*
X270429D01*
Y284500D01*
X273193D01*
Y287559D01*
D02*
G37*
G36*
X269429D02*
X266665D01*
Y284500D01*
X269429D01*
Y287559D01*
D02*
G37*
G36*
X284303Y283317D02*
X282500D01*
Y280819D01*
X285824D01*
Y281795D01*
X285709Y282378D01*
X285379Y282871D01*
X284885Y283201D01*
X284303Y283317D01*
D02*
G37*
G36*
X281500D02*
X279697D01*
X279115Y283201D01*
X278621Y282871D01*
X278291Y282378D01*
X278175Y281795D01*
Y280819D01*
X281500D01*
Y283317D01*
D02*
G37*
G36*
X143000Y283909D02*
Y280472D01*
X146437D01*
X146366Y281008D01*
X145966Y281974D01*
X145330Y282803D01*
X144501Y283439D01*
X143536Y283839D01*
X143000Y283909D01*
D02*
G37*
G36*
X142000D02*
X141464Y283839D01*
X140499Y283439D01*
X139670Y282803D01*
X139033Y281974D01*
X138634Y281008D01*
X138563Y280472D01*
X142000D01*
Y283909D01*
D02*
G37*
G36*
X273193Y283500D02*
X270429D01*
Y280441D01*
X273193D01*
Y283500D01*
D02*
G37*
G36*
X269429D02*
X266665D01*
Y280441D01*
X269429D01*
Y283500D01*
D02*
G37*
G36*
X252157Y287825D02*
X249205D01*
X248622Y287709D01*
X248129Y287379D01*
X247799Y286885D01*
X247683Y286303D01*
Y281697D01*
X247799Y281115D01*
X248129Y280621D01*
X248622Y280291D01*
X249205Y280175D01*
X252157D01*
X252740Y280291D01*
X253233Y280621D01*
X253563Y281115D01*
X253679Y281697D01*
Y282471D01*
X257807D01*
Y280441D01*
X264335D01*
Y287559D01*
X257807D01*
Y285529D01*
X253679D01*
Y286303D01*
X253563Y286885D01*
X253233Y287379D01*
X252740Y287709D01*
X252157Y287825D01*
D02*
G37*
G36*
X298913Y280616D02*
X292494D01*
X291900Y280498D01*
X291397Y280162D01*
X291061Y279659D01*
X290943Y279065D01*
Y278000D01*
X298913D01*
Y280616D01*
D02*
G37*
G36*
X285824Y279819D02*
X282500D01*
Y277321D01*
X284303D01*
X284885Y277437D01*
X285379Y277767D01*
X285709Y278260D01*
X285824Y278842D01*
Y279819D01*
D02*
G37*
G36*
X281500D02*
X278175D01*
Y278842D01*
X278291Y278260D01*
X278621Y277767D01*
X279115Y277437D01*
X279697Y277321D01*
X281500D01*
Y279819D01*
D02*
G37*
G36*
X146437Y279472D02*
X143000D01*
Y276035D01*
X143536Y276106D01*
X144501Y276506D01*
X145330Y277142D01*
X145966Y277971D01*
X146366Y278937D01*
X146437Y279472D01*
D02*
G37*
G36*
X142000D02*
X138563D01*
X138634Y278937D01*
X139033Y277971D01*
X139670Y277142D01*
X140499Y276506D01*
X141464Y276106D01*
X142000Y276035D01*
Y279472D01*
D02*
G37*
G36*
X298913Y277000D02*
X290943D01*
Y275935D01*
X291061Y275341D01*
X291397Y274838D01*
X291900Y274502D01*
X292494Y274384D01*
X298913D01*
Y277000D01*
D02*
G37*
G36*
X229157Y275824D02*
X228181D01*
Y272500D01*
X230679D01*
Y274303D01*
X230563Y274885D01*
X230233Y275379D01*
X229740Y275709D01*
X229157Y275824D01*
D02*
G37*
G36*
X182158D02*
X181181D01*
Y272500D01*
X183679D01*
Y274303D01*
X183563Y274885D01*
X183233Y275379D01*
X182740Y275709D01*
X182158Y275824D01*
D02*
G37*
G36*
X205658D02*
X204681D01*
Y272500D01*
X207179D01*
Y274303D01*
X207063Y274885D01*
X206733Y275379D01*
X206240Y275709D01*
X205658Y275824D01*
D02*
G37*
G36*
X227181D02*
X226205D01*
X225623Y275709D01*
X225129Y275379D01*
X224799Y274885D01*
X224683Y274303D01*
Y272500D01*
X227181D01*
Y275824D01*
D02*
G37*
G36*
X180181D02*
X179205D01*
X178622Y275709D01*
X178129Y275379D01*
X177799Y274885D01*
X177683Y274303D01*
Y272500D01*
X180181D01*
Y275824D01*
D02*
G37*
G36*
X203681D02*
X202705D01*
X202122Y275709D01*
X201629Y275379D01*
X201299Y274885D01*
X201183Y274303D01*
Y272500D01*
X203681D01*
Y275824D01*
D02*
G37*
G36*
X230679Y271500D02*
X228181D01*
Y268176D01*
X229157D01*
X229740Y268291D01*
X230233Y268621D01*
X230563Y269115D01*
X230679Y269697D01*
Y271500D01*
D02*
G37*
G36*
X227181D02*
X224683D01*
Y269697D01*
X224799Y269115D01*
X225129Y268621D01*
X225623Y268291D01*
X226205Y268176D01*
X227181D01*
Y271500D01*
D02*
G37*
G36*
X207179D02*
X204681D01*
Y268176D01*
X205658D01*
X206240Y268291D01*
X206733Y268621D01*
X207063Y269115D01*
X207179Y269697D01*
Y271500D01*
D02*
G37*
G36*
X203681D02*
X201183D01*
Y269697D01*
X201299Y269115D01*
X201629Y268621D01*
X202122Y268291D01*
X202705Y268176D01*
X203681D01*
Y271500D01*
D02*
G37*
G36*
X183679D02*
X181181D01*
Y268176D01*
X182158D01*
X182740Y268291D01*
X183233Y268621D01*
X183563Y269115D01*
X183679Y269697D01*
Y271500D01*
D02*
G37*
G36*
X180181D02*
X177683D01*
Y269697D01*
X177799Y269115D01*
X178129Y268621D01*
X178622Y268291D01*
X179205Y268176D01*
X180181D01*
Y271500D01*
D02*
G37*
%LPD*%
G36*
X240471Y493866D02*
Y484248D01*
X239971Y484096D01*
X239879Y484233D01*
X239385Y484563D01*
X238803Y484679D01*
X237959D01*
Y486441D01*
X239693D01*
Y493559D01*
X233165D01*
Y486441D01*
X234900D01*
Y484679D01*
X234197D01*
X233615Y484563D01*
X233121Y484233D01*
X232791Y483740D01*
X232676Y483157D01*
Y480205D01*
X232791Y479623D01*
X233121Y479129D01*
X233615Y478799D01*
X234197Y478683D01*
X238803D01*
X239385Y478799D01*
X239879Y479129D01*
X239971Y479266D01*
X240471Y479114D01*
Y476886D01*
X239971Y476734D01*
X239879Y476871D01*
X239385Y477201D01*
X238803Y477317D01*
X234197D01*
X233615Y477201D01*
X233121Y476871D01*
X232791Y476377D01*
X232686Y475848D01*
X231495D01*
X231390Y476377D01*
X231060Y476871D01*
X230566Y477201D01*
X229984Y477317D01*
X225378D01*
X224796Y477201D01*
X224302Y476871D01*
X224029Y476463D01*
X223633Y476507D01*
X223529Y476546D01*
Y479454D01*
X223633Y479493D01*
X224029Y479537D01*
X224302Y479129D01*
X224796Y478799D01*
X225378Y478683D01*
X227181D01*
Y481681D01*
Y484679D01*
X225378D01*
X224796Y484563D01*
X224302Y484233D01*
X224029Y483825D01*
X223633Y483869D01*
X223529Y483908D01*
Y494471D01*
X239866D01*
X240471Y493866D01*
D02*
G37*
G36*
X252791Y472260D02*
X253121Y471767D01*
X253615Y471437D01*
X254197Y471321D01*
X254971D01*
Y467133D01*
X254955D01*
X253962Y466935D01*
X253120Y466372D01*
X252557Y465530D01*
X252360Y464537D01*
Y459242D01*
X252557Y458249D01*
X253120Y457407D01*
X253962Y456845D01*
X254900Y456658D01*
Y452633D01*
X253796Y451529D01*
X236275D01*
X236083Y451991D01*
X237511Y453419D01*
X237842Y453915D01*
X237959Y454500D01*
Y456647D01*
X238045D01*
X239038Y456845D01*
X239880Y457407D01*
X240443Y458249D01*
X240640Y459242D01*
Y464537D01*
X240443Y465530D01*
X239880Y466372D01*
X239038Y466935D01*
X238045Y467133D01*
X238029D01*
Y471321D01*
X238803D01*
X239385Y471437D01*
X239879Y471767D01*
X239971Y471904D01*
X240471Y471752D01*
Y467492D01*
X240587Y466907D01*
X240919Y466411D01*
X242431Y464898D01*
X242360Y464537D01*
Y459242D01*
X242557Y458249D01*
X243120Y457407D01*
X243962Y456845D01*
X244955Y456647D01*
X248045D01*
X249038Y456845D01*
X249880Y457407D01*
X250443Y458249D01*
X250640Y459242D01*
Y464537D01*
X250443Y465530D01*
X249880Y466372D01*
X249038Y466935D01*
X248045Y467133D01*
X244955D01*
X244594Y467061D01*
X243529Y468126D01*
Y471752D01*
X244029Y471904D01*
X244121Y471767D01*
X244615Y471437D01*
X245197Y471321D01*
X248418D01*
X248468Y471311D01*
X248519Y471321D01*
X249803D01*
X250385Y471437D01*
X250879Y471767D01*
X251209Y472260D01*
X251314Y472789D01*
X252686D01*
X252791Y472260D01*
D02*
G37*
G36*
X220471Y467500D02*
X220587Y466915D01*
X220919Y466419D01*
X222433Y464904D01*
X222360Y464537D01*
Y459242D01*
X222557Y458249D01*
X223120Y457407D01*
X223962Y456845D01*
X224955Y456647D01*
X228045D01*
X229038Y456845D01*
X229880Y457407D01*
X230443Y458249D01*
X230640Y459242D01*
Y464537D01*
X230443Y465530D01*
X229880Y466372D01*
X229038Y466935D01*
X228045Y467133D01*
X224955D01*
X224601Y467062D01*
X223529Y468133D01*
Y472092D01*
X223633Y472131D01*
X224029Y472175D01*
X224302Y471767D01*
X224796Y471437D01*
X225378Y471321D01*
X229984D01*
X230566Y471437D01*
X231060Y471767D01*
X231390Y472260D01*
X231495Y472789D01*
X232686D01*
X232791Y472260D01*
X233121Y471767D01*
X233615Y471437D01*
X234197Y471321D01*
X234971D01*
Y467133D01*
X234955D01*
X233962Y466935D01*
X233120Y466372D01*
X232557Y465530D01*
X232360Y464537D01*
Y459242D01*
X232557Y458249D01*
X233120Y457407D01*
X233962Y456845D01*
X234900Y456658D01*
Y455133D01*
X233796Y454029D01*
X215775D01*
X215583Y454491D01*
X217011Y455919D01*
X217342Y456415D01*
X217388Y456647D01*
X217545D01*
X218538Y456845D01*
X219380Y457407D01*
X219943Y458249D01*
X220140Y459242D01*
Y464537D01*
X219943Y465530D01*
X219380Y466372D01*
X218538Y466935D01*
X217545Y467133D01*
X217529D01*
Y471321D01*
X218303D01*
X218885Y471437D01*
X219379Y471767D01*
X219709Y472260D01*
X219825Y472843D01*
Y475795D01*
X219709Y476377D01*
X219379Y476871D01*
X218885Y477201D01*
X218303Y477317D01*
X213697D01*
X213115Y477201D01*
X212621Y476871D01*
X212291Y476377D01*
X212186Y475848D01*
X210814D01*
X210709Y476377D01*
X210379Y476871D01*
X209885Y477201D01*
X209303Y477317D01*
X204697D01*
X204115Y477201D01*
X203621Y476871D01*
X203291Y476377D01*
X203175Y475795D01*
Y472843D01*
X203291Y472260D01*
X203621Y471767D01*
X204115Y471437D01*
X204697Y471321D01*
X209303D01*
X209885Y471437D01*
X210379Y471767D01*
X210709Y472260D01*
X210814Y472789D01*
X212186D01*
X212291Y472260D01*
X212621Y471767D01*
X213115Y471437D01*
X213697Y471321D01*
X214471D01*
Y467133D01*
X214455D01*
X213462Y466935D01*
X212620Y466372D01*
X212057Y465530D01*
X211860Y464537D01*
Y459242D01*
X212057Y458249D01*
X212620Y457407D01*
X213127Y457068D01*
X213155Y456979D01*
X212916Y456529D01*
X208967D01*
X208815Y457029D01*
X209380Y457407D01*
X209943Y458249D01*
X210140Y459242D01*
Y464537D01*
X209943Y465530D01*
X209380Y466372D01*
X208538Y466935D01*
X207545Y467133D01*
X204530D01*
X201029Y470634D01*
Y492867D01*
X202634Y494471D01*
X220471D01*
Y467500D01*
D02*
G37*
%LPC*%
G36*
X230835Y493559D02*
X228071D01*
Y490500D01*
X230835D01*
Y493559D01*
D02*
G37*
G36*
X227071D02*
X224307D01*
Y490500D01*
X227071D01*
Y493559D01*
D02*
G37*
G36*
X230835Y489500D02*
X228071D01*
Y486441D01*
X230835D01*
Y489500D01*
D02*
G37*
G36*
X227071D02*
X224307D01*
Y486441D01*
X227071D01*
Y489500D01*
D02*
G37*
G36*
X229984Y484679D02*
X228181D01*
Y482181D01*
X231506D01*
Y483157D01*
X231390Y483740D01*
X231060Y484233D01*
X230566Y484563D01*
X229984Y484679D01*
D02*
G37*
G36*
X231506Y481181D02*
X228181D01*
Y478683D01*
X229984D01*
X230566Y478799D01*
X231060Y479129D01*
X231390Y479623D01*
X231506Y480205D01*
Y481181D01*
D02*
G37*
G36*
X210335Y493559D02*
X207571D01*
Y490500D01*
X210335D01*
Y493559D01*
D02*
G37*
G36*
X206571D02*
X203807D01*
Y490500D01*
X206571D01*
Y493559D01*
D02*
G37*
G36*
X210335Y489500D02*
X207571D01*
Y486441D01*
X210335D01*
Y489500D01*
D02*
G37*
G36*
X206571D02*
X203807D01*
Y486441D01*
X206571D01*
Y489500D01*
D02*
G37*
G36*
X209303Y484679D02*
X207500D01*
Y482181D01*
X210824D01*
Y483157D01*
X210709Y483740D01*
X210379Y484233D01*
X209885Y484563D01*
X209303Y484679D01*
D02*
G37*
G36*
X206500D02*
X204697D01*
X204115Y484563D01*
X203621Y484233D01*
X203291Y483740D01*
X203175Y483157D01*
Y482181D01*
X206500D01*
Y484679D01*
D02*
G37*
G36*
X219193Y493559D02*
X212665D01*
Y486441D01*
X214400D01*
Y484679D01*
X213697D01*
X213115Y484563D01*
X212621Y484233D01*
X212291Y483740D01*
X212175Y483157D01*
Y480205D01*
X212291Y479623D01*
X212621Y479129D01*
X213115Y478799D01*
X213697Y478683D01*
X218303D01*
X218885Y478799D01*
X219379Y479129D01*
X219709Y479623D01*
X219825Y480205D01*
Y483157D01*
X219709Y483740D01*
X219379Y484233D01*
X218885Y484563D01*
X218303Y484679D01*
X217459D01*
Y486441D01*
X219193D01*
Y493559D01*
D02*
G37*
G36*
X210824Y481181D02*
X207500D01*
Y478683D01*
X209303D01*
X209885Y478799D01*
X210379Y479129D01*
X210709Y479623D01*
X210824Y480205D01*
Y481181D01*
D02*
G37*
G36*
X206500D02*
X203175D01*
Y480205D01*
X203291Y479623D01*
X203621Y479129D01*
X204115Y478799D01*
X204697Y478683D01*
X206500D01*
Y481181D01*
D02*
G37*
%LPD*%
D15*
X293376Y476000D02*
X298571D01*
X288181D02*
X293376D01*
X327000Y444500D02*
Y454500D01*
X324500Y457000D02*
X327000Y454500D01*
X301500Y457000D02*
X324500D01*
X298571Y459929D02*
X301500Y457000D01*
X298571Y459929D02*
Y467000D01*
X307429D02*
X318319D01*
X307429Y476000D02*
X318319D01*
X307429Y485000D02*
X318319D01*
X298571Y489500D02*
X301071Y492000D01*
X298571Y485000D02*
Y489500D01*
X288000Y485000D02*
X298571D01*
X288000Y467000D02*
X298571D01*
X270614D02*
X280638D01*
X268500Y476000D02*
X280819D01*
X267000Y485000D02*
X280638D01*
X347000Y444500D02*
Y448000D01*
X332500Y462500D02*
X347000Y448000D01*
X332500Y462500D02*
Y489000D01*
X329500Y492000D02*
X332500Y489000D01*
X301071Y492000D02*
X329500D01*
X183500Y344634D02*
Y346295D01*
X191500Y327000D02*
Y329996D01*
X183500Y337996D02*
X191500Y329996D01*
X183500Y337996D02*
Y344634D01*
X197205Y336000D02*
X199264Y333941D01*
X192500Y336000D02*
X197205D01*
X206358D02*
X212319D01*
X267177Y340913D02*
X270614Y344350D01*
X277831Y369331D02*
X284000D01*
X138500Y470000D02*
X199500D01*
X135500Y467000D02*
X138500Y470000D01*
X135500Y434721D02*
Y467000D01*
X119000Y418221D02*
X135500Y434721D01*
X199500Y493500D02*
X202000Y496000D01*
X199500Y470000D02*
Y493500D01*
Y470000D02*
X206000Y463500D01*
Y461890D02*
Y463500D01*
X225455Y462935D02*
Y464045D01*
X222000Y467500D02*
X225455Y464045D01*
X222000Y467500D02*
Y496000D01*
X240500D01*
X202000D02*
X222000D01*
X225455Y462935D02*
X226500Y461890D01*
X242000Y467492D02*
Y494500D01*
Y467492D02*
X246500Y462992D01*
Y461890D02*
Y462992D01*
X240500Y496000D02*
X242000Y494500D01*
X213929Y455000D02*
X215929Y457000D01*
X180000Y455000D02*
X213929D01*
X171000Y452500D02*
X234429D01*
X178342Y456658D02*
X180000Y455000D01*
X234429Y452500D02*
X236429Y454500D01*
X168500Y455000D02*
X171000Y452500D01*
X215929Y457000D02*
Y461819D01*
X216000Y461890D01*
X178342Y456658D02*
Y463000D01*
X207000Y474319D02*
X216000D01*
X256429Y452000D02*
Y461819D01*
X256500Y461890D01*
X254429Y450000D02*
X256429Y452000D01*
X161315Y450000D02*
X254429D01*
X158658Y452658D02*
X161315Y450000D01*
X158658Y452658D02*
Y463000D01*
X236429Y454500D02*
Y461819D01*
X236500Y461890D01*
X168500Y455000D02*
Y463000D01*
X256429Y481752D02*
X256500Y481681D01*
X256429Y481752D02*
Y490000D01*
X236429Y481752D02*
X236500Y481681D01*
X236429Y481752D02*
Y490000D01*
X215929Y481752D02*
X216000Y481681D01*
X215929Y481752D02*
Y490000D01*
X216000Y461890D02*
Y474319D01*
X236500Y461890D02*
Y474319D01*
X227681D02*
X236500D01*
X256500Y461890D02*
Y474319D01*
X247500D02*
X256500D01*
X191500Y327000D02*
X198319D01*
X189000Y324500D02*
X191500Y327000D01*
X189000Y310000D02*
Y324500D01*
X183500Y344634D02*
X183571Y344705D01*
Y345000D01*
X212500Y308500D02*
Y324000D01*
X209000Y305000D02*
X212500Y308500D01*
X164000Y305000D02*
X209000D01*
X212500Y324000D02*
X215000Y326500D01*
X221819D01*
X148815Y289815D02*
X164000Y305000D01*
X142500Y289815D02*
X148815D01*
X186000Y307000D02*
X189000Y310000D01*
X162500Y307000D02*
X186000D01*
X155157Y299658D02*
X162500Y307000D01*
X142500Y299658D02*
X155157D01*
X178000Y354000D02*
X183642D01*
X174819Y350819D02*
X178000Y354000D01*
X174819Y327000D02*
Y350819D01*
X145500Y327000D02*
X174819D01*
X142500Y324000D02*
X145500Y327000D01*
X142500Y309500D02*
Y324000D01*
X192429Y345000D02*
X197819D01*
X192500Y354000D02*
X197819D01*
X182000Y316390D02*
X182181Y316571D01*
Y327000D01*
X205500Y316390D02*
X205681Y316571D01*
Y327000D01*
X229000Y316390D02*
Y326319D01*
X229181Y326500D01*
X178000Y296000D02*
X232000D01*
X172000Y290000D02*
X178000Y296000D01*
X172000Y282610D02*
Y290000D01*
X232000Y296000D02*
X238000Y302000D01*
X238193Y351579D02*
Y368807D01*
X234000Y373000D02*
X238193Y368807D01*
X199036Y373000D02*
X234000D01*
X192319Y379717D02*
X199036Y373000D01*
X192319Y379717D02*
Y405000D01*
X180319Y417000D02*
X190024Y407295D01*
X190850D01*
X192319Y405827D01*
Y405000D02*
Y405827D01*
X174000Y417000D02*
X180319D01*
X164000D02*
X174000D01*
X265000Y472500D02*
X268500Y476000D01*
X265000Y442500D02*
Y472500D01*
X263000Y481000D02*
X267000Y485000D01*
X263000Y443500D02*
Y481000D01*
X206000Y440000D02*
X207500Y441500D01*
X206000Y428110D02*
Y440000D01*
X226500Y438000D02*
X228000Y439500D01*
X226500Y428110D02*
Y438000D01*
X246500Y435000D02*
X249000Y437500D01*
X246500Y428110D02*
Y435000D01*
X276000Y278000D02*
Y307000D01*
X274374Y276374D02*
X276000Y278000D01*
X234500Y276374D02*
X274374D01*
X276000Y307000D02*
X287000Y318000D01*
X190500Y266000D02*
X211000D01*
X188000Y268500D02*
X190500Y266000D01*
X188000Y268500D02*
Y275508D01*
X211000Y266000D02*
X232000D01*
X211000D02*
Y276000D01*
X205500Y281500D02*
X211000Y276000D01*
X205500Y281500D02*
Y282610D01*
X229000Y281874D02*
X234500Y276374D01*
X229000Y281874D02*
Y282610D01*
X234500Y269500D02*
Y276374D01*
Y269500D02*
X234586Y269414D01*
Y268586D02*
Y269414D01*
X232000Y266000D02*
X234586Y268586D01*
X182000Y281508D02*
X188000Y275508D01*
X182000Y281508D02*
Y282610D01*
X237500Y284000D02*
X243319D01*
X238000Y293000D02*
X243319D01*
X198681D02*
X238000D01*
Y302000D02*
X243319D01*
X231421Y290079D02*
X237500Y284000D01*
X221261Y290079D02*
X231421D01*
X282000Y292000D02*
Y295319D01*
Y287681D02*
Y292000D01*
X288559D01*
X294059Y297500D01*
X299413D01*
X261000Y441500D02*
X263000Y443500D01*
X207500Y441500D02*
X261000D01*
X262000Y439500D02*
X265000Y442500D01*
X228000Y439500D02*
X262000D01*
X267000Y463386D02*
X270614Y467000D01*
X267000Y441500D02*
Y463386D01*
X263000Y437500D02*
X267000Y441500D01*
X249000Y437500D02*
X263000D01*
X261500Y340500D02*
X261913Y340913D01*
X270614Y344350D02*
Y347500D01*
X307000Y312500D02*
Y318000D01*
X304500Y310000D02*
X307000Y312500D01*
X287000Y310000D02*
X304500D01*
X283803Y306803D02*
X287000Y310000D01*
X283803Y304150D02*
Y306803D01*
X282335Y302681D02*
X283803Y304150D01*
X282000Y302681D02*
X282335D01*
X250681Y284000D02*
X261071D01*
X250681Y293000D02*
X261071D01*
X250681Y302000D02*
X261071D01*
X219000Y287818D02*
X221261Y290079D01*
X219000Y282610D02*
Y287818D01*
X195500Y289819D02*
X198681Y293000D01*
X195500Y282610D02*
Y289819D01*
X220182Y272137D02*
X220319Y272000D01*
X220182Y272137D02*
Y281428D01*
X219000Y282610D02*
X220182Y281428D01*
X196682Y272137D02*
X196819Y272000D01*
X196682Y272137D02*
Y281428D01*
X195500Y282610D02*
X196682Y281428D01*
X173182Y272137D02*
X173319Y272000D01*
X173182Y272137D02*
Y281428D01*
X172000Y282610D02*
X173182Y281428D01*
X315504Y318264D02*
X317500Y316268D01*
D41*
X256429Y490000D02*
D03*
X247571D02*
D03*
X236429D02*
D03*
X227571D02*
D03*
X215929D02*
D03*
X207071D02*
D03*
X183642Y354000D02*
D03*
X192500D02*
D03*
X261071Y284000D02*
D03*
X269929D02*
D03*
X261071Y293000D02*
D03*
X269929D02*
D03*
X298571Y485000D02*
D03*
X307429D02*
D03*
X298571Y476000D02*
D03*
X307429D02*
D03*
X192429Y345000D02*
D03*
X183571D02*
D03*
X307429Y467000D02*
D03*
X298571D02*
D03*
X206358Y336000D02*
D03*
X197500D02*
D03*
X269929Y302000D02*
D03*
X261071D02*
D03*
D42*
X256500Y481681D02*
D03*
Y474319D02*
D03*
X247500Y481681D02*
D03*
Y474319D02*
D03*
X236500Y481681D02*
D03*
Y474319D02*
D03*
X227681Y481681D02*
D03*
Y474319D02*
D03*
X216000Y481681D02*
D03*
Y474319D02*
D03*
X207000Y481681D02*
D03*
Y474319D02*
D03*
X282000Y287681D02*
D03*
Y280319D02*
D03*
Y302681D02*
D03*
Y295319D02*
D03*
D43*
X246500Y461890D02*
D03*
X256500D02*
D03*
Y428110D02*
D03*
X246500D02*
D03*
X226500Y461890D02*
D03*
X236500D02*
D03*
Y428110D02*
D03*
X226500D02*
D03*
X206000Y461890D02*
D03*
X216000D02*
D03*
Y428110D02*
D03*
X206000D02*
D03*
X229000Y282610D02*
D03*
X219000D02*
D03*
Y316390D02*
D03*
X229000D02*
D03*
X205500Y282610D02*
D03*
X195500D02*
D03*
Y316390D02*
D03*
X205500D02*
D03*
X182000Y282610D02*
D03*
X172000D02*
D03*
Y316390D02*
D03*
X182000D02*
D03*
D44*
X297386Y347500D02*
D03*
X270614D02*
D03*
D45*
X227681Y272000D02*
D03*
X220319D02*
D03*
X204181D02*
D03*
X196819D02*
D03*
X180681D02*
D03*
X173319D02*
D03*
X192319Y405000D02*
D03*
X199681D02*
D03*
X182181Y327000D02*
D03*
X174819D02*
D03*
X229181Y326500D02*
D03*
X221819D02*
D03*
X219681Y336000D02*
D03*
X212319D02*
D03*
X205681Y327000D02*
D03*
X198319D02*
D03*
X205181Y345000D02*
D03*
X197819D02*
D03*
X205181Y354000D02*
D03*
X197819D02*
D03*
X280638Y485000D02*
D03*
X288000D02*
D03*
X280819Y476000D02*
D03*
X288181D02*
D03*
X280638Y467000D02*
D03*
X288000D02*
D03*
X318319Y485000D02*
D03*
X325681D02*
D03*
X318319Y476000D02*
D03*
X325681D02*
D03*
X318319Y467000D02*
D03*
X325681D02*
D03*
X243319Y284000D02*
D03*
X250681D02*
D03*
X243319Y293000D02*
D03*
X250681D02*
D03*
X243319Y302000D02*
D03*
X250681D02*
D03*
D46*
X284000Y369331D02*
D03*
Y410669D02*
D03*
D47*
X231500Y392729D02*
D03*
D48*
X244886Y351579D02*
D03*
X238193D02*
D03*
X231500D02*
D03*
X224807D02*
D03*
X218114D02*
D03*
D49*
X341500Y287500D02*
D03*
D50*
X299413Y297500D02*
D03*
Y277500D02*
D03*
D51*
X335000Y382374D02*
D03*
Y416626D02*
D03*
D52*
X168035Y366500D02*
D03*
X118823D02*
D03*
D53*
X261913Y340913D02*
X267177D01*
X270614Y362114D02*
X277831Y369331D01*
X270614Y347500D02*
Y362114D01*
X218114Y351579D02*
Y364315D01*
X214929Y367500D02*
X218114Y364315D01*
X196500Y367500D02*
X214929D01*
X187500Y376500D02*
X196500Y367500D01*
X224500Y351886D02*
Y367500D01*
X221500Y370500D02*
X224500Y367500D01*
X198000Y370500D02*
X221500D01*
X188500Y380000D02*
X198000Y370500D01*
X224500Y351886D02*
X224807Y351579D01*
X158500Y380000D02*
X188500D01*
X154000Y384500D02*
X158500Y380000D01*
X154000Y384500D02*
Y417000D01*
X136697Y376500D02*
X187500D01*
X126697Y366500D02*
X136697Y376500D01*
X332063Y413689D02*
X335000Y416626D01*
X287020Y413689D02*
X332063D01*
X284000Y410669D02*
X287020Y413689D01*
X287000Y318000D02*
Y326000D01*
X292500Y331500D01*
X308500D01*
X314000Y337000D01*
Y351579D01*
X318843Y356421D01*
X327067D01*
X331921Y346579D02*
X356000Y322500D01*
X327067Y346579D02*
X331921D01*
X356000Y302000D02*
Y322500D01*
X341500Y287500D02*
X356000Y302000D01*
X118823Y366500D02*
X119000Y366677D01*
Y418221D01*
X247500Y474319D02*
X248468Y473350D01*
X118823Y366500D02*
X126697D01*
D54*
X346000Y254500D02*
D03*
X113500D02*
D03*
X346000Y486500D02*
D03*
X162286Y438500D02*
D03*
D55*
X154000Y417000D02*
D03*
X164000D02*
D03*
D56*
X174000D02*
D03*
D57*
X142500Y309500D02*
D03*
D58*
Y299658D02*
D03*
Y289815D02*
D03*
Y279972D02*
D03*
X168500Y463000D02*
D03*
X158658D02*
D03*
X148815D02*
D03*
D59*
X178342D02*
D03*
D60*
X277000Y318000D02*
D03*
X287000D02*
D03*
X297000D02*
D03*
X307000D02*
D03*
X317000D02*
D03*
X327000D02*
D03*
X337000D02*
D03*
Y444500D02*
D03*
X327000D02*
D03*
X317000D02*
D03*
X307000D02*
D03*
X297000D02*
D03*
X287000D02*
D03*
X277000D02*
D03*
D61*
X347000Y318000D02*
D03*
Y444500D02*
D03*
D62*
X327067Y346579D02*
D03*
D63*
Y356421D02*
D03*
D64*
X119500Y486000D02*
D03*
X119000Y438221D02*
D03*
D65*
X119500Y466000D02*
D03*
X119000Y418221D02*
D03*
D66*
X293376Y476000D02*
D03*
X250000Y407000D02*
D03*
X243529D02*
D03*
X237500D02*
D03*
X231538D02*
D03*
X225455D02*
D03*
X213462D02*
D03*
X219500D02*
D03*
X352500Y269500D02*
D03*
X341500D02*
D03*
X331000D02*
D03*
X352500Y278500D02*
D03*
X341500D02*
D03*
X331000D02*
D03*
X352500Y287500D02*
D03*
X341500D02*
D03*
X331000D02*
D03*
X352500Y296000D02*
D03*
X341500D02*
D03*
X331000D02*
D03*
X352500Y303500D02*
D03*
X341500D02*
D03*
X331000D02*
D03*
X250000Y381000D02*
D03*
X243500D02*
D03*
X237500D02*
D03*
X231500D02*
D03*
X225500D02*
D03*
X219504D02*
D03*
X250000Y387500D02*
D03*
X243500D02*
D03*
X237500D02*
D03*
X231500D02*
D03*
X225500D02*
D03*
X219500D02*
D03*
X250000Y394000D02*
D03*
X243500D02*
D03*
X237500D02*
D03*
X231500D02*
D03*
X225500D02*
D03*
X219500D02*
D03*
X250000Y400500D02*
D03*
X243500D02*
D03*
X237500D02*
D03*
X231500D02*
D03*
X225500D02*
D03*
X219504D02*
D03*
X213587Y381000D02*
D03*
Y387500D02*
D03*
X213500Y394000D02*
D03*
X213587Y400500D02*
D03*
X192500Y336000D02*
D03*
X238000Y302000D02*
D03*
Y293000D02*
D03*
Y283500D02*
D03*
X261500Y340500D02*
D03*
M02*
