G04*
G04 #@! TF.GenerationSoftware,Altium Limited,Altium Designer,19.0.10 (269)*
G04*
G04 Layer_Color=16711935*
%FSLAX25Y25*%
%MOIN*%
G70*
G01*
G75*
%ADD28C,0.16548*%
%ADD29C,0.05595*%
%ADD30R,0.05595X0.05595*%
%ADD31R,0.06737X0.06737*%
%ADD32C,0.06737*%
%ADD33R,0.06737X0.06737*%
%ADD34C,0.07296*%
%ADD35R,0.07296X0.07296*%
%ADD36C,0.07001*%
%ADD37R,0.07001X0.07001*%
%ADD38C,0.08477*%
%ADD39R,0.08477X0.08477*%
%ADD40C,0.04737*%
%ADD69C,0.04300*%
G36*
X279047Y381953D02*
X295047D01*
Y395953D01*
X279047D01*
Y381953D01*
D02*
G37*
D28*
X346000Y254500D02*
D03*
X113500D02*
D03*
X346000Y486500D02*
D03*
X162286Y438500D02*
D03*
D29*
X154000Y417000D02*
D03*
X164000D02*
D03*
D30*
X174000D02*
D03*
D31*
X142500Y309500D02*
D03*
D32*
Y299658D02*
D03*
Y289815D02*
D03*
Y279972D02*
D03*
X168500Y463000D02*
D03*
X158658D02*
D03*
X148815D02*
D03*
D33*
X178342D02*
D03*
D34*
X277000Y318000D02*
D03*
X287000D02*
D03*
X297000D02*
D03*
X307000D02*
D03*
X317000D02*
D03*
X327000D02*
D03*
X337000D02*
D03*
Y444500D02*
D03*
X327000D02*
D03*
X317000D02*
D03*
X307000D02*
D03*
X297000D02*
D03*
X287000D02*
D03*
X277000D02*
D03*
D35*
X347000Y318000D02*
D03*
Y444500D02*
D03*
D36*
X327067Y346579D02*
D03*
D37*
Y356421D02*
D03*
D38*
X119500Y486000D02*
D03*
X119000Y438221D02*
D03*
D39*
X119500Y466000D02*
D03*
X119000Y418221D02*
D03*
D40*
X293376Y476000D02*
D03*
X250000Y407000D02*
D03*
X243529D02*
D03*
X237500D02*
D03*
X231538D02*
D03*
X225455D02*
D03*
X213462D02*
D03*
X219500D02*
D03*
X352500Y269500D02*
D03*
X341500D02*
D03*
X331000D02*
D03*
X352500Y278500D02*
D03*
X341500D02*
D03*
X331000D02*
D03*
X352500Y287500D02*
D03*
X341500D02*
D03*
X331000D02*
D03*
X352500Y296000D02*
D03*
X341500D02*
D03*
X331000D02*
D03*
X352500Y303500D02*
D03*
X341500D02*
D03*
X331000D02*
D03*
X250000Y381000D02*
D03*
X243500D02*
D03*
X237500D02*
D03*
X231500D02*
D03*
X225500D02*
D03*
X219504D02*
D03*
X250000Y387500D02*
D03*
X243500D02*
D03*
X237500D02*
D03*
X231500D02*
D03*
X225500D02*
D03*
X219500D02*
D03*
X250000Y394000D02*
D03*
X243500D02*
D03*
X237500D02*
D03*
X231500D02*
D03*
X225500D02*
D03*
X219500D02*
D03*
X250000Y400500D02*
D03*
X243500D02*
D03*
X237500D02*
D03*
X231500D02*
D03*
X225500D02*
D03*
X219504D02*
D03*
X213587Y381000D02*
D03*
Y387500D02*
D03*
X213500Y394000D02*
D03*
X213587Y400500D02*
D03*
X192500Y336000D02*
D03*
X238000Y302000D02*
D03*
Y293000D02*
D03*
Y283500D02*
D03*
X261500Y340500D02*
D03*
D69*
X249500Y344500D02*
D03*
X240000D02*
D03*
X291000Y389000D02*
D03*
X282547Y389047D02*
D03*
M02*
