G04*
G04 #@! TF.GenerationSoftware,Altium Limited,Altium Designer,19.0.10 (269)*
G04*
G04 Layer_Physical_Order=2*
G04 Layer_Color=16711680*
%FSLAX25Y25*%
%MOIN*%
G70*
G01*
G75*
%ADD15C,0.01000*%
%ADD53C,0.02000*%
%ADD54C,0.15748*%
%ADD55C,0.04795*%
%ADD56R,0.04795X0.04795*%
%ADD57R,0.05937X0.05937*%
%ADD58C,0.05937*%
%ADD59R,0.05937X0.05937*%
%ADD60C,0.06496*%
%ADD61R,0.06496X0.06496*%
%ADD62C,0.06201*%
%ADD63R,0.06201X0.06201*%
%ADD64C,0.07677*%
%ADD65R,0.07677X0.07677*%
%ADD66C,0.03937*%
%ADD67C,0.03500*%
%ADD68C,0.03000*%
G36*
X361500Y314500D02*
X351248D01*
Y322248D01*
X342752D01*
Y314500D01*
X340189D01*
X340087Y314802D01*
X340053Y315000D01*
X340711Y315858D01*
X341139Y316891D01*
X341285Y318000D01*
X341139Y319109D01*
X340711Y320142D01*
X340030Y321030D01*
X339142Y321711D01*
X338109Y322139D01*
X337000Y322285D01*
X335891Y322139D01*
X334858Y321711D01*
X333970Y321030D01*
X333289Y320142D01*
X332861Y319109D01*
X332715Y318000D01*
X332861Y316891D01*
X333289Y315858D01*
X333947Y315000D01*
X333913Y314802D01*
X333811Y314500D01*
X330189D01*
X330087Y314802D01*
X330053Y315000D01*
X330711Y315858D01*
X331139Y316891D01*
X331285Y318000D01*
X331139Y319109D01*
X330711Y320142D01*
X330030Y321030D01*
X329142Y321711D01*
X328109Y322139D01*
X327000Y322285D01*
X325891Y322139D01*
X324858Y321711D01*
X323970Y321030D01*
X323289Y320142D01*
X322861Y319109D01*
X322715Y318000D01*
X322861Y316891D01*
X323289Y315858D01*
X323947Y315000D01*
X323913Y314802D01*
X323811Y314500D01*
X320189D01*
X320087Y314802D01*
X320053Y315000D01*
X320711Y315858D01*
X321139Y316891D01*
X321285Y318000D01*
X321139Y319109D01*
X320711Y320142D01*
X320030Y321030D01*
X319142Y321711D01*
X318109Y322139D01*
X317000Y322285D01*
X315891Y322139D01*
X314858Y321711D01*
X313970Y321030D01*
X313289Y320142D01*
X312861Y319109D01*
X312715Y318000D01*
X312861Y316891D01*
X313289Y315858D01*
X313947Y315000D01*
X313913Y314802D01*
X313811Y314500D01*
X310189D01*
X310087Y314802D01*
X310053Y315000D01*
X310711Y315858D01*
X311139Y316891D01*
X311285Y318000D01*
X311139Y319109D01*
X310711Y320142D01*
X310030Y321030D01*
X309142Y321711D01*
X308109Y322139D01*
X307000Y322285D01*
X305891Y322139D01*
X304858Y321711D01*
X303970Y321030D01*
X303289Y320142D01*
X302861Y319109D01*
X302715Y318000D01*
X302861Y316891D01*
X303289Y315858D01*
X303970Y314970D01*
X304858Y314289D01*
X305891Y313861D01*
X307000Y313715D01*
Y263500D01*
X99500D01*
Y500000D01*
X361500D01*
Y314500D01*
D02*
G37*
G36*
X360500Y264500D02*
X311000D01*
Y312000D01*
X360500D01*
Y264500D01*
D02*
G37*
%LPC*%
G36*
X120000Y490814D02*
Y486500D01*
X124314D01*
X124214Y487263D01*
X123726Y488440D01*
X122951Y489451D01*
X121940Y490227D01*
X120763Y490714D01*
X120000Y490814D01*
D02*
G37*
G36*
X119000D02*
X118237Y490714D01*
X117060Y490227D01*
X116049Y489451D01*
X115273Y488440D01*
X114786Y487263D01*
X114685Y486500D01*
X119000D01*
Y490814D01*
D02*
G37*
G36*
X124314Y485500D02*
X120000D01*
Y481185D01*
X120763Y481286D01*
X121940Y481774D01*
X122951Y482549D01*
X123726Y483560D01*
X124214Y484737D01*
X124314Y485500D01*
D02*
G37*
G36*
X119000D02*
X114685D01*
X114786Y484737D01*
X115273Y483560D01*
X116049Y482549D01*
X117060Y481774D01*
X118237Y481286D01*
X119000Y481185D01*
Y485500D01*
D02*
G37*
G36*
X149315Y466937D02*
Y463500D01*
X152752D01*
X152681Y464036D01*
X152281Y465001D01*
X151645Y465830D01*
X150816Y466467D01*
X149851Y466866D01*
X149315Y466937D01*
D02*
G37*
G36*
X148315D02*
X147779Y466866D01*
X146814Y466467D01*
X145985Y465830D01*
X145349Y465001D01*
X144949Y464036D01*
X144878Y463500D01*
X148315D01*
Y466937D01*
D02*
G37*
G36*
X152752Y462500D02*
X149315D01*
Y459063D01*
X149851Y459134D01*
X150816Y459534D01*
X151645Y460170D01*
X152281Y460999D01*
X152681Y461964D01*
X152752Y462500D01*
D02*
G37*
G36*
X148315D02*
X144878D01*
X144949Y461964D01*
X145349Y460999D01*
X145985Y460170D01*
X146814Y459534D01*
X147779Y459134D01*
X148315Y459063D01*
Y462500D01*
D02*
G37*
G36*
X182311Y466968D02*
X174374D01*
Y459031D01*
X182311D01*
Y466968D01*
D02*
G37*
G36*
X168500Y467003D02*
X167464Y466866D01*
X166499Y466467D01*
X165670Y465830D01*
X165033Y465001D01*
X164634Y464036D01*
X164497Y463000D01*
X164634Y461964D01*
X165033Y460999D01*
X165670Y460170D01*
X166499Y459534D01*
X167464Y459134D01*
X168500Y458997D01*
X169536Y459134D01*
X170501Y459534D01*
X171330Y460170D01*
X171967Y460999D01*
X172366Y461964D01*
X172503Y463000D01*
X172366Y464036D01*
X171967Y465001D01*
X171330Y465830D01*
X170501Y466467D01*
X169536Y466866D01*
X168500Y467003D01*
D02*
G37*
G36*
X158658D02*
X157622Y466866D01*
X156656Y466467D01*
X155827Y465830D01*
X155191Y465001D01*
X154791Y464036D01*
X154655Y463000D01*
X154791Y461964D01*
X155191Y460999D01*
X155827Y460170D01*
X156656Y459534D01*
X157622Y459134D01*
X158658Y458997D01*
X159694Y459134D01*
X160659Y459534D01*
X161488Y460170D01*
X162124Y460999D01*
X162524Y461964D01*
X162660Y463000D01*
X162524Y464036D01*
X162124Y465001D01*
X161488Y465830D01*
X160659Y466467D01*
X159694Y466866D01*
X158658Y467003D01*
D02*
G37*
G36*
X351248Y448748D02*
X342752D01*
Y440252D01*
X351248D01*
Y448748D01*
D02*
G37*
G36*
X293376Y478994D02*
X292601Y478892D01*
X291879Y478593D01*
X291259Y478117D01*
X290783Y477497D01*
X290484Y476775D01*
X290382Y476000D01*
X290484Y475225D01*
X290783Y474503D01*
X291259Y473883D01*
X291879Y473407D01*
X292601Y473108D01*
X293376Y473006D01*
X294151Y473108D01*
X294873Y473407D01*
X295493Y473883D01*
X295944Y474471D01*
X312866D01*
X335471Y451866D01*
Y448464D01*
X334858Y448211D01*
X333970Y447530D01*
X333289Y446642D01*
X332861Y445609D01*
X332715Y444500D01*
X332861Y443391D01*
X333289Y442358D01*
X333970Y441470D01*
X334858Y440789D01*
X335891Y440361D01*
X337000Y440215D01*
X338109Y440361D01*
X339142Y440789D01*
X340030Y441470D01*
X340711Y442358D01*
X341139Y443391D01*
X341285Y444500D01*
X341139Y445609D01*
X340711Y446642D01*
X340030Y447530D01*
X339142Y448211D01*
X338529Y448464D01*
Y452500D01*
X338413Y453085D01*
X338081Y453581D01*
X314581Y477081D01*
X314085Y477413D01*
X313500Y477529D01*
X295944D01*
X295493Y478117D01*
X294873Y478593D01*
X294151Y478892D01*
X293376Y478994D01*
D02*
G37*
G36*
X327000Y448785D02*
X325891Y448639D01*
X324858Y448211D01*
X323970Y447530D01*
X323289Y446642D01*
X322861Y445609D01*
X322715Y444500D01*
X322861Y443391D01*
X323289Y442358D01*
X323970Y441470D01*
X324858Y440789D01*
X325891Y440361D01*
X327000Y440215D01*
X328109Y440361D01*
X329142Y440789D01*
X330030Y441470D01*
X330711Y442358D01*
X331139Y443391D01*
X331285Y444500D01*
X331139Y445609D01*
X330711Y446642D01*
X330030Y447530D01*
X329142Y448211D01*
X328109Y448639D01*
X327000Y448785D01*
D02*
G37*
G36*
X287000D02*
X285891Y448639D01*
X284858Y448211D01*
X283970Y447530D01*
X283289Y446642D01*
X282861Y445609D01*
X282715Y444500D01*
X282861Y443391D01*
X283289Y442358D01*
X283970Y441470D01*
X284858Y440789D01*
X285891Y440361D01*
X287000Y440215D01*
X288109Y440361D01*
X289142Y440789D01*
X290030Y441470D01*
X290711Y442358D01*
X291139Y443391D01*
X291285Y444500D01*
X291139Y445609D01*
X290711Y446642D01*
X290030Y447530D01*
X289142Y448211D01*
X288109Y448639D01*
X287000Y448785D01*
D02*
G37*
G36*
X277000D02*
X275891Y448639D01*
X274858Y448211D01*
X273970Y447530D01*
X273289Y446642D01*
X272861Y445609D01*
X272715Y444500D01*
X272861Y443391D01*
X273289Y442358D01*
X273970Y441470D01*
X274858Y440789D01*
X275891Y440361D01*
X277000Y440215D01*
X278109Y440361D01*
X279142Y440789D01*
X280030Y441470D01*
X280711Y442358D01*
X281139Y443391D01*
X281285Y444500D01*
X281139Y445609D01*
X280711Y446642D01*
X280030Y447530D01*
X279142Y448211D01*
X278109Y448639D01*
X277000Y448785D01*
D02*
G37*
G36*
X119500Y443035D02*
Y438721D01*
X123814D01*
X123714Y439484D01*
X123226Y440661D01*
X122451Y441671D01*
X121440Y442447D01*
X120263Y442935D01*
X119500Y443035D01*
D02*
G37*
G36*
X118500Y443035D02*
X117737Y442935D01*
X116560Y442447D01*
X115549Y441671D01*
X114773Y440661D01*
X114286Y439484D01*
X114186Y438721D01*
X118500D01*
Y443035D01*
D02*
G37*
G36*
X123814Y437720D02*
X119500D01*
Y433406D01*
X120263Y433506D01*
X121440Y433994D01*
X122451Y434770D01*
X123226Y435780D01*
X123714Y436957D01*
X123814Y437720D01*
D02*
G37*
G36*
X118500D02*
X114186D01*
X114286Y436957D01*
X114773Y435780D01*
X115549Y434770D01*
X116560Y433994D01*
X117737Y433506D01*
X118500Y433406D01*
Y437720D01*
D02*
G37*
G36*
X317000Y448785D02*
X315891Y448639D01*
X314858Y448211D01*
X313970Y447530D01*
X313289Y446642D01*
X312861Y445609D01*
X312715Y444500D01*
X312861Y443391D01*
X313289Y442358D01*
X313970Y441470D01*
X314858Y440789D01*
X315471Y440535D01*
Y420500D01*
X315587Y419915D01*
X315919Y419419D01*
X317846Y417491D01*
X317654Y417029D01*
X313134D01*
X308529Y421633D01*
Y440535D01*
X309142Y440789D01*
X310030Y441470D01*
X310711Y442358D01*
X311139Y443391D01*
X311285Y444500D01*
X311139Y445609D01*
X310711Y446642D01*
X310030Y447530D01*
X309142Y448211D01*
X308109Y448639D01*
X307000Y448785D01*
X305891Y448639D01*
X304858Y448211D01*
X303970Y447530D01*
X303289Y446642D01*
X302861Y445609D01*
X302715Y444500D01*
X302861Y443391D01*
X303289Y442358D01*
X303970Y441470D01*
X304858Y440789D01*
X305471Y440535D01*
Y421000D01*
X305587Y420415D01*
X305919Y419919D01*
X310346Y415491D01*
X310154Y415029D01*
X302634D01*
X298529Y419134D01*
Y440535D01*
X299142Y440789D01*
X300030Y441470D01*
X300711Y442358D01*
X301139Y443391D01*
X301285Y444500D01*
X301139Y445609D01*
X300711Y446642D01*
X300030Y447530D01*
X299142Y448211D01*
X298109Y448639D01*
X297000Y448785D01*
X295891Y448639D01*
X294858Y448211D01*
X293970Y447530D01*
X293289Y446642D01*
X292861Y445609D01*
X292715Y444500D01*
X292861Y443391D01*
X293289Y442358D01*
X293970Y441470D01*
X294858Y440789D01*
X295471Y440535D01*
Y418500D01*
X295587Y417915D01*
X295919Y417419D01*
X300919Y412419D01*
X301415Y412087D01*
X302000Y411971D01*
X336367D01*
X341471Y406867D01*
Y342133D01*
X337367Y338029D01*
X272500D01*
X271915Y337913D01*
X271419Y337581D01*
X238735Y304897D01*
X238000Y304994D01*
X237225Y304892D01*
X236503Y304593D01*
X235883Y304117D01*
X235407Y303497D01*
X235108Y302775D01*
X235006Y302000D01*
X235108Y301225D01*
X235407Y300503D01*
X235883Y299883D01*
X236503Y299407D01*
X237225Y299108D01*
X238000Y299006D01*
X238775Y299108D01*
X239497Y299407D01*
X240117Y299883D01*
X240593Y300503D01*
X240892Y301225D01*
X240994Y302000D01*
X240897Y302734D01*
X253009Y314846D01*
X253471Y314654D01*
Y310633D01*
X238735Y295897D01*
X238000Y295994D01*
X237225Y295892D01*
X236503Y295593D01*
X235883Y295117D01*
X235407Y294497D01*
X235108Y293775D01*
X235006Y293000D01*
X235108Y292225D01*
X235407Y291503D01*
X235883Y290883D01*
X236503Y290407D01*
X237225Y290108D01*
X238000Y290006D01*
X238775Y290108D01*
X239497Y290407D01*
X240117Y290883D01*
X240593Y291503D01*
X240892Y292225D01*
X240994Y293000D01*
X240897Y293735D01*
X256081Y308919D01*
X256413Y309415D01*
X256471Y309704D01*
X256971Y309655D01*
Y304633D01*
X238735Y286397D01*
X238000Y286494D01*
X237225Y286392D01*
X236503Y286093D01*
X235883Y285617D01*
X235407Y284997D01*
X235108Y284275D01*
X235006Y283500D01*
X235108Y282725D01*
X235407Y282003D01*
X235883Y281383D01*
X236503Y280907D01*
X237225Y280608D01*
X238000Y280506D01*
X238775Y280608D01*
X239497Y280907D01*
X240117Y281383D01*
X240593Y282003D01*
X240892Y282725D01*
X240994Y283500D01*
X240897Y284234D01*
X259581Y302919D01*
X259913Y303415D01*
X260029Y304000D01*
Y316210D01*
X274790Y330971D01*
X339657D01*
X340242Y331087D01*
X340738Y331419D01*
X348081Y338762D01*
X348413Y339258D01*
X348529Y339843D01*
Y409157D01*
X348413Y409742D01*
X348081Y410238D01*
X339738Y418581D01*
X339242Y418913D01*
X338657Y419029D01*
X320634D01*
X318529Y421134D01*
Y440535D01*
X319142Y440789D01*
X320030Y441470D01*
X320711Y442358D01*
X321139Y443391D01*
X321285Y444500D01*
X321139Y445609D01*
X320711Y446642D01*
X320030Y447530D01*
X319142Y448211D01*
X318109Y448639D01*
X317000Y448785D01*
D02*
G37*
G36*
X177398Y420398D02*
X170602D01*
Y413602D01*
X177398D01*
Y420398D01*
D02*
G37*
G36*
X164000Y420427D02*
X163113Y420310D01*
X162286Y419968D01*
X161577Y419423D01*
X161032Y418714D01*
X160690Y417887D01*
X160573Y417000D01*
X160690Y416113D01*
X161032Y415286D01*
X161577Y414577D01*
X162286Y414032D01*
X163113Y413690D01*
X164000Y413573D01*
X164887Y413690D01*
X165714Y414032D01*
X166423Y414577D01*
X166968Y415286D01*
X167310Y416113D01*
X167427Y417000D01*
X167310Y417887D01*
X166968Y418714D01*
X166423Y419423D01*
X165714Y419968D01*
X164887Y420310D01*
X164000Y420427D01*
D02*
G37*
G36*
X123839Y423059D02*
X114161D01*
Y413382D01*
X123839D01*
Y423059D01*
D02*
G37*
G36*
X224955Y409928D02*
X224680Y409892D01*
X223958Y409593D01*
X223338Y409117D01*
X222862Y408497D01*
X222748Y408222D01*
X222207D01*
X222093Y408497D01*
X221617Y409117D01*
X220997Y409593D01*
X220275Y409892D01*
X220000Y409928D01*
Y407000D01*
Y404072D01*
X220275Y404108D01*
X220997Y404407D01*
X221617Y404883D01*
X222093Y405503D01*
X222207Y405778D01*
X222748D01*
X222862Y405503D01*
X223338Y404883D01*
X223958Y404407D01*
X224680Y404108D01*
X224955Y404072D01*
Y407000D01*
Y409928D01*
D02*
G37*
G36*
X237000D02*
X236725Y409892D01*
X236003Y409593D01*
X235383Y409117D01*
X234907Y408497D01*
X234790Y408214D01*
X234249D01*
X234131Y408497D01*
X233656Y409117D01*
X233035Y409593D01*
X232313Y409892D01*
X232038Y409928D01*
Y407000D01*
Y404072D01*
X232313Y404108D01*
X233035Y404407D01*
X233656Y404883D01*
X234131Y405503D01*
X234249Y405786D01*
X234790D01*
X234907Y405503D01*
X235383Y404883D01*
X236003Y404407D01*
X236725Y404108D01*
X237000Y404072D01*
Y407000D01*
Y409928D01*
D02*
G37*
G36*
X243029D02*
X242754Y409892D01*
X242032Y409593D01*
X241412Y409117D01*
X240936Y408497D01*
X240785Y408132D01*
X240244D01*
X240093Y408497D01*
X239617Y409117D01*
X238997Y409593D01*
X238275Y409892D01*
X238000Y409928D01*
Y407000D01*
Y404072D01*
X238275Y404108D01*
X238997Y404407D01*
X239617Y404883D01*
X240093Y405503D01*
X240244Y405868D01*
X240785D01*
X240936Y405503D01*
X241412Y404883D01*
X242032Y404407D01*
X242754Y404108D01*
X243029Y404072D01*
Y407000D01*
Y409928D01*
D02*
G37*
G36*
X219000D02*
X218725Y409892D01*
X218003Y409593D01*
X217383Y409117D01*
X216907Y408497D01*
X216751Y408121D01*
X216210D01*
X216055Y408497D01*
X215579Y409117D01*
X214959Y409593D01*
X214236Y409892D01*
X213962Y409928D01*
Y407000D01*
Y404072D01*
X214236Y404108D01*
X214959Y404407D01*
X215579Y404883D01*
X216055Y405503D01*
X216210Y405879D01*
X216751D01*
X216907Y405503D01*
X217383Y404883D01*
X218003Y404407D01*
X218725Y404108D01*
X219000Y404072D01*
Y407000D01*
Y409928D01*
D02*
G37*
G36*
X231038D02*
X230764Y409892D01*
X230041Y409593D01*
X229421Y409117D01*
X228945Y408497D01*
X228767Y408067D01*
X228226D01*
X228048Y408497D01*
X227572Y409117D01*
X226952Y409593D01*
X226230Y409892D01*
X225955Y409928D01*
Y407000D01*
Y404072D01*
X226230Y404108D01*
X226952Y404407D01*
X227572Y404883D01*
X228048Y405503D01*
X228226Y405933D01*
X228767D01*
X228945Y405503D01*
X229421Y404883D01*
X230041Y404407D01*
X230764Y404108D01*
X231038Y404072D01*
Y407000D01*
Y409928D01*
D02*
G37*
G36*
X250500D02*
Y407500D01*
X252928D01*
X252892Y407775D01*
X252593Y408497D01*
X252117Y409117D01*
X251497Y409593D01*
X250775Y409892D01*
X250500Y409928D01*
D02*
G37*
G36*
X212962D02*
X212687Y409892D01*
X211965Y409593D01*
X211345Y409117D01*
X210869Y408497D01*
X210570Y407775D01*
X210533Y407500D01*
X212962D01*
Y409928D01*
D02*
G37*
G36*
X249500D02*
X249225Y409892D01*
X248503Y409593D01*
X247883Y409117D01*
X247407Y408497D01*
X247108Y407775D01*
X247017Y407083D01*
X246513D01*
X246422Y407775D01*
X246122Y408497D01*
X245647Y409117D01*
X245026Y409593D01*
X244304Y409892D01*
X244029Y409928D01*
Y407000D01*
Y404072D01*
X244304Y404108D01*
X245026Y404407D01*
X245647Y404883D01*
X246122Y405503D01*
X246422Y406225D01*
X246513Y406917D01*
X247017D01*
X247108Y406225D01*
X247407Y405503D01*
X247883Y404883D01*
X248503Y404407D01*
X249225Y404108D01*
X249500Y404072D01*
Y407000D01*
Y409928D01*
D02*
G37*
G36*
X252928Y406500D02*
X250500D01*
Y404072D01*
X250775Y404108D01*
X251497Y404407D01*
X252117Y404883D01*
X252593Y405503D01*
X252892Y406225D01*
X252928Y406500D01*
D02*
G37*
G36*
X212962D02*
X210533D01*
X210570Y406225D01*
X210869Y405503D01*
X211345Y404883D01*
X211965Y404407D01*
X212687Y404108D01*
X212962Y404072D01*
Y406500D01*
D02*
G37*
G36*
X219004Y403428D02*
X218729Y403392D01*
X218007Y403093D01*
X217387Y402617D01*
X216911Y401997D01*
X216816Y401767D01*
X216275D01*
X216180Y401997D01*
X215704Y402617D01*
X215084Y403093D01*
X214362Y403392D01*
X214087Y403428D01*
Y400500D01*
Y397572D01*
X214362Y397608D01*
X215084Y397907D01*
X215704Y398383D01*
X216180Y399003D01*
X216275Y399233D01*
X216816D01*
X216911Y399003D01*
X217387Y398383D01*
X218007Y397907D01*
X218729Y397608D01*
X219004Y397572D01*
Y400500D01*
Y403428D01*
D02*
G37*
G36*
X225000D02*
X224725Y403392D01*
X224003Y403093D01*
X223383Y402617D01*
X222907Y401997D01*
X222773Y401673D01*
X222231D01*
X222097Y401997D01*
X221621Y402617D01*
X221001Y403093D01*
X220279Y403392D01*
X220004Y403428D01*
Y400500D01*
Y397572D01*
X220279Y397608D01*
X221001Y397907D01*
X221621Y398383D01*
X222097Y399003D01*
X222231Y399327D01*
X222773D01*
X222907Y399003D01*
X223383Y398383D01*
X224003Y397907D01*
X224725Y397608D01*
X225000Y397572D01*
Y400500D01*
Y403428D01*
D02*
G37*
G36*
X243000D02*
X242725Y403392D01*
X242003Y403093D01*
X241383Y402617D01*
X240907Y401997D01*
X240771Y401668D01*
X240229D01*
X240093Y401997D01*
X239617Y402617D01*
X238997Y403093D01*
X238275Y403392D01*
X238000Y403428D01*
Y400500D01*
Y397572D01*
X238275Y397608D01*
X238997Y397907D01*
X239617Y398383D01*
X240093Y399003D01*
X240229Y399332D01*
X240771D01*
X240907Y399003D01*
X241383Y398383D01*
X242003Y397907D01*
X242725Y397608D01*
X243000Y397572D01*
Y400500D01*
Y403428D01*
D02*
G37*
G36*
X237000D02*
X236725Y403392D01*
X236003Y403093D01*
X235383Y402617D01*
X234907Y401997D01*
X234771Y401668D01*
X234229D01*
X234093Y401997D01*
X233617Y402617D01*
X232997Y403093D01*
X232275Y403392D01*
X232000Y403428D01*
Y400500D01*
Y397572D01*
X232275Y397608D01*
X232997Y397907D01*
X233617Y398383D01*
X234093Y399003D01*
X234229Y399332D01*
X234771D01*
X234907Y399003D01*
X235383Y398383D01*
X236003Y397907D01*
X236725Y397608D01*
X237000Y397572D01*
Y400500D01*
Y403428D01*
D02*
G37*
G36*
X231000D02*
X230725Y403392D01*
X230003Y403093D01*
X229383Y402617D01*
X228907Y401997D01*
X228771Y401668D01*
X228229D01*
X228093Y401997D01*
X227617Y402617D01*
X226997Y403093D01*
X226275Y403392D01*
X226000Y403428D01*
Y400500D01*
Y397572D01*
X226275Y397608D01*
X226997Y397907D01*
X227617Y398383D01*
X228093Y399003D01*
X228229Y399332D01*
X228771D01*
X228907Y399003D01*
X229383Y398383D01*
X230003Y397907D01*
X230725Y397608D01*
X231000Y397572D01*
Y400500D01*
Y403428D01*
D02*
G37*
G36*
X250500D02*
Y401000D01*
X252928D01*
X252892Y401275D01*
X252593Y401997D01*
X252117Y402617D01*
X251497Y403093D01*
X250775Y403392D01*
X250500Y403428D01*
D02*
G37*
G36*
X249500D02*
X249225Y403392D01*
X248503Y403093D01*
X247883Y402617D01*
X247407Y401997D01*
X247108Y401275D01*
X247072Y401000D01*
X249500D01*
Y403428D01*
D02*
G37*
G36*
X244000D02*
Y401000D01*
X246428D01*
X246392Y401275D01*
X246093Y401997D01*
X245617Y402617D01*
X244997Y403093D01*
X244275Y403392D01*
X244000Y403428D01*
D02*
G37*
G36*
X213087D02*
X212812Y403392D01*
X212090Y403093D01*
X211470Y402617D01*
X210994Y401997D01*
X210695Y401275D01*
X210658Y401000D01*
X213087D01*
Y403428D01*
D02*
G37*
G36*
X252928Y400000D02*
X250500D01*
Y397572D01*
X250775Y397608D01*
X251497Y397907D01*
X252117Y398383D01*
X252593Y399003D01*
X252892Y399725D01*
X252928Y400000D01*
D02*
G37*
G36*
X249500D02*
X247072D01*
X247108Y399725D01*
X247407Y399003D01*
X247883Y398383D01*
X248503Y397907D01*
X249225Y397608D01*
X249500Y397572D01*
Y400000D01*
D02*
G37*
G36*
X246428D02*
X244000D01*
Y397572D01*
X244275Y397608D01*
X244997Y397907D01*
X245617Y398383D01*
X246093Y399003D01*
X246392Y399725D01*
X246428Y400000D01*
D02*
G37*
G36*
X213087D02*
X210658D01*
X210695Y399725D01*
X210994Y399003D01*
X211470Y398383D01*
X212090Y397907D01*
X212812Y397608D01*
X213087Y397572D01*
Y400000D01*
D02*
G37*
G36*
X124339Y470839D02*
X114661D01*
Y461161D01*
X121455D01*
X131558Y451058D01*
X132220Y450616D01*
X133000Y450461D01*
X243155D01*
X288961Y404655D01*
Y396482D01*
X288047D01*
X287462Y396366D01*
X287047Y396089D01*
X286632Y396366D01*
X286047Y396482D01*
X286000Y396473D01*
X285953Y396482D01*
X280047D01*
X279462Y396366D01*
X278966Y396034D01*
X278634Y395538D01*
X278518Y394953D01*
Y387902D01*
X260655Y370039D01*
X203845D01*
X157364Y416520D01*
X157427Y417000D01*
X157310Y417887D01*
X156968Y418714D01*
X156423Y419423D01*
X155713Y419968D01*
X154887Y420310D01*
X154000Y420427D01*
X153113Y420310D01*
X152287Y419968D01*
X151577Y419423D01*
X151032Y418714D01*
X150690Y417887D01*
X150573Y417000D01*
X150690Y416113D01*
X151032Y415286D01*
X151577Y414577D01*
X152287Y414032D01*
X153113Y413690D01*
X154000Y413573D01*
X154480Y413636D01*
X201558Y366558D01*
X202220Y366116D01*
X203000Y365961D01*
X259461D01*
Y342677D01*
X259383Y342617D01*
X258932Y342029D01*
X251619D01*
X251449Y342529D01*
X251461Y342539D01*
X251902Y343113D01*
X252179Y343782D01*
X252208Y344000D01*
X246792D01*
X246821Y343782D01*
X247098Y343113D01*
X247539Y342539D01*
X247551Y342529D01*
X247381Y342029D01*
X244634D01*
X242703Y343960D01*
X242774Y344500D01*
X242679Y345218D01*
X242402Y345887D01*
X241961Y346461D01*
X241387Y346902D01*
X240718Y347179D01*
X240000Y347274D01*
X239282Y347179D01*
X238613Y346902D01*
X238039Y346461D01*
X237598Y345887D01*
X237321Y345218D01*
X237226Y344500D01*
X237321Y343782D01*
X237598Y343113D01*
X238039Y342539D01*
X238613Y342098D01*
X239282Y341821D01*
X240000Y341726D01*
X240540Y341797D01*
X242919Y339419D01*
X243415Y339087D01*
X244000Y338971D01*
X258932D01*
X259383Y338383D01*
X260003Y337907D01*
X260725Y337608D01*
X261500Y337506D01*
X262275Y337608D01*
X262997Y337907D01*
X263617Y338383D01*
X264093Y339003D01*
X264392Y339725D01*
X264494Y340500D01*
X264392Y341275D01*
X264093Y341997D01*
X263617Y342617D01*
X263539Y342677D01*
Y367155D01*
X278491Y382107D01*
X278966Y382060D01*
X279462Y381729D01*
X280047Y381612D01*
X285953D01*
X286000Y381622D01*
X286047Y381612D01*
X286632Y381729D01*
X287047Y382006D01*
X287462Y381729D01*
X288047Y381612D01*
X293953D01*
X293976Y381617D01*
X294000Y381612D01*
X294585Y381729D01*
X295081Y382060D01*
X295413Y382557D01*
X295529Y383142D01*
Y383565D01*
X295962Y383816D01*
X296751Y383365D01*
X322967Y357150D01*
Y352321D01*
X331167D01*
Y360522D01*
X325362D01*
X299442Y386442D01*
X299216Y386593D01*
X299012Y386771D01*
X295529Y388760D01*
Y394953D01*
X295413Y395538D01*
X295081Y396034D01*
X294585Y396366D01*
X294000Y396482D01*
X293039D01*
Y405500D01*
X292884Y406280D01*
X292442Y406942D01*
X245442Y453942D01*
X244780Y454384D01*
X244000Y454539D01*
X133845D01*
X124339Y464045D01*
Y470839D01*
D02*
G37*
G36*
X243000Y396928D02*
X242725Y396892D01*
X242003Y396593D01*
X241383Y396117D01*
X240907Y395497D01*
X240771Y395168D01*
X240229D01*
X240093Y395497D01*
X239617Y396117D01*
X238997Y396593D01*
X238275Y396892D01*
X238000Y396928D01*
Y394000D01*
Y391072D01*
X238275Y391108D01*
X238997Y391407D01*
X239617Y391883D01*
X240093Y392503D01*
X240229Y392832D01*
X240771D01*
X240907Y392503D01*
X241383Y391883D01*
X242003Y391407D01*
X242725Y391108D01*
X243000Y391072D01*
Y394000D01*
Y396928D01*
D02*
G37*
G36*
X237000D02*
X236725Y396892D01*
X236003Y396593D01*
X235383Y396117D01*
X234907Y395497D01*
X234771Y395168D01*
X234229D01*
X234093Y395497D01*
X233617Y396117D01*
X232997Y396593D01*
X232275Y396892D01*
X232000Y396928D01*
Y394000D01*
Y391072D01*
X232275Y391108D01*
X232997Y391407D01*
X233617Y391883D01*
X234093Y392503D01*
X234229Y392832D01*
X234771D01*
X234907Y392503D01*
X235383Y391883D01*
X236003Y391407D01*
X236725Y391108D01*
X237000Y391072D01*
Y394000D01*
Y396928D01*
D02*
G37*
G36*
X231000D02*
X230725Y396892D01*
X230003Y396593D01*
X229383Y396117D01*
X228907Y395497D01*
X228771Y395168D01*
X228229D01*
X228093Y395497D01*
X227617Y396117D01*
X226997Y396593D01*
X226275Y396892D01*
X226000Y396928D01*
Y394000D01*
Y391072D01*
X226275Y391108D01*
X226997Y391407D01*
X227617Y391883D01*
X228093Y392503D01*
X228229Y392832D01*
X228771D01*
X228907Y392503D01*
X229383Y391883D01*
X230003Y391407D01*
X230725Y391108D01*
X231000Y391072D01*
Y394000D01*
Y396928D01*
D02*
G37*
G36*
X225000D02*
X224725Y396892D01*
X224003Y396593D01*
X223383Y396117D01*
X222907Y395497D01*
X222771Y395168D01*
X222229D01*
X222093Y395497D01*
X221617Y396117D01*
X220997Y396593D01*
X220275Y396892D01*
X220000Y396928D01*
Y394000D01*
Y391072D01*
X220275Y391108D01*
X220997Y391407D01*
X221617Y391883D01*
X222093Y392503D01*
X222229Y392832D01*
X222771D01*
X222907Y392503D01*
X223383Y391883D01*
X224003Y391407D01*
X224725Y391108D01*
X225000Y391072D01*
Y394000D01*
Y396928D01*
D02*
G37*
G36*
X219000D02*
X218725Y396892D01*
X218003Y396593D01*
X217383Y396117D01*
X216907Y395497D01*
X216771Y395168D01*
X216229D01*
X216093Y395497D01*
X215617Y396117D01*
X214997Y396593D01*
X214275Y396892D01*
X214000Y396928D01*
Y394000D01*
Y391072D01*
X214275Y391108D01*
X214997Y391407D01*
X215617Y391883D01*
X216093Y392503D01*
X216229Y392832D01*
X216771D01*
X216907Y392503D01*
X217383Y391883D01*
X218003Y391407D01*
X218725Y391108D01*
X219000Y391072D01*
Y394000D01*
Y396928D01*
D02*
G37*
G36*
X250500D02*
Y394500D01*
X252928D01*
X252892Y394775D01*
X252593Y395497D01*
X252117Y396117D01*
X251497Y396593D01*
X250775Y396892D01*
X250500Y396928D01*
D02*
G37*
G36*
X249500D02*
X249225Y396892D01*
X248503Y396593D01*
X247883Y396117D01*
X247407Y395497D01*
X247108Y394775D01*
X247072Y394500D01*
X249500D01*
Y396928D01*
D02*
G37*
G36*
X244000D02*
Y394500D01*
X246428D01*
X246392Y394775D01*
X246093Y395497D01*
X245617Y396117D01*
X244997Y396593D01*
X244275Y396892D01*
X244000Y396928D01*
D02*
G37*
G36*
X213000D02*
X212725Y396892D01*
X212003Y396593D01*
X211383Y396117D01*
X210907Y395497D01*
X210608Y394775D01*
X210572Y394500D01*
X213000D01*
Y396928D01*
D02*
G37*
G36*
X252928Y393500D02*
X250500D01*
Y391072D01*
X250775Y391108D01*
X251497Y391407D01*
X252117Y391883D01*
X252593Y392503D01*
X252892Y393225D01*
X252928Y393500D01*
D02*
G37*
G36*
X249500D02*
X247072D01*
X247108Y393225D01*
X247407Y392503D01*
X247883Y391883D01*
X248503Y391407D01*
X249225Y391108D01*
X249500Y391072D01*
Y393500D01*
D02*
G37*
G36*
X246428D02*
X244000D01*
Y391072D01*
X244275Y391108D01*
X244997Y391407D01*
X245617Y391883D01*
X246093Y392503D01*
X246392Y393225D01*
X246428Y393500D01*
D02*
G37*
G36*
X213000D02*
X210572D01*
X210608Y393225D01*
X210907Y392503D01*
X211383Y391883D01*
X212003Y391407D01*
X212725Y391108D01*
X213000Y391072D01*
Y393500D01*
D02*
G37*
G36*
X219000Y390428D02*
X218725Y390392D01*
X218003Y390093D01*
X217383Y389617D01*
X216907Y388997D01*
X216814Y388772D01*
X216273D01*
X216180Y388997D01*
X215704Y389617D01*
X215084Y390093D01*
X214362Y390392D01*
X214087Y390428D01*
Y387500D01*
Y384572D01*
X214362Y384608D01*
X215084Y384907D01*
X215704Y385383D01*
X216180Y386003D01*
X216273Y386228D01*
X216814D01*
X216907Y386003D01*
X217383Y385383D01*
X218003Y384907D01*
X218725Y384608D01*
X219000Y384572D01*
Y387500D01*
Y390428D01*
D02*
G37*
G36*
X225000D02*
X224725Y390392D01*
X224003Y390093D01*
X223383Y389617D01*
X222907Y388997D01*
X222771Y388668D01*
X222229D01*
X222093Y388997D01*
X221617Y389617D01*
X220997Y390093D01*
X220275Y390392D01*
X220000Y390428D01*
Y387500D01*
Y384572D01*
X220275Y384608D01*
X220997Y384907D01*
X221617Y385383D01*
X222093Y386003D01*
X222229Y386332D01*
X222771D01*
X222907Y386003D01*
X223383Y385383D01*
X224003Y384907D01*
X224725Y384608D01*
X225000Y384572D01*
Y387500D01*
Y390428D01*
D02*
G37*
G36*
X243000D02*
X242725Y390392D01*
X242003Y390093D01*
X241383Y389617D01*
X240907Y388997D01*
X240771Y388668D01*
X240229D01*
X240093Y388997D01*
X239617Y389617D01*
X238997Y390093D01*
X238275Y390392D01*
X238000Y390428D01*
Y387500D01*
Y384572D01*
X238275Y384608D01*
X238997Y384907D01*
X239617Y385383D01*
X240093Y386003D01*
X240229Y386332D01*
X240771D01*
X240907Y386003D01*
X241383Y385383D01*
X242003Y384907D01*
X242725Y384608D01*
X243000Y384572D01*
Y387500D01*
Y390428D01*
D02*
G37*
G36*
X237000D02*
X236725Y390392D01*
X236003Y390093D01*
X235383Y389617D01*
X234907Y388997D01*
X234771Y388668D01*
X234229D01*
X234093Y388997D01*
X233617Y389617D01*
X232997Y390093D01*
X232275Y390392D01*
X232000Y390428D01*
Y387500D01*
Y384572D01*
X232275Y384608D01*
X232997Y384907D01*
X233617Y385383D01*
X234093Y386003D01*
X234229Y386332D01*
X234771D01*
X234907Y386003D01*
X235383Y385383D01*
X236003Y384907D01*
X236725Y384608D01*
X237000Y384572D01*
Y387500D01*
Y390428D01*
D02*
G37*
G36*
X231000D02*
X230725Y390392D01*
X230003Y390093D01*
X229383Y389617D01*
X228907Y388997D01*
X228771Y388668D01*
X228229D01*
X228093Y388997D01*
X227617Y389617D01*
X226997Y390093D01*
X226275Y390392D01*
X226000Y390428D01*
Y387500D01*
Y384572D01*
X226275Y384608D01*
X226997Y384907D01*
X227617Y385383D01*
X228093Y386003D01*
X228229Y386332D01*
X228771D01*
X228907Y386003D01*
X229383Y385383D01*
X230003Y384907D01*
X230725Y384608D01*
X231000Y384572D01*
Y387500D01*
Y390428D01*
D02*
G37*
G36*
X250500D02*
Y388000D01*
X252928D01*
X252892Y388275D01*
X252593Y388997D01*
X252117Y389617D01*
X251497Y390093D01*
X250775Y390392D01*
X250500Y390428D01*
D02*
G37*
G36*
X249500D02*
X249225Y390392D01*
X248503Y390093D01*
X247883Y389617D01*
X247407Y388997D01*
X247108Y388275D01*
X247072Y388000D01*
X249500D01*
Y390428D01*
D02*
G37*
G36*
X244000D02*
Y388000D01*
X246428D01*
X246392Y388275D01*
X246093Y388997D01*
X245617Y389617D01*
X244997Y390093D01*
X244275Y390392D01*
X244000Y390428D01*
D02*
G37*
G36*
X213087D02*
X212812Y390392D01*
X212090Y390093D01*
X211470Y389617D01*
X210994Y388997D01*
X210695Y388275D01*
X210658Y388000D01*
X213087D01*
Y390428D01*
D02*
G37*
G36*
X252928Y387000D02*
X250500D01*
Y384572D01*
X250775Y384608D01*
X251497Y384907D01*
X252117Y385383D01*
X252593Y386003D01*
X252892Y386725D01*
X252928Y387000D01*
D02*
G37*
G36*
X249500D02*
X247072D01*
X247108Y386725D01*
X247407Y386003D01*
X247883Y385383D01*
X248503Y384907D01*
X249225Y384608D01*
X249500Y384572D01*
Y387000D01*
D02*
G37*
G36*
X246428D02*
X244000D01*
Y384572D01*
X244275Y384608D01*
X244997Y384907D01*
X245617Y385383D01*
X246093Y386003D01*
X246392Y386725D01*
X246428Y387000D01*
D02*
G37*
G36*
X213087D02*
X210658D01*
X210695Y386725D01*
X210994Y386003D01*
X211470Y385383D01*
X212090Y384907D01*
X212812Y384608D01*
X213087Y384572D01*
Y387000D01*
D02*
G37*
G36*
X219004Y383928D02*
X218729Y383892D01*
X218007Y383593D01*
X217387Y383117D01*
X216911Y382497D01*
X216816Y382267D01*
X216275D01*
X216180Y382497D01*
X215704Y383117D01*
X215084Y383593D01*
X214362Y383892D01*
X214087Y383928D01*
Y381000D01*
Y378072D01*
X214362Y378108D01*
X215084Y378407D01*
X215704Y378883D01*
X216180Y379503D01*
X216275Y379732D01*
X216816D01*
X216911Y379503D01*
X217387Y378883D01*
X218007Y378407D01*
X218729Y378108D01*
X219004Y378072D01*
Y381000D01*
Y383928D01*
D02*
G37*
G36*
X225000D02*
X224725Y383892D01*
X224003Y383593D01*
X223383Y383117D01*
X222907Y382497D01*
X222773Y382172D01*
X222231D01*
X222097Y382497D01*
X221621Y383117D01*
X221001Y383593D01*
X220279Y383892D01*
X220004Y383928D01*
Y381000D01*
Y378072D01*
X220279Y378108D01*
X221001Y378407D01*
X221621Y378883D01*
X222097Y379503D01*
X222231Y379827D01*
X222773D01*
X222907Y379503D01*
X223383Y378883D01*
X224003Y378407D01*
X224725Y378108D01*
X225000Y378072D01*
Y381000D01*
Y383928D01*
D02*
G37*
G36*
X243000D02*
X242725Y383892D01*
X242003Y383593D01*
X241383Y383117D01*
X240907Y382497D01*
X240771Y382168D01*
X240229D01*
X240093Y382497D01*
X239617Y383117D01*
X238997Y383593D01*
X238275Y383892D01*
X238000Y383928D01*
Y381000D01*
Y378072D01*
X238275Y378108D01*
X238997Y378407D01*
X239617Y378883D01*
X240093Y379503D01*
X240229Y379832D01*
X240771D01*
X240907Y379503D01*
X241383Y378883D01*
X242003Y378407D01*
X242725Y378108D01*
X243000Y378072D01*
Y381000D01*
Y383928D01*
D02*
G37*
G36*
X237000D02*
X236725Y383892D01*
X236003Y383593D01*
X235383Y383117D01*
X234907Y382497D01*
X234771Y382168D01*
X234229D01*
X234093Y382497D01*
X233617Y383117D01*
X232997Y383593D01*
X232275Y383892D01*
X232000Y383928D01*
Y381000D01*
Y378072D01*
X232275Y378108D01*
X232997Y378407D01*
X233617Y378883D01*
X234093Y379503D01*
X234229Y379832D01*
X234771D01*
X234907Y379503D01*
X235383Y378883D01*
X236003Y378407D01*
X236725Y378108D01*
X237000Y378072D01*
Y381000D01*
Y383928D01*
D02*
G37*
G36*
X231000D02*
X230725Y383892D01*
X230003Y383593D01*
X229383Y383117D01*
X228907Y382497D01*
X228771Y382168D01*
X228229D01*
X228093Y382497D01*
X227617Y383117D01*
X226997Y383593D01*
X226275Y383892D01*
X226000Y383928D01*
Y381000D01*
Y378072D01*
X226275Y378108D01*
X226997Y378407D01*
X227617Y378883D01*
X228093Y379503D01*
X228229Y379832D01*
X228771D01*
X228907Y379503D01*
X229383Y378883D01*
X230003Y378407D01*
X230725Y378108D01*
X231000Y378072D01*
Y381000D01*
Y383928D01*
D02*
G37*
G36*
X250500D02*
Y381500D01*
X252928D01*
X252892Y381775D01*
X252593Y382497D01*
X252117Y383117D01*
X251497Y383593D01*
X250775Y383892D01*
X250500Y383928D01*
D02*
G37*
G36*
X249500D02*
X249225Y383892D01*
X248503Y383593D01*
X247883Y383117D01*
X247407Y382497D01*
X247108Y381775D01*
X247072Y381500D01*
X249500D01*
Y383928D01*
D02*
G37*
G36*
X244000D02*
Y381500D01*
X246428D01*
X246392Y381775D01*
X246093Y382497D01*
X245617Y383117D01*
X244997Y383593D01*
X244275Y383892D01*
X244000Y383928D01*
D02*
G37*
G36*
X213087D02*
X212812Y383892D01*
X212090Y383593D01*
X211470Y383117D01*
X210994Y382497D01*
X210695Y381775D01*
X210658Y381500D01*
X213087D01*
Y383928D01*
D02*
G37*
G36*
X252928Y380500D02*
X250500D01*
Y378072D01*
X250775Y378108D01*
X251497Y378407D01*
X252117Y378883D01*
X252593Y379503D01*
X252892Y380225D01*
X252928Y380500D01*
D02*
G37*
G36*
X249500D02*
X247072D01*
X247108Y380225D01*
X247407Y379503D01*
X247883Y378883D01*
X248503Y378407D01*
X249225Y378108D01*
X249500Y378072D01*
Y380500D01*
D02*
G37*
G36*
X246428D02*
X244000D01*
Y378072D01*
X244275Y378108D01*
X244997Y378407D01*
X245617Y378883D01*
X246093Y379503D01*
X246392Y380225D01*
X246428Y380500D01*
D02*
G37*
G36*
X213087D02*
X210658D01*
X210695Y380225D01*
X210994Y379503D01*
X211470Y378883D01*
X212090Y378407D01*
X212812Y378108D01*
X213087Y378072D01*
Y380500D01*
D02*
G37*
G36*
X250000Y347208D02*
Y345000D01*
X252208D01*
X252179Y345218D01*
X251902Y345887D01*
X251461Y346461D01*
X250887Y346902D01*
X250218Y347179D01*
X250000Y347208D01*
D02*
G37*
G36*
X249000D02*
X248782Y347179D01*
X248113Y346902D01*
X247539Y346461D01*
X247098Y345887D01*
X246821Y345218D01*
X246792Y345000D01*
X249000D01*
Y347208D01*
D02*
G37*
G36*
X327067Y350714D02*
X325996Y350574D01*
X324999Y350160D01*
X324143Y349503D01*
X323485Y348647D01*
X323072Y347649D01*
X322931Y346579D01*
X323072Y345508D01*
X323485Y344511D01*
X324143Y343654D01*
X324999Y342997D01*
X325996Y342584D01*
X327067Y342443D01*
X328137Y342584D01*
X329135Y342997D01*
X329991Y343654D01*
X330649Y344511D01*
X331062Y345508D01*
X331203Y346579D01*
X331062Y347649D01*
X330649Y348647D01*
X329991Y349503D01*
X329135Y350160D01*
X328137Y350574D01*
X327067Y350714D01*
D02*
G37*
G36*
X277500Y322219D02*
Y318500D01*
X281219D01*
X281139Y319109D01*
X280711Y320142D01*
X280030Y321030D01*
X279142Y321711D01*
X278109Y322139D01*
X277500Y322219D01*
D02*
G37*
G36*
X276500D02*
X275891Y322139D01*
X274858Y321711D01*
X273970Y321030D01*
X273289Y320142D01*
X272861Y319109D01*
X272781Y318500D01*
X276500D01*
Y322219D01*
D02*
G37*
G36*
X281219Y317500D02*
X277500D01*
Y313781D01*
X278109Y313861D01*
X279142Y314289D01*
X280030Y314970D01*
X280711Y315858D01*
X281139Y316891D01*
X281219Y317500D01*
D02*
G37*
G36*
X276500D02*
X272781D01*
X272861Y316891D01*
X273289Y315858D01*
X273970Y314970D01*
X274858Y314289D01*
X275891Y313861D01*
X276500Y313781D01*
Y317500D01*
D02*
G37*
G36*
X297000Y322285D02*
X295891Y322139D01*
X294858Y321711D01*
X293970Y321030D01*
X293289Y320142D01*
X292861Y319109D01*
X292715Y318000D01*
X292861Y316891D01*
X293289Y315858D01*
X293970Y314970D01*
X294858Y314289D01*
X295891Y313861D01*
X297000Y313715D01*
X298109Y313861D01*
X299142Y314289D01*
X300030Y314970D01*
X300711Y315858D01*
X301139Y316891D01*
X301285Y318000D01*
X301139Y319109D01*
X300711Y320142D01*
X300030Y321030D01*
X299142Y321711D01*
X298109Y322139D01*
X297000Y322285D01*
D02*
G37*
G36*
X287000D02*
X285891Y322139D01*
X284858Y321711D01*
X283970Y321030D01*
X283289Y320142D01*
X282861Y319109D01*
X282715Y318000D01*
X282861Y316891D01*
X283289Y315858D01*
X283970Y314970D01*
X284858Y314289D01*
X285891Y313861D01*
X287000Y313715D01*
X288109Y313861D01*
X289142Y314289D01*
X290030Y314970D01*
X290711Y315858D01*
X291139Y316891D01*
X291285Y318000D01*
X291139Y319109D01*
X290711Y320142D01*
X290030Y321030D01*
X289142Y321711D01*
X288109Y322139D01*
X287000Y322285D01*
D02*
G37*
G36*
X146468Y313469D02*
X138531D01*
Y305532D01*
X146468D01*
Y313469D01*
D02*
G37*
G36*
X142500Y303660D02*
X141464Y303524D01*
X140499Y303124D01*
X139670Y302488D01*
X139033Y301659D01*
X138634Y300693D01*
X138497Y299658D01*
X138634Y298622D01*
X139033Y297656D01*
X139670Y296827D01*
X140499Y296191D01*
X141464Y295791D01*
X142500Y295655D01*
X143536Y295791D01*
X144501Y296191D01*
X145330Y296827D01*
X145966Y297656D01*
X146366Y298622D01*
X146503Y299658D01*
X146366Y300693D01*
X145966Y301659D01*
X145330Y302488D01*
X144501Y303124D01*
X143536Y303524D01*
X142500Y303660D01*
D02*
G37*
G36*
X192500Y338994D02*
X191725Y338892D01*
X191003Y338593D01*
X190383Y338117D01*
X189907Y337497D01*
X189608Y336775D01*
X189506Y336000D01*
X189608Y335225D01*
X189907Y334503D01*
X190383Y333883D01*
X190971Y333432D01*
Y292949D01*
X189366Y291344D01*
X146162D01*
X145966Y291816D01*
X145330Y292645D01*
X144501Y293281D01*
X143536Y293681D01*
X142500Y293818D01*
X141464Y293681D01*
X140499Y293281D01*
X139670Y292645D01*
X139033Y291816D01*
X138634Y290851D01*
X138497Y289815D01*
X138634Y288779D01*
X139033Y287814D01*
X139670Y286985D01*
X140499Y286349D01*
X141464Y285949D01*
X142500Y285812D01*
X143536Y285949D01*
X144501Y286349D01*
X145330Y286985D01*
X145966Y287814D01*
X146162Y288286D01*
X190000D01*
X190585Y288402D01*
X191081Y288734D01*
X193581Y291233D01*
X193913Y291730D01*
X194029Y292315D01*
Y333432D01*
X194617Y333883D01*
X195093Y334503D01*
X195392Y335225D01*
X195494Y336000D01*
X195392Y336775D01*
X195093Y337497D01*
X194617Y338117D01*
X193997Y338593D01*
X193275Y338892D01*
X192500Y338994D01*
D02*
G37*
G36*
X143000Y283909D02*
Y280472D01*
X146437D01*
X146366Y281008D01*
X145966Y281974D01*
X145330Y282803D01*
X144501Y283439D01*
X143536Y283839D01*
X143000Y283909D01*
D02*
G37*
G36*
X142000D02*
X141464Y283839D01*
X140499Y283439D01*
X139670Y282803D01*
X139033Y281974D01*
X138634Y281008D01*
X138563Y280472D01*
X142000D01*
Y283909D01*
D02*
G37*
G36*
X146437Y279472D02*
X143000D01*
Y276035D01*
X143536Y276106D01*
X144501Y276506D01*
X145330Y277142D01*
X145966Y277971D01*
X146366Y278937D01*
X146437Y279472D01*
D02*
G37*
G36*
X142000D02*
X138563D01*
X138634Y278937D01*
X139033Y277971D01*
X139670Y277142D01*
X140499Y276506D01*
X141464Y276106D01*
X142000Y276035D01*
Y279472D01*
D02*
G37*
%LPD*%
G36*
X293953Y394905D02*
Y383142D01*
X288047D01*
Y394953D01*
X294000D01*
X293953Y394905D01*
D02*
G37*
G36*
X285953Y394858D02*
Y383142D01*
X280047D01*
Y394953D01*
X286047D01*
X285953Y394858D01*
D02*
G37*
%LPC*%
G36*
X353000Y306428D02*
Y304000D01*
X355428D01*
X355392Y304275D01*
X355093Y304997D01*
X354617Y305617D01*
X353997Y306093D01*
X353275Y306392D01*
X353000Y306428D01*
D02*
G37*
G36*
X352000D02*
X351725Y306392D01*
X351003Y306093D01*
X350383Y305617D01*
X349907Y304997D01*
X349608Y304275D01*
X349572Y304000D01*
X352000D01*
Y306428D01*
D02*
G37*
G36*
X342000D02*
Y304000D01*
X344428D01*
X344392Y304275D01*
X344093Y304997D01*
X343617Y305617D01*
X342997Y306093D01*
X342275Y306392D01*
X342000Y306428D01*
D02*
G37*
G36*
X341000D02*
X340725Y306392D01*
X340003Y306093D01*
X339383Y305617D01*
X338907Y304997D01*
X338608Y304275D01*
X338572Y304000D01*
X341000D01*
Y306428D01*
D02*
G37*
G36*
X331500D02*
Y304000D01*
X333928D01*
X333892Y304275D01*
X333593Y304997D01*
X333117Y305617D01*
X332497Y306093D01*
X331775Y306392D01*
X331500Y306428D01*
D02*
G37*
G36*
X330500D02*
X330225Y306392D01*
X329503Y306093D01*
X328883Y305617D01*
X328407Y304997D01*
X328108Y304275D01*
X328072Y304000D01*
X330500D01*
Y306428D01*
D02*
G37*
G36*
X355428Y303000D02*
X353000D01*
Y300572D01*
X353275Y300608D01*
X353997Y300907D01*
X354617Y301383D01*
X355093Y302003D01*
X355392Y302725D01*
X355428Y303000D01*
D02*
G37*
G36*
X352000D02*
X349572D01*
X349608Y302725D01*
X349907Y302003D01*
X350383Y301383D01*
X351003Y300907D01*
X351725Y300608D01*
X352000Y300572D01*
Y303000D01*
D02*
G37*
G36*
X344428D02*
X342000D01*
Y300572D01*
X342275Y300608D01*
X342997Y300907D01*
X343617Y301383D01*
X344093Y302003D01*
X344392Y302725D01*
X344428Y303000D01*
D02*
G37*
G36*
X341000D02*
X338572D01*
X338608Y302725D01*
X338907Y302003D01*
X339383Y301383D01*
X340003Y300907D01*
X340725Y300608D01*
X341000Y300572D01*
Y303000D01*
D02*
G37*
G36*
X333928D02*
X331500D01*
Y300572D01*
X331775Y300608D01*
X332497Y300907D01*
X333117Y301383D01*
X333593Y302003D01*
X333892Y302725D01*
X333928Y303000D01*
D02*
G37*
G36*
X330500D02*
X328072D01*
X328108Y302725D01*
X328407Y302003D01*
X328883Y301383D01*
X329503Y300907D01*
X330225Y300608D01*
X330500Y300572D01*
Y303000D01*
D02*
G37*
G36*
X353000Y298928D02*
Y296500D01*
X355428D01*
X355392Y296775D01*
X355093Y297497D01*
X354617Y298117D01*
X353997Y298593D01*
X353275Y298892D01*
X353000Y298928D01*
D02*
G37*
G36*
X352000D02*
X351725Y298892D01*
X351003Y298593D01*
X350383Y298117D01*
X349907Y297497D01*
X349608Y296775D01*
X349572Y296500D01*
X352000D01*
Y298928D01*
D02*
G37*
G36*
X342000D02*
Y296500D01*
X344428D01*
X344392Y296775D01*
X344093Y297497D01*
X343617Y298117D01*
X342997Y298593D01*
X342275Y298892D01*
X342000Y298928D01*
D02*
G37*
G36*
X341000D02*
X340725Y298892D01*
X340003Y298593D01*
X339383Y298117D01*
X338907Y297497D01*
X338608Y296775D01*
X338572Y296500D01*
X341000D01*
Y298928D01*
D02*
G37*
G36*
X331500D02*
Y296500D01*
X333928D01*
X333892Y296775D01*
X333593Y297497D01*
X333117Y298117D01*
X332497Y298593D01*
X331775Y298892D01*
X331500Y298928D01*
D02*
G37*
G36*
X330500D02*
X330225Y298892D01*
X329503Y298593D01*
X328883Y298117D01*
X328407Y297497D01*
X328108Y296775D01*
X328072Y296500D01*
X330500D01*
Y298928D01*
D02*
G37*
G36*
X355428Y295500D02*
X353000D01*
Y293072D01*
X353275Y293108D01*
X353997Y293407D01*
X354617Y293883D01*
X355093Y294503D01*
X355392Y295225D01*
X355428Y295500D01*
D02*
G37*
G36*
X352000D02*
X349572D01*
X349608Y295225D01*
X349907Y294503D01*
X350383Y293883D01*
X351003Y293407D01*
X351725Y293108D01*
X352000Y293072D01*
Y295500D01*
D02*
G37*
G36*
X344428D02*
X342000D01*
Y293072D01*
X342275Y293108D01*
X342997Y293407D01*
X343617Y293883D01*
X344093Y294503D01*
X344392Y295225D01*
X344428Y295500D01*
D02*
G37*
G36*
X341000D02*
X338572D01*
X338608Y295225D01*
X338907Y294503D01*
X339383Y293883D01*
X340003Y293407D01*
X340725Y293108D01*
X341000Y293072D01*
Y295500D01*
D02*
G37*
G36*
X333928D02*
X331500D01*
Y293072D01*
X331775Y293108D01*
X332497Y293407D01*
X333117Y293883D01*
X333593Y294503D01*
X333892Y295225D01*
X333928Y295500D01*
D02*
G37*
G36*
X330500D02*
X328072D01*
X328108Y295225D01*
X328407Y294503D01*
X328883Y293883D01*
X329503Y293407D01*
X330225Y293108D01*
X330500Y293072D01*
Y295500D01*
D02*
G37*
G36*
X353000Y290428D02*
Y288000D01*
X355428D01*
X355392Y288275D01*
X355093Y288997D01*
X354617Y289617D01*
X353997Y290093D01*
X353275Y290392D01*
X353000Y290428D01*
D02*
G37*
G36*
X352000D02*
X351725Y290392D01*
X351003Y290093D01*
X350383Y289617D01*
X349907Y288997D01*
X349608Y288275D01*
X349572Y288000D01*
X352000D01*
Y290428D01*
D02*
G37*
G36*
X342000D02*
Y288000D01*
X344428D01*
X344392Y288275D01*
X344093Y288997D01*
X343617Y289617D01*
X342997Y290093D01*
X342275Y290392D01*
X342000Y290428D01*
D02*
G37*
G36*
X341000D02*
X340725Y290392D01*
X340003Y290093D01*
X339383Y289617D01*
X338907Y288997D01*
X338608Y288275D01*
X338572Y288000D01*
X341000D01*
Y290428D01*
D02*
G37*
G36*
X331500D02*
Y288000D01*
X333928D01*
X333892Y288275D01*
X333593Y288997D01*
X333117Y289617D01*
X332497Y290093D01*
X331775Y290392D01*
X331500Y290428D01*
D02*
G37*
G36*
X330500D02*
X330225Y290392D01*
X329503Y290093D01*
X328883Y289617D01*
X328407Y288997D01*
X328108Y288275D01*
X328072Y288000D01*
X330500D01*
Y290428D01*
D02*
G37*
G36*
X355428Y287000D02*
X353000D01*
Y284572D01*
X353275Y284608D01*
X353997Y284907D01*
X354617Y285383D01*
X355093Y286003D01*
X355392Y286725D01*
X355428Y287000D01*
D02*
G37*
G36*
X352000D02*
X349572D01*
X349608Y286725D01*
X349907Y286003D01*
X350383Y285383D01*
X351003Y284907D01*
X351725Y284608D01*
X352000Y284572D01*
Y287000D01*
D02*
G37*
G36*
X344428D02*
X342000D01*
Y284572D01*
X342275Y284608D01*
X342997Y284907D01*
X343617Y285383D01*
X344093Y286003D01*
X344392Y286725D01*
X344428Y287000D01*
D02*
G37*
G36*
X341000D02*
X338572D01*
X338608Y286725D01*
X338907Y286003D01*
X339383Y285383D01*
X340003Y284907D01*
X340725Y284608D01*
X341000Y284572D01*
Y287000D01*
D02*
G37*
G36*
X333928D02*
X331500D01*
Y284572D01*
X331775Y284608D01*
X332497Y284907D01*
X333117Y285383D01*
X333593Y286003D01*
X333892Y286725D01*
X333928Y287000D01*
D02*
G37*
G36*
X330500D02*
X328072D01*
X328108Y286725D01*
X328407Y286003D01*
X328883Y285383D01*
X329503Y284907D01*
X330225Y284608D01*
X330500Y284572D01*
Y287000D01*
D02*
G37*
G36*
X353000Y281428D02*
Y279000D01*
X355428D01*
X355392Y279275D01*
X355093Y279997D01*
X354617Y280617D01*
X353997Y281093D01*
X353275Y281392D01*
X353000Y281428D01*
D02*
G37*
G36*
X352000D02*
X351725Y281392D01*
X351003Y281093D01*
X350383Y280617D01*
X349907Y279997D01*
X349608Y279275D01*
X349572Y279000D01*
X352000D01*
Y281428D01*
D02*
G37*
G36*
X342000D02*
Y279000D01*
X344428D01*
X344392Y279275D01*
X344093Y279997D01*
X343617Y280617D01*
X342997Y281093D01*
X342275Y281392D01*
X342000Y281428D01*
D02*
G37*
G36*
X341000D02*
X340725Y281392D01*
X340003Y281093D01*
X339383Y280617D01*
X338907Y279997D01*
X338608Y279275D01*
X338572Y279000D01*
X341000D01*
Y281428D01*
D02*
G37*
G36*
X331500D02*
Y279000D01*
X333928D01*
X333892Y279275D01*
X333593Y279997D01*
X333117Y280617D01*
X332497Y281093D01*
X331775Y281392D01*
X331500Y281428D01*
D02*
G37*
G36*
X330500D02*
X330225Y281392D01*
X329503Y281093D01*
X328883Y280617D01*
X328407Y279997D01*
X328108Y279275D01*
X328072Y279000D01*
X330500D01*
Y281428D01*
D02*
G37*
G36*
X355428Y278000D02*
X353000D01*
Y275572D01*
X353275Y275608D01*
X353997Y275907D01*
X354617Y276383D01*
X355093Y277003D01*
X355392Y277725D01*
X355428Y278000D01*
D02*
G37*
G36*
X352000D02*
X349572D01*
X349608Y277725D01*
X349907Y277003D01*
X350383Y276383D01*
X351003Y275907D01*
X351725Y275608D01*
X352000Y275572D01*
Y278000D01*
D02*
G37*
G36*
X344428D02*
X342000D01*
Y275572D01*
X342275Y275608D01*
X342997Y275907D01*
X343617Y276383D01*
X344093Y277003D01*
X344392Y277725D01*
X344428Y278000D01*
D02*
G37*
G36*
X341000D02*
X338572D01*
X338608Y277725D01*
X338907Y277003D01*
X339383Y276383D01*
X340003Y275907D01*
X340725Y275608D01*
X341000Y275572D01*
Y278000D01*
D02*
G37*
G36*
X333928D02*
X331500D01*
Y275572D01*
X331775Y275608D01*
X332497Y275907D01*
X333117Y276383D01*
X333593Y277003D01*
X333892Y277725D01*
X333928Y278000D01*
D02*
G37*
G36*
X330500D02*
X328072D01*
X328108Y277725D01*
X328407Y277003D01*
X328883Y276383D01*
X329503Y275907D01*
X330225Y275608D01*
X330500Y275572D01*
Y278000D01*
D02*
G37*
G36*
X353000Y272428D02*
Y270000D01*
X355428D01*
X355392Y270275D01*
X355093Y270997D01*
X354617Y271617D01*
X353997Y272093D01*
X353275Y272392D01*
X353000Y272428D01*
D02*
G37*
G36*
X352000D02*
X351725Y272392D01*
X351003Y272093D01*
X350383Y271617D01*
X349907Y270997D01*
X349608Y270275D01*
X349572Y270000D01*
X352000D01*
Y272428D01*
D02*
G37*
G36*
X342000D02*
Y270000D01*
X344428D01*
X344392Y270275D01*
X344093Y270997D01*
X343617Y271617D01*
X342997Y272093D01*
X342275Y272392D01*
X342000Y272428D01*
D02*
G37*
G36*
X341000D02*
X340725Y272392D01*
X340003Y272093D01*
X339383Y271617D01*
X338907Y270997D01*
X338608Y270275D01*
X338572Y270000D01*
X341000D01*
Y272428D01*
D02*
G37*
G36*
X331500D02*
Y270000D01*
X333928D01*
X333892Y270275D01*
X333593Y270997D01*
X333117Y271617D01*
X332497Y272093D01*
X331775Y272392D01*
X331500Y272428D01*
D02*
G37*
G36*
X330500D02*
X330225Y272392D01*
X329503Y272093D01*
X328883Y271617D01*
X328407Y270997D01*
X328108Y270275D01*
X328072Y270000D01*
X330500D01*
Y272428D01*
D02*
G37*
G36*
X355428Y269000D02*
X353000D01*
Y266572D01*
X353275Y266608D01*
X353997Y266907D01*
X354617Y267383D01*
X355093Y268003D01*
X355392Y268725D01*
X355428Y269000D01*
D02*
G37*
G36*
X352000D02*
X349572D01*
X349608Y268725D01*
X349907Y268003D01*
X350383Y267383D01*
X351003Y266907D01*
X351725Y266608D01*
X352000Y266572D01*
Y269000D01*
D02*
G37*
G36*
X344428D02*
X342000D01*
Y266572D01*
X342275Y266608D01*
X342997Y266907D01*
X343617Y267383D01*
X344093Y268003D01*
X344392Y268725D01*
X344428Y269000D01*
D02*
G37*
G36*
X341000D02*
X338572D01*
X338608Y268725D01*
X338907Y268003D01*
X339383Y267383D01*
X340003Y266907D01*
X340725Y266608D01*
X341000Y266572D01*
Y269000D01*
D02*
G37*
G36*
X333928D02*
X331500D01*
Y266572D01*
X331775Y266608D01*
X332497Y266907D01*
X333117Y267383D01*
X333593Y268003D01*
X333892Y268725D01*
X333928Y269000D01*
D02*
G37*
G36*
X330500D02*
X328072D01*
X328108Y268725D01*
X328407Y268003D01*
X328883Y267383D01*
X329503Y266907D01*
X330225Y266608D01*
X330500Y266572D01*
Y269000D01*
D02*
G37*
%LPD*%
D15*
X293376Y476000D02*
X313500D01*
X337828Y415500D02*
X345000Y408328D01*
Y340672D02*
Y408328D01*
X338828Y334500D02*
X345000Y340672D01*
X244000Y340500D02*
X261500D01*
X240000Y344500D02*
X244000Y340500D01*
X142500Y289815D02*
X190000D01*
X192500Y292315D01*
Y336000D01*
X291000Y394953D02*
X291500D01*
X288047D02*
X291000D01*
X294000Y387286D02*
Y394953D01*
Y386000D02*
Y387286D01*
X292000Y394953D02*
X294000D01*
X291500D02*
X292000D01*
X339657Y332500D02*
X347000Y339843D01*
X274157Y332500D02*
X339657D01*
X258500Y316843D02*
X274157Y332500D01*
X258500Y304000D02*
Y316843D01*
X273328Y334500D02*
X338828D01*
X255000Y316172D02*
X273328Y334500D01*
X255000Y310000D02*
Y316172D01*
X317000Y420500D02*
X320000Y417500D01*
X317000Y420500D02*
Y444500D01*
X320000Y417500D02*
X338657D01*
X347000Y409157D01*
Y339843D02*
Y409157D01*
X238000Y283500D02*
X258500Y304000D01*
X238000Y302000D02*
X272500Y336500D01*
X338000D01*
X307000Y421000D02*
Y444500D01*
Y421000D02*
X312500Y415500D01*
X337828D01*
X238000Y293000D02*
X255000Y310000D01*
X297000Y418500D02*
Y444500D01*
Y418500D02*
X302000Y413500D01*
X337000D01*
X343000Y407500D01*
Y341500D02*
Y407500D01*
X338000Y336500D02*
X343000Y341500D01*
X337000Y444500D02*
Y452500D01*
X313500Y476000D02*
X337000Y452500D01*
X294000Y383142D02*
Y386000D01*
X280047Y386547D02*
Y394953D01*
Y383142D02*
Y386547D01*
X291000Y383142D02*
X293953D01*
X288047D02*
X291000D01*
X281173D02*
X285953D01*
X280047D02*
X281173D01*
X286047D02*
Y394953D01*
X280047D02*
X285953D01*
X288047Y383142D02*
Y394953D01*
D53*
X298000Y385000D02*
X326823Y356177D01*
X244000Y452500D02*
X291000Y405500D01*
X133000Y452500D02*
X244000D01*
X119500Y466000D02*
X133000Y452500D01*
X291000Y394953D02*
Y405500D01*
X154000Y417000D02*
X203000Y368000D01*
X261500D01*
X294000Y387286D02*
X298000Y385000D01*
X280047Y386547D02*
X282547Y389047D01*
X261500Y368000D02*
X280047Y386547D01*
X261500Y340500D02*
Y368000D01*
D54*
X346000Y254500D02*
D03*
X113500D02*
D03*
X346000Y486500D02*
D03*
X162286Y438500D02*
D03*
D55*
X154000Y417000D02*
D03*
X164000D02*
D03*
D56*
X174000D02*
D03*
D57*
X142500Y309500D02*
D03*
D58*
Y299658D02*
D03*
Y289815D02*
D03*
Y279972D02*
D03*
X168500Y463000D02*
D03*
X158658D02*
D03*
X148815D02*
D03*
D59*
X178342D02*
D03*
D60*
X277000Y318000D02*
D03*
X287000D02*
D03*
X297000D02*
D03*
X307000D02*
D03*
X317000D02*
D03*
X327000D02*
D03*
X337000D02*
D03*
Y444500D02*
D03*
X327000D02*
D03*
X317000D02*
D03*
X307000D02*
D03*
X297000D02*
D03*
X287000D02*
D03*
X277000D02*
D03*
D61*
X347000Y318000D02*
D03*
Y444500D02*
D03*
D62*
X327067Y346579D02*
D03*
D63*
Y356421D02*
D03*
D64*
X119500Y486000D02*
D03*
X119000Y438221D02*
D03*
D65*
X119500Y466000D02*
D03*
X119000Y418221D02*
D03*
D66*
X293376Y476000D02*
D03*
X250000Y407000D02*
D03*
X243529D02*
D03*
X237500D02*
D03*
X231538D02*
D03*
X225455D02*
D03*
X213462D02*
D03*
X219500D02*
D03*
X352500Y269500D02*
D03*
X341500D02*
D03*
X331000D02*
D03*
X352500Y278500D02*
D03*
X341500D02*
D03*
X331000D02*
D03*
X352500Y287500D02*
D03*
X341500D02*
D03*
X331000D02*
D03*
X352500Y296000D02*
D03*
X341500D02*
D03*
X331000D02*
D03*
X352500Y303500D02*
D03*
X341500D02*
D03*
X331000D02*
D03*
X250000Y381000D02*
D03*
X243500D02*
D03*
X237500D02*
D03*
X231500D02*
D03*
X225500D02*
D03*
X219504D02*
D03*
X250000Y387500D02*
D03*
X243500D02*
D03*
X237500D02*
D03*
X231500D02*
D03*
X225500D02*
D03*
X219500D02*
D03*
X250000Y394000D02*
D03*
X243500D02*
D03*
X237500D02*
D03*
X231500D02*
D03*
X225500D02*
D03*
X219500D02*
D03*
X250000Y400500D02*
D03*
X243500D02*
D03*
X237500D02*
D03*
X231500D02*
D03*
X225500D02*
D03*
X219504D02*
D03*
X213587Y381000D02*
D03*
Y387500D02*
D03*
X213500Y394000D02*
D03*
X213587Y400500D02*
D03*
X192500Y336000D02*
D03*
X238000Y302000D02*
D03*
Y293000D02*
D03*
Y283500D02*
D03*
X261500Y340500D02*
D03*
D67*
X249500Y344500D02*
D03*
X240000D02*
D03*
X291000Y389000D02*
D03*
X282547Y389047D02*
D03*
D68*
X291000Y389000D02*
Y394953D01*
M02*
