M48
;Layer_Color=9474304
;FILE_FORMAT=2:4
INCH,TZ
;TYPE=PLATED
T1F00S00C0.0118
T2F00S00C0.0280
T3F00S00C0.0394
T4F00S00C0.0413
T5F00S00C0.0433
T6F00S00C0.0512
T7F00S00C0.1378
%
T01
X33100Y26950
Y27850
Y28750
Y29600
Y30350
X34150
Y29600
Y28750
Y27850
Y26950
X35250
Y27850
Y28750
Y29600
Y30350
X23800Y30200
Y29300
Y28350
X26150Y34050
X25000Y38100
X24350
X23750
X23150
X22550
X21950
X21359
Y38750
X21950
X22550
X23150
X23750
X24350
X25000
Y39400
X24350
X23750
X23150
X22550
X21950
X21350
X21359Y40050
X21950
X22550
X23150
X23750
X24350
X25000
Y40700
X24353
X23750
X23154
X22545
X21950
X21346
X19250Y33600
X29338Y47600
T02
X15400Y41700
X16400
X17400
T03
X14250Y27997
Y28981
Y29966
Y30950
X14882Y46300
X15866
X16850
X17834
T04
X32707Y34658
Y35642
T05
X27700Y31800
X28700
X29700
X30700
Y44450
X29700
X28700
X27700
X31700
X32700
X33700
X34700
Y31800
X33700
X32700
X31700
T06
X11900Y41822
Y43822
X11950Y46600
Y48600
T07
X34600Y25450
X11350
X16229Y43850
X34600Y48650
M30
